<?xml version="1.0" encoding="UTF-8"?>
<svg xmlns="http://www.w3.org/2000/svg" xmlns:xlink="http://www.w3.org/1999/xlink" width="1600pt" height="800pt" viewBox="0 0 1600 800" version="1.1">
<g id="surface1">
<path style=" stroke:none;fill-rule:nonzero;fill:rgb(100%,100%,100%);fill-opacity:1;" d="M 0 800 L 1527.273438 800 L 1527.273438 0 L 0 0 Z M 0 800 "/>
<path style="fill:none;stroke-width:0.1;stroke-linecap:butt;stroke-linejoin:round;stroke:rgb(0%,0%,0%);stroke-opacity:1;stroke-miterlimit:10;" d="M -0.00000976563 -0.00000976562 L 0.99998 -0.00000976562 " transform="matrix(72.727273,0,0,-72.727273,72.727273,727.272727)"/>
<path style="fill:none;stroke-width:0.1;stroke-linecap:butt;stroke-linejoin:round;stroke:rgb(0%,0%,0%);stroke-opacity:1;stroke-miterlimit:10;" d="M -0.00000976563 -0.00000976562 L -0.00000976563 0.99998 " transform="matrix(72.727273,0,0,-72.727273,72.727273,727.272727)"/>
<path style="fill:none;stroke-width:0.1;stroke-linecap:butt;stroke-linejoin:round;stroke:rgb(0%,0%,0%);stroke-opacity:1;stroke-miterlimit:10;" d="M -0.00000976563 0.99998 L 0.99998 0.99998 " transform="matrix(72.727273,0,0,-72.727273,72.727273,727.272727)"/>
<path style="fill:none;stroke-width:0.1;stroke-linecap:butt;stroke-linejoin:round;stroke:rgb(0%,0%,0%);stroke-opacity:1;stroke-miterlimit:10;" d="M -0.00000976563 0.99998 L -0.00000976563 2.000024 " transform="matrix(72.727273,0,0,-72.727273,72.727273,727.272727)"/>
<path style="fill:none;stroke-width:0.1;stroke-linecap:butt;stroke-linejoin:round;stroke:rgb(0%,0%,0%);stroke-opacity:1;stroke-miterlimit:10;" d="M -0.00000976563 2.000024 L 0.99998 2.000024 " transform="matrix(72.727273,0,0,-72.727273,72.727273,727.272727)"/>
<path style="fill:none;stroke-width:0.1;stroke-linecap:butt;stroke-linejoin:round;stroke:rgb(0%,0%,0%);stroke-opacity:1;stroke-miterlimit:10;" d="M -0.00000976563 2.000024 L -0.00000976563 3.000015 " transform="matrix(72.727273,0,0,-72.727273,72.727273,727.272727)"/>
<path style="fill:none;stroke-width:0.1;stroke-linecap:butt;stroke-linejoin:round;stroke:rgb(0%,0%,0%);stroke-opacity:1;stroke-miterlimit:10;" d="M -0.00000976563 3.000015 L 0.99998 3.000015 " transform="matrix(72.727273,0,0,-72.727273,72.727273,727.272727)"/>
<path style="fill:none;stroke-width:0.1;stroke-linecap:butt;stroke-linejoin:round;stroke:rgb(0%,0%,0%);stroke-opacity:1;stroke-miterlimit:10;" d="M -0.00000976563 3.000015 L -0.00000976563 4.000005 " transform="matrix(72.727273,0,0,-72.727273,72.727273,727.272727)"/>
<path style="fill:none;stroke-width:0.1;stroke-linecap:butt;stroke-linejoin:round;stroke:rgb(0%,0%,0%);stroke-opacity:1;stroke-miterlimit:10;" d="M -0.00000976563 4.000005 L 0.99998 4.000005 " transform="matrix(72.727273,0,0,-72.727273,72.727273,727.272727)"/>
<path style="fill:none;stroke-width:0.1;stroke-linecap:butt;stroke-linejoin:round;stroke:rgb(0%,0%,0%);stroke-opacity:1;stroke-miterlimit:10;" d="M -0.00000976563 4.000005 L -0.00000976563 4.999995 " transform="matrix(72.727273,0,0,-72.727273,72.727273,727.272727)"/>
<path style="fill:none;stroke-width:0.1;stroke-linecap:butt;stroke-linejoin:round;stroke:rgb(0%,0%,0%);stroke-opacity:1;stroke-miterlimit:10;" d="M -0.00000976563 4.999995 L 0.99998 4.999995 " transform="matrix(72.727273,0,0,-72.727273,72.727273,727.272727)"/>
<path style="fill:none;stroke-width:0.1;stroke-linecap:butt;stroke-linejoin:round;stroke:rgb(0%,0%,0%);stroke-opacity:1;stroke-miterlimit:10;" d="M -0.00000976563 4.999995 L -0.00000976563 5.999985 " transform="matrix(72.727273,0,0,-72.727273,72.727273,727.272727)"/>
<path style="fill:none;stroke-width:0.1;stroke-linecap:butt;stroke-linejoin:round;stroke:rgb(0%,0%,0%);stroke-opacity:1;stroke-miterlimit:10;" d="M -0.00000976563 5.999985 L 0.99998 5.999985 " transform="matrix(72.727273,0,0,-72.727273,72.727273,727.272727)"/>
<path style="fill:none;stroke-width:0.1;stroke-linecap:butt;stroke-linejoin:round;stroke:rgb(0%,0%,0%);stroke-opacity:1;stroke-miterlimit:10;" d="M -0.00000976563 5.999985 L -0.00000976563 6.999976 " transform="matrix(72.727273,0,0,-72.727273,72.727273,727.272727)"/>
<path style="fill:none;stroke-width:0.1;stroke-linecap:butt;stroke-linejoin:round;stroke:rgb(0%,0%,0%);stroke-opacity:1;stroke-miterlimit:10;" d="M -0.00000976563 6.999976 L 0.99998 6.999976 " transform="matrix(72.727273,0,0,-72.727273,72.727273,727.272727)"/>
<path style="fill:none;stroke-width:0.1;stroke-linecap:butt;stroke-linejoin:round;stroke:rgb(0%,0%,0%);stroke-opacity:1;stroke-miterlimit:10;" d="M -0.00000976563 6.999976 L -0.00000976563 8.00002 " transform="matrix(72.727273,0,0,-72.727273,72.727273,727.272727)"/>
<path style="fill:none;stroke-width:0.1;stroke-linecap:butt;stroke-linejoin:round;stroke:rgb(0%,0%,0%);stroke-opacity:1;stroke-miterlimit:10;" d="M -0.00000976563 8.00002 L 0.99998 8.00002 " transform="matrix(72.727273,0,0,-72.727273,72.727273,727.272727)"/>
<path style="fill:none;stroke-width:0.1;stroke-linecap:butt;stroke-linejoin:round;stroke:rgb(0%,0%,0%);stroke-opacity:1;stroke-miterlimit:10;" d="M -0.00000976563 8.00002 L -0.00000976563 9.00001 " transform="matrix(72.727273,0,0,-72.727273,72.727273,727.272727)"/>
<path style="fill:none;stroke-width:0.1;stroke-linecap:butt;stroke-linejoin:round;stroke:rgb(0%,0%,0%);stroke-opacity:1;stroke-miterlimit:10;" d="M -0.00000976563 9.00001 L 0.99998 9.00001 " transform="matrix(72.727273,0,0,-72.727273,72.727273,727.272727)"/>
<path style="fill:none;stroke-width:0.1;stroke-linecap:butt;stroke-linejoin:round;stroke:rgb(0%,0%,0%);stroke-opacity:1;stroke-miterlimit:10;" d="M 0.99998 -0.00000976562 L 2.000024 -0.00000976562 " transform="matrix(72.727273,0,0,-72.727273,72.727273,727.272727)"/>
<path style="fill:none;stroke-width:0.1;stroke-linecap:butt;stroke-linejoin:round;stroke:rgb(0%,0%,0%);stroke-opacity:1;stroke-miterlimit:10;" d="M 0.99998 -0.00000976562 L 0.99998 0.99998 " transform="matrix(72.727273,0,0,-72.727273,72.727273,727.272727)"/>
<path style="fill:none;stroke-width:0.1;stroke-linecap:butt;stroke-linejoin:round;stroke:rgb(0%,0%,0%);stroke-opacity:1;stroke-miterlimit:10;" d="M 0.99998 0.99998 L 2.000024 0.99998 " transform="matrix(72.727273,0,0,-72.727273,72.727273,727.272727)"/>
<path style="fill:none;stroke-width:0.1;stroke-linecap:butt;stroke-linejoin:round;stroke:rgb(0%,0%,0%);stroke-opacity:1;stroke-miterlimit:10;" d="M 0.99998 0.99998 L 0.99998 2.000024 " transform="matrix(72.727273,0,0,-72.727273,72.727273,727.272727)"/>
<path style="fill:none;stroke-width:0.1;stroke-linecap:butt;stroke-linejoin:round;stroke:rgb(0%,0%,0%);stroke-opacity:1;stroke-miterlimit:10;" d="M 0.99998 2.000024 L 2.000024 2.000024 " transform="matrix(72.727273,0,0,-72.727273,72.727273,727.272727)"/>
<path style="fill:none;stroke-width:0.1;stroke-linecap:butt;stroke-linejoin:round;stroke:rgb(0%,0%,0%);stroke-opacity:1;stroke-miterlimit:10;" d="M 0.99998 2.000024 L 0.99998 3.000015 " transform="matrix(72.727273,0,0,-72.727273,72.727273,727.272727)"/>
<path style="fill:none;stroke-width:0.1;stroke-linecap:butt;stroke-linejoin:round;stroke:rgb(0%,0%,0%);stroke-opacity:1;stroke-miterlimit:10;" d="M 0.99998 3.000015 L 2.000024 3.000015 " transform="matrix(72.727273,0,0,-72.727273,72.727273,727.272727)"/>
<path style="fill:none;stroke-width:0.1;stroke-linecap:butt;stroke-linejoin:round;stroke:rgb(0%,0%,0%);stroke-opacity:1;stroke-miterlimit:10;" d="M 0.99998 3.000015 L 0.99998 4.000005 " transform="matrix(72.727273,0,0,-72.727273,72.727273,727.272727)"/>
<path style="fill:none;stroke-width:0.1;stroke-linecap:butt;stroke-linejoin:round;stroke:rgb(0%,0%,0%);stroke-opacity:1;stroke-miterlimit:10;" d="M 0.99998 4.000005 L 2.000024 4.000005 " transform="matrix(72.727273,0,0,-72.727273,72.727273,727.272727)"/>
<path style="fill:none;stroke-width:0.1;stroke-linecap:butt;stroke-linejoin:round;stroke:rgb(0%,0%,0%);stroke-opacity:1;stroke-miterlimit:10;" d="M 0.99998 4.000005 L 0.99998 4.999995 " transform="matrix(72.727273,0,0,-72.727273,72.727273,727.272727)"/>
<path style="fill:none;stroke-width:0.1;stroke-linecap:butt;stroke-linejoin:round;stroke:rgb(0%,0%,0%);stroke-opacity:1;stroke-miterlimit:10;" d="M 0.99998 4.999995 L 2.000024 4.999995 " transform="matrix(72.727273,0,0,-72.727273,72.727273,727.272727)"/>
<path style="fill:none;stroke-width:0.1;stroke-linecap:butt;stroke-linejoin:round;stroke:rgb(0%,0%,0%);stroke-opacity:1;stroke-miterlimit:10;" d="M 0.99998 4.999995 L 0.99998 5.999985 " transform="matrix(72.727273,0,0,-72.727273,72.727273,727.272727)"/>
<path style="fill:none;stroke-width:0.1;stroke-linecap:butt;stroke-linejoin:round;stroke:rgb(0%,0%,0%);stroke-opacity:1;stroke-miterlimit:10;" d="M 0.99998 5.999985 L 2.000024 5.999985 " transform="matrix(72.727273,0,0,-72.727273,72.727273,727.272727)"/>
<path style="fill:none;stroke-width:0.1;stroke-linecap:butt;stroke-linejoin:round;stroke:rgb(0%,0%,0%);stroke-opacity:1;stroke-miterlimit:10;" d="M 0.99998 5.999985 L 0.99998 6.999976 " transform="matrix(72.727273,0,0,-72.727273,72.727273,727.272727)"/>
<path style="fill:none;stroke-width:0.1;stroke-linecap:butt;stroke-linejoin:round;stroke:rgb(0%,0%,0%);stroke-opacity:1;stroke-miterlimit:10;" d="M 0.99998 6.999976 L 2.000024 6.999976 " transform="matrix(72.727273,0,0,-72.727273,72.727273,727.272727)"/>
<path style="fill:none;stroke-width:0.1;stroke-linecap:butt;stroke-linejoin:round;stroke:rgb(0%,0%,0%);stroke-opacity:1;stroke-miterlimit:10;" d="M 0.99998 6.999976 L 0.99998 8.00002 " transform="matrix(72.727273,0,0,-72.727273,72.727273,727.272727)"/>
<path style="fill:none;stroke-width:0.1;stroke-linecap:butt;stroke-linejoin:round;stroke:rgb(0%,0%,0%);stroke-opacity:1;stroke-miterlimit:10;" d="M 0.99998 8.00002 L 2.000024 8.00002 " transform="matrix(72.727273,0,0,-72.727273,72.727273,727.272727)"/>
<path style="fill:none;stroke-width:0.1;stroke-linecap:butt;stroke-linejoin:round;stroke:rgb(0%,0%,0%);stroke-opacity:1;stroke-miterlimit:10;" d="M 0.99998 8.00002 L 0.99998 9.00001 " transform="matrix(72.727273,0,0,-72.727273,72.727273,727.272727)"/>
<path style="fill:none;stroke-width:0.1;stroke-linecap:butt;stroke-linejoin:round;stroke:rgb(0%,0%,0%);stroke-opacity:1;stroke-miterlimit:10;" d="M 0.99998 9.00001 L 2.000024 9.00001 " transform="matrix(72.727273,0,0,-72.727273,72.727273,727.272727)"/>
<path style="fill:none;stroke-width:0.1;stroke-linecap:butt;stroke-linejoin:round;stroke:rgb(0%,0%,0%);stroke-opacity:1;stroke-miterlimit:10;" d="M 2.000024 -0.00000976562 L 3.000015 -0.00000976562 " transform="matrix(72.727273,0,0,-72.727273,72.727273,727.272727)"/>
<path style="fill:none;stroke-width:0.1;stroke-linecap:butt;stroke-linejoin:round;stroke:rgb(0%,0%,0%);stroke-opacity:1;stroke-miterlimit:10;" d="M 2.000024 -0.00000976562 L 2.000024 0.99998 " transform="matrix(72.727273,0,0,-72.727273,72.727273,727.272727)"/>
<path style="fill:none;stroke-width:0.1;stroke-linecap:butt;stroke-linejoin:round;stroke:rgb(0%,0%,0%);stroke-opacity:1;stroke-miterlimit:10;" d="M 2.000024 0.99998 L 3.000015 0.99998 " transform="matrix(72.727273,0,0,-72.727273,72.727273,727.272727)"/>
<path style="fill:none;stroke-width:0.1;stroke-linecap:butt;stroke-linejoin:round;stroke:rgb(0%,0%,0%);stroke-opacity:1;stroke-miterlimit:10;" d="M 2.000024 0.99998 L 2.000024 2.000024 " transform="matrix(72.727273,0,0,-72.727273,72.727273,727.272727)"/>
<path style="fill:none;stroke-width:0.1;stroke-linecap:butt;stroke-linejoin:round;stroke:rgb(0%,0%,0%);stroke-opacity:1;stroke-miterlimit:10;" d="M 2.000024 2.000024 L 3.000015 2.000024 " transform="matrix(72.727273,0,0,-72.727273,72.727273,727.272727)"/>
<path style="fill:none;stroke-width:0.1;stroke-linecap:butt;stroke-linejoin:round;stroke:rgb(0%,0%,0%);stroke-opacity:1;stroke-miterlimit:10;" d="M 2.000024 2.000024 L 2.000024 3.000015 " transform="matrix(72.727273,0,0,-72.727273,72.727273,727.272727)"/>
<path style="fill:none;stroke-width:0.1;stroke-linecap:butt;stroke-linejoin:round;stroke:rgb(0%,0%,0%);stroke-opacity:1;stroke-miterlimit:10;" d="M 2.000024 3.000015 L 3.000015 3.000015 " transform="matrix(72.727273,0,0,-72.727273,72.727273,727.272727)"/>
<path style="fill:none;stroke-width:0.1;stroke-linecap:butt;stroke-linejoin:round;stroke:rgb(0%,0%,0%);stroke-opacity:1;stroke-miterlimit:10;" d="M 2.000024 3.000015 L 2.000024 4.000005 " transform="matrix(72.727273,0,0,-72.727273,72.727273,727.272727)"/>
<path style="fill:none;stroke-width:0.1;stroke-linecap:butt;stroke-linejoin:round;stroke:rgb(0%,0%,0%);stroke-opacity:1;stroke-miterlimit:10;" d="M 2.000024 4.000005 L 3.000015 4.000005 " transform="matrix(72.727273,0,0,-72.727273,72.727273,727.272727)"/>
<path style="fill:none;stroke-width:0.1;stroke-linecap:butt;stroke-linejoin:round;stroke:rgb(0%,0%,0%);stroke-opacity:1;stroke-miterlimit:10;" d="M 2.000024 4.000005 L 2.000024 4.999995 " transform="matrix(72.727273,0,0,-72.727273,72.727273,727.272727)"/>
<path style="fill:none;stroke-width:0.1;stroke-linecap:butt;stroke-linejoin:round;stroke:rgb(0%,0%,0%);stroke-opacity:1;stroke-miterlimit:10;" d="M 2.000024 4.999995 L 3.000015 4.999995 " transform="matrix(72.727273,0,0,-72.727273,72.727273,727.272727)"/>
<path style="fill:none;stroke-width:0.1;stroke-linecap:butt;stroke-linejoin:round;stroke:rgb(0%,0%,0%);stroke-opacity:1;stroke-miterlimit:10;" d="M 2.000024 4.999995 L 2.000024 5.999985 " transform="matrix(72.727273,0,0,-72.727273,72.727273,727.272727)"/>
<path style="fill:none;stroke-width:0.1;stroke-linecap:butt;stroke-linejoin:round;stroke:rgb(0%,0%,0%);stroke-opacity:1;stroke-miterlimit:10;" d="M 2.000024 5.999985 L 3.000015 5.999985 " transform="matrix(72.727273,0,0,-72.727273,72.727273,727.272727)"/>
<path style="fill:none;stroke-width:0.1;stroke-linecap:butt;stroke-linejoin:round;stroke:rgb(0%,0%,0%);stroke-opacity:1;stroke-miterlimit:10;" d="M 2.000024 5.999985 L 2.000024 6.999976 " transform="matrix(72.727273,0,0,-72.727273,72.727273,727.272727)"/>
<path style="fill:none;stroke-width:0.1;stroke-linecap:butt;stroke-linejoin:round;stroke:rgb(0%,0%,0%);stroke-opacity:1;stroke-miterlimit:10;" d="M 2.000024 6.999976 L 3.000015 6.999976 " transform="matrix(72.727273,0,0,-72.727273,72.727273,727.272727)"/>
<path style="fill:none;stroke-width:0.1;stroke-linecap:butt;stroke-linejoin:round;stroke:rgb(0%,0%,0%);stroke-opacity:1;stroke-miterlimit:10;" d="M 2.000024 6.999976 L 2.000024 8.00002 " transform="matrix(72.727273,0,0,-72.727273,72.727273,727.272727)"/>
<path style="fill:none;stroke-width:0.1;stroke-linecap:butt;stroke-linejoin:round;stroke:rgb(0%,0%,0%);stroke-opacity:1;stroke-miterlimit:10;" d="M 2.000024 8.00002 L 3.000015 8.00002 " transform="matrix(72.727273,0,0,-72.727273,72.727273,727.272727)"/>
<path style="fill:none;stroke-width:0.1;stroke-linecap:butt;stroke-linejoin:round;stroke:rgb(0%,0%,0%);stroke-opacity:1;stroke-miterlimit:10;" d="M 2.000024 8.00002 L 2.000024 9.00001 " transform="matrix(72.727273,0,0,-72.727273,72.727273,727.272727)"/>
<path style="fill:none;stroke-width:0.1;stroke-linecap:butt;stroke-linejoin:round;stroke:rgb(0%,0%,0%);stroke-opacity:1;stroke-miterlimit:10;" d="M 2.000024 9.00001 L 3.000015 9.00001 " transform="matrix(72.727273,0,0,-72.727273,72.727273,727.272727)"/>
<path style="fill:none;stroke-width:0.1;stroke-linecap:butt;stroke-linejoin:round;stroke:rgb(0%,0%,0%);stroke-opacity:1;stroke-miterlimit:10;" d="M 3.000015 -0.00000976562 L 4.000005 -0.00000976562 " transform="matrix(72.727273,0,0,-72.727273,72.727273,727.272727)"/>
<path style="fill:none;stroke-width:0.1;stroke-linecap:butt;stroke-linejoin:round;stroke:rgb(0%,0%,0%);stroke-opacity:1;stroke-miterlimit:10;" d="M 3.000015 -0.00000976562 L 3.000015 0.99998 " transform="matrix(72.727273,0,0,-72.727273,72.727273,727.272727)"/>
<path style="fill:none;stroke-width:0.1;stroke-linecap:butt;stroke-linejoin:round;stroke:rgb(0%,0%,0%);stroke-opacity:1;stroke-miterlimit:10;" d="M 3.000015 0.99998 L 4.000005 0.99998 " transform="matrix(72.727273,0,0,-72.727273,72.727273,727.272727)"/>
<path style="fill:none;stroke-width:0.1;stroke-linecap:butt;stroke-linejoin:round;stroke:rgb(0%,0%,0%);stroke-opacity:1;stroke-miterlimit:10;" d="M 3.000015 0.99998 L 3.000015 2.000024 " transform="matrix(72.727273,0,0,-72.727273,72.727273,727.272727)"/>
<path style="fill:none;stroke-width:0.1;stroke-linecap:butt;stroke-linejoin:round;stroke:rgb(0%,0%,0%);stroke-opacity:1;stroke-miterlimit:10;" d="M 3.000015 2.000024 L 4.000005 2.000024 " transform="matrix(72.727273,0,0,-72.727273,72.727273,727.272727)"/>
<path style="fill:none;stroke-width:0.1;stroke-linecap:butt;stroke-linejoin:round;stroke:rgb(0%,0%,0%);stroke-opacity:1;stroke-miterlimit:10;" d="M 3.000015 2.000024 L 3.000015 3.000015 " transform="matrix(72.727273,0,0,-72.727273,72.727273,727.272727)"/>
<path style="fill:none;stroke-width:0.1;stroke-linecap:butt;stroke-linejoin:round;stroke:rgb(0%,0%,0%);stroke-opacity:1;stroke-miterlimit:10;" d="M 3.000015 3.000015 L 4.000005 3.000015 " transform="matrix(72.727273,0,0,-72.727273,72.727273,727.272727)"/>
<path style="fill:none;stroke-width:0.1;stroke-linecap:butt;stroke-linejoin:round;stroke:rgb(0%,0%,0%);stroke-opacity:1;stroke-miterlimit:10;" d="M 3.000015 3.000015 L 3.000015 4.000005 " transform="matrix(72.727273,0,0,-72.727273,72.727273,727.272727)"/>
<path style="fill:none;stroke-width:0.1;stroke-linecap:butt;stroke-linejoin:round;stroke:rgb(0%,0%,0%);stroke-opacity:1;stroke-miterlimit:10;" d="M 3.000015 4.000005 L 4.000005 4.000005 " transform="matrix(72.727273,0,0,-72.727273,72.727273,727.272727)"/>
<path style="fill:none;stroke-width:0.1;stroke-linecap:butt;stroke-linejoin:round;stroke:rgb(0%,0%,0%);stroke-opacity:1;stroke-miterlimit:10;" d="M 3.000015 4.000005 L 3.000015 4.999995 " transform="matrix(72.727273,0,0,-72.727273,72.727273,727.272727)"/>
<path style="fill:none;stroke-width:0.1;stroke-linecap:butt;stroke-linejoin:round;stroke:rgb(0%,0%,0%);stroke-opacity:1;stroke-miterlimit:10;" d="M 3.000015 4.999995 L 4.000005 4.999995 " transform="matrix(72.727273,0,0,-72.727273,72.727273,727.272727)"/>
<path style="fill:none;stroke-width:0.1;stroke-linecap:butt;stroke-linejoin:round;stroke:rgb(0%,0%,0%);stroke-opacity:1;stroke-miterlimit:10;" d="M 3.000015 4.999995 L 3.000015 5.999985 " transform="matrix(72.727273,0,0,-72.727273,72.727273,727.272727)"/>
<path style="fill:none;stroke-width:0.1;stroke-linecap:butt;stroke-linejoin:round;stroke:rgb(0%,0%,0%);stroke-opacity:1;stroke-miterlimit:10;" d="M 3.000015 5.999985 L 4.000005 5.999985 " transform="matrix(72.727273,0,0,-72.727273,72.727273,727.272727)"/>
<path style="fill:none;stroke-width:0.1;stroke-linecap:butt;stroke-linejoin:round;stroke:rgb(0%,0%,0%);stroke-opacity:1;stroke-miterlimit:10;" d="M 3.000015 5.999985 L 3.000015 6.999976 " transform="matrix(72.727273,0,0,-72.727273,72.727273,727.272727)"/>
<path style="fill:none;stroke-width:0.1;stroke-linecap:butt;stroke-linejoin:round;stroke:rgb(0%,0%,0%);stroke-opacity:1;stroke-miterlimit:10;" d="M 3.000015 6.999976 L 4.000005 6.999976 " transform="matrix(72.727273,0,0,-72.727273,72.727273,727.272727)"/>
<path style="fill:none;stroke-width:0.1;stroke-linecap:butt;stroke-linejoin:round;stroke:rgb(0%,0%,0%);stroke-opacity:1;stroke-miterlimit:10;" d="M 3.000015 6.999976 L 3.000015 8.00002 " transform="matrix(72.727273,0,0,-72.727273,72.727273,727.272727)"/>
<path style="fill:none;stroke-width:0.1;stroke-linecap:butt;stroke-linejoin:round;stroke:rgb(0%,0%,0%);stroke-opacity:1;stroke-miterlimit:10;" d="M 3.000015 8.00002 L 4.000005 8.00002 " transform="matrix(72.727273,0,0,-72.727273,72.727273,727.272727)"/>
<path style="fill:none;stroke-width:0.1;stroke-linecap:butt;stroke-linejoin:round;stroke:rgb(0%,0%,0%);stroke-opacity:1;stroke-miterlimit:10;" d="M 3.000015 8.00002 L 3.000015 9.00001 " transform="matrix(72.727273,0,0,-72.727273,72.727273,727.272727)"/>
<path style="fill:none;stroke-width:0.1;stroke-linecap:butt;stroke-linejoin:round;stroke:rgb(0%,0%,0%);stroke-opacity:1;stroke-miterlimit:10;" d="M 3.000015 9.00001 L 4.000005 9.00001 " transform="matrix(72.727273,0,0,-72.727273,72.727273,727.272727)"/>
<path style="fill:none;stroke-width:0.1;stroke-linecap:butt;stroke-linejoin:round;stroke:rgb(0%,0%,0%);stroke-opacity:1;stroke-miterlimit:10;" d="M 4.000005 -0.00000976562 L 4.999995 -0.00000976562 " transform="matrix(72.727273,0,0,-72.727273,72.727273,727.272727)"/>
<path style="fill:none;stroke-width:0.1;stroke-linecap:butt;stroke-linejoin:round;stroke:rgb(0%,0%,0%);stroke-opacity:1;stroke-miterlimit:10;" d="M 4.000005 -0.00000976562 L 4.000005 0.99998 " transform="matrix(72.727273,0,0,-72.727273,72.727273,727.272727)"/>
<path style="fill:none;stroke-width:0.1;stroke-linecap:butt;stroke-linejoin:round;stroke:rgb(0%,0%,0%);stroke-opacity:1;stroke-miterlimit:10;" d="M 4.000005 0.99998 L 4.999995 0.99998 " transform="matrix(72.727273,0,0,-72.727273,72.727273,727.272727)"/>
<path style="fill:none;stroke-width:0.1;stroke-linecap:butt;stroke-linejoin:round;stroke:rgb(0%,0%,0%);stroke-opacity:1;stroke-miterlimit:10;" d="M 4.000005 0.99998 L 4.000005 2.000024 " transform="matrix(72.727273,0,0,-72.727273,72.727273,727.272727)"/>
<path style="fill:none;stroke-width:0.1;stroke-linecap:butt;stroke-linejoin:round;stroke:rgb(0%,0%,0%);stroke-opacity:1;stroke-miterlimit:10;" d="M 4.000005 2.000024 L 4.999995 2.000024 " transform="matrix(72.727273,0,0,-72.727273,72.727273,727.272727)"/>
<path style="fill:none;stroke-width:0.1;stroke-linecap:butt;stroke-linejoin:round;stroke:rgb(0%,0%,0%);stroke-opacity:1;stroke-miterlimit:10;" d="M 4.000005 2.000024 L 4.000005 3.000015 " transform="matrix(72.727273,0,0,-72.727273,72.727273,727.272727)"/>
<path style="fill:none;stroke-width:0.1;stroke-linecap:butt;stroke-linejoin:round;stroke:rgb(0%,0%,0%);stroke-opacity:1;stroke-miterlimit:10;" d="M 4.000005 3.000015 L 4.999995 3.000015 " transform="matrix(72.727273,0,0,-72.727273,72.727273,727.272727)"/>
<path style="fill:none;stroke-width:0.1;stroke-linecap:butt;stroke-linejoin:round;stroke:rgb(0%,0%,0%);stroke-opacity:1;stroke-miterlimit:10;" d="M 4.000005 3.000015 L 4.000005 4.000005 " transform="matrix(72.727273,0,0,-72.727273,72.727273,727.272727)"/>
<path style="fill:none;stroke-width:0.1;stroke-linecap:butt;stroke-linejoin:round;stroke:rgb(0%,0%,0%);stroke-opacity:1;stroke-miterlimit:10;" d="M 4.000005 4.000005 L 4.999995 4.000005 " transform="matrix(72.727273,0,0,-72.727273,72.727273,727.272727)"/>
<path style="fill:none;stroke-width:0.1;stroke-linecap:butt;stroke-linejoin:round;stroke:rgb(0%,0%,0%);stroke-opacity:1;stroke-miterlimit:10;" d="M 4.000005 4.000005 L 4.000005 4.999995 " transform="matrix(72.727273,0,0,-72.727273,72.727273,727.272727)"/>
<path style="fill:none;stroke-width:0.1;stroke-linecap:butt;stroke-linejoin:round;stroke:rgb(0%,0%,0%);stroke-opacity:1;stroke-miterlimit:10;" d="M 4.000005 4.999995 L 4.999995 4.999995 " transform="matrix(72.727273,0,0,-72.727273,72.727273,727.272727)"/>
<path style="fill:none;stroke-width:0.1;stroke-linecap:butt;stroke-linejoin:round;stroke:rgb(0%,0%,0%);stroke-opacity:1;stroke-miterlimit:10;" d="M 4.000005 4.999995 L 4.000005 5.999985 " transform="matrix(72.727273,0,0,-72.727273,72.727273,727.272727)"/>
<path style="fill:none;stroke-width:0.1;stroke-linecap:butt;stroke-linejoin:round;stroke:rgb(0%,0%,0%);stroke-opacity:1;stroke-miterlimit:10;" d="M 4.000005 5.999985 L 4.999995 5.999985 " transform="matrix(72.727273,0,0,-72.727273,72.727273,727.272727)"/>
<path style="fill:none;stroke-width:0.1;stroke-linecap:butt;stroke-linejoin:round;stroke:rgb(0%,0%,0%);stroke-opacity:1;stroke-miterlimit:10;" d="M 4.000005 5.999985 L 4.000005 6.999976 " transform="matrix(72.727273,0,0,-72.727273,72.727273,727.272727)"/>
<path style="fill:none;stroke-width:0.1;stroke-linecap:butt;stroke-linejoin:round;stroke:rgb(0%,0%,0%);stroke-opacity:1;stroke-miterlimit:10;" d="M 4.000005 6.999976 L 4.999995 6.999976 " transform="matrix(72.727273,0,0,-72.727273,72.727273,727.272727)"/>
<path style="fill:none;stroke-width:0.1;stroke-linecap:butt;stroke-linejoin:round;stroke:rgb(0%,0%,0%);stroke-opacity:1;stroke-miterlimit:10;" d="M 4.000005 6.999976 L 4.000005 8.00002 " transform="matrix(72.727273,0,0,-72.727273,72.727273,727.272727)"/>
<path style="fill:none;stroke-width:0.1;stroke-linecap:butt;stroke-linejoin:round;stroke:rgb(0%,0%,0%);stroke-opacity:1;stroke-miterlimit:10;" d="M 4.000005 8.00002 L 4.999995 8.00002 " transform="matrix(72.727273,0,0,-72.727273,72.727273,727.272727)"/>
<path style="fill:none;stroke-width:0.1;stroke-linecap:butt;stroke-linejoin:round;stroke:rgb(0%,0%,0%);stroke-opacity:1;stroke-miterlimit:10;" d="M 4.000005 8.00002 L 4.000005 9.00001 " transform="matrix(72.727273,0,0,-72.727273,72.727273,727.272727)"/>
<path style="fill:none;stroke-width:0.1;stroke-linecap:butt;stroke-linejoin:round;stroke:rgb(0%,0%,0%);stroke-opacity:1;stroke-miterlimit:10;" d="M 4.000005 9.00001 L 4.999995 9.00001 " transform="matrix(72.727273,0,0,-72.727273,72.727273,727.272727)"/>
<path style="fill:none;stroke-width:0.1;stroke-linecap:butt;stroke-linejoin:round;stroke:rgb(0%,0%,0%);stroke-opacity:1;stroke-miterlimit:10;" d="M 4.999995 -0.00000976562 L 5.999985 -0.00000976562 " transform="matrix(72.727273,0,0,-72.727273,72.727273,727.272727)"/>
<path style="fill:none;stroke-width:0.1;stroke-linecap:butt;stroke-linejoin:round;stroke:rgb(0%,0%,0%);stroke-opacity:1;stroke-miterlimit:10;" d="M 4.999995 -0.00000976562 L 4.999995 0.99998 " transform="matrix(72.727273,0,0,-72.727273,72.727273,727.272727)"/>
<path style="fill:none;stroke-width:0.1;stroke-linecap:butt;stroke-linejoin:round;stroke:rgb(0%,0%,0%);stroke-opacity:1;stroke-miterlimit:10;" d="M 4.999995 0.99998 L 5.999985 0.99998 " transform="matrix(72.727273,0,0,-72.727273,72.727273,727.272727)"/>
<path style="fill:none;stroke-width:0.1;stroke-linecap:butt;stroke-linejoin:round;stroke:rgb(0%,0%,0%);stroke-opacity:1;stroke-miterlimit:10;" d="M 4.999995 0.99998 L 4.999995 2.000024 " transform="matrix(72.727273,0,0,-72.727273,72.727273,727.272727)"/>
<path style="fill:none;stroke-width:0.1;stroke-linecap:butt;stroke-linejoin:round;stroke:rgb(0%,0%,0%);stroke-opacity:1;stroke-miterlimit:10;" d="M 4.999995 2.000024 L 5.999985 2.000024 " transform="matrix(72.727273,0,0,-72.727273,72.727273,727.272727)"/>
<path style="fill:none;stroke-width:0.1;stroke-linecap:butt;stroke-linejoin:round;stroke:rgb(0%,0%,0%);stroke-opacity:1;stroke-miterlimit:10;" d="M 4.999995 2.000024 L 4.999995 3.000015 " transform="matrix(72.727273,0,0,-72.727273,72.727273,727.272727)"/>
<path style="fill:none;stroke-width:0.1;stroke-linecap:butt;stroke-linejoin:round;stroke:rgb(0%,0%,0%);stroke-opacity:1;stroke-miterlimit:10;" d="M 4.999995 3.000015 L 5.999985 3.000015 " transform="matrix(72.727273,0,0,-72.727273,72.727273,727.272727)"/>
<path style="fill:none;stroke-width:0.1;stroke-linecap:butt;stroke-linejoin:round;stroke:rgb(0%,0%,0%);stroke-opacity:1;stroke-miterlimit:10;" d="M 4.999995 3.000015 L 4.999995 4.000005 " transform="matrix(72.727273,0,0,-72.727273,72.727273,727.272727)"/>
<path style="fill:none;stroke-width:0.1;stroke-linecap:butt;stroke-linejoin:round;stroke:rgb(0%,0%,0%);stroke-opacity:1;stroke-miterlimit:10;" d="M 4.999995 4.000005 L 5.999985 4.000005 " transform="matrix(72.727273,0,0,-72.727273,72.727273,727.272727)"/>
<path style="fill:none;stroke-width:0.1;stroke-linecap:butt;stroke-linejoin:round;stroke:rgb(0%,0%,0%);stroke-opacity:1;stroke-miterlimit:10;" d="M 4.999995 4.000005 L 4.999995 4.999995 " transform="matrix(72.727273,0,0,-72.727273,72.727273,727.272727)"/>
<path style="fill:none;stroke-width:0.1;stroke-linecap:butt;stroke-linejoin:round;stroke:rgb(0%,0%,0%);stroke-opacity:1;stroke-miterlimit:10;" d="M 4.999995 4.999995 L 5.999985 4.999995 " transform="matrix(72.727273,0,0,-72.727273,72.727273,727.272727)"/>
<path style="fill:none;stroke-width:0.1;stroke-linecap:butt;stroke-linejoin:round;stroke:rgb(0%,0%,0%);stroke-opacity:1;stroke-miterlimit:10;" d="M 4.999995 4.999995 L 4.999995 5.999985 " transform="matrix(72.727273,0,0,-72.727273,72.727273,727.272727)"/>
<path style="fill:none;stroke-width:0.1;stroke-linecap:butt;stroke-linejoin:round;stroke:rgb(0%,0%,0%);stroke-opacity:1;stroke-miterlimit:10;" d="M 4.999995 5.999985 L 5.999985 5.999985 " transform="matrix(72.727273,0,0,-72.727273,72.727273,727.272727)"/>
<path style="fill:none;stroke-width:0.1;stroke-linecap:butt;stroke-linejoin:round;stroke:rgb(0%,0%,0%);stroke-opacity:1;stroke-miterlimit:10;" d="M 4.999995 5.999985 L 4.999995 6.999976 " transform="matrix(72.727273,0,0,-72.727273,72.727273,727.272727)"/>
<path style="fill:none;stroke-width:0.1;stroke-linecap:butt;stroke-linejoin:round;stroke:rgb(0%,0%,0%);stroke-opacity:1;stroke-miterlimit:10;" d="M 4.999995 6.999976 L 5.999985 6.999976 " transform="matrix(72.727273,0,0,-72.727273,72.727273,727.272727)"/>
<path style="fill:none;stroke-width:0.1;stroke-linecap:butt;stroke-linejoin:round;stroke:rgb(0%,0%,0%);stroke-opacity:1;stroke-miterlimit:10;" d="M 4.999995 6.999976 L 4.999995 8.00002 " transform="matrix(72.727273,0,0,-72.727273,72.727273,727.272727)"/>
<path style="fill:none;stroke-width:0.1;stroke-linecap:butt;stroke-linejoin:round;stroke:rgb(0%,0%,0%);stroke-opacity:1;stroke-miterlimit:10;" d="M 4.999995 8.00002 L 5.999985 8.00002 " transform="matrix(72.727273,0,0,-72.727273,72.727273,727.272727)"/>
<path style="fill:none;stroke-width:0.1;stroke-linecap:butt;stroke-linejoin:round;stroke:rgb(0%,0%,0%);stroke-opacity:1;stroke-miterlimit:10;" d="M 4.999995 8.00002 L 4.999995 9.00001 " transform="matrix(72.727273,0,0,-72.727273,72.727273,727.272727)"/>
<path style="fill:none;stroke-width:0.1;stroke-linecap:butt;stroke-linejoin:round;stroke:rgb(0%,0%,0%);stroke-opacity:1;stroke-miterlimit:10;" d="M 4.999995 9.00001 L 5.999985 9.00001 " transform="matrix(72.727273,0,0,-72.727273,72.727273,727.272727)"/>
<path style="fill:none;stroke-width:0.1;stroke-linecap:butt;stroke-linejoin:round;stroke:rgb(0%,0%,0%);stroke-opacity:1;stroke-miterlimit:10;" d="M 5.999985 -0.00000976562 L 6.999976 -0.00000976562 " transform="matrix(72.727273,0,0,-72.727273,72.727273,727.272727)"/>
<path style="fill:none;stroke-width:0.1;stroke-linecap:butt;stroke-linejoin:round;stroke:rgb(0%,0%,0%);stroke-opacity:1;stroke-miterlimit:10;" d="M 5.999985 -0.00000976562 L 5.999985 0.99998 " transform="matrix(72.727273,0,0,-72.727273,72.727273,727.272727)"/>
<path style="fill:none;stroke-width:0.1;stroke-linecap:butt;stroke-linejoin:round;stroke:rgb(0%,0%,0%);stroke-opacity:1;stroke-miterlimit:10;" d="M 5.999985 0.99998 L 6.999976 0.99998 " transform="matrix(72.727273,0,0,-72.727273,72.727273,727.272727)"/>
<path style="fill:none;stroke-width:0.1;stroke-linecap:butt;stroke-linejoin:round;stroke:rgb(0%,0%,0%);stroke-opacity:1;stroke-miterlimit:10;" d="M 5.999985 0.99998 L 5.999985 2.000024 " transform="matrix(72.727273,0,0,-72.727273,72.727273,727.272727)"/>
<path style="fill:none;stroke-width:0.1;stroke-linecap:butt;stroke-linejoin:round;stroke:rgb(0%,0%,0%);stroke-opacity:1;stroke-miterlimit:10;" d="M 5.999985 2.000024 L 6.999976 2.000024 " transform="matrix(72.727273,0,0,-72.727273,72.727273,727.272727)"/>
<path style="fill:none;stroke-width:0.1;stroke-linecap:butt;stroke-linejoin:round;stroke:rgb(0%,0%,0%);stroke-opacity:1;stroke-miterlimit:10;" d="M 5.999985 2.000024 L 5.999985 3.000015 " transform="matrix(72.727273,0,0,-72.727273,72.727273,727.272727)"/>
<path style="fill:none;stroke-width:0.1;stroke-linecap:butt;stroke-linejoin:round;stroke:rgb(0%,0%,0%);stroke-opacity:1;stroke-miterlimit:10;" d="M 5.999985 3.000015 L 6.999976 3.000015 " transform="matrix(72.727273,0,0,-72.727273,72.727273,727.272727)"/>
<path style="fill:none;stroke-width:0.1;stroke-linecap:butt;stroke-linejoin:round;stroke:rgb(0%,0%,0%);stroke-opacity:1;stroke-miterlimit:10;" d="M 5.999985 3.000015 L 5.999985 4.000005 " transform="matrix(72.727273,0,0,-72.727273,72.727273,727.272727)"/>
<path style="fill:none;stroke-width:0.1;stroke-linecap:butt;stroke-linejoin:round;stroke:rgb(0%,0%,0%);stroke-opacity:1;stroke-miterlimit:10;" d="M 5.999985 4.000005 L 6.999976 4.000005 " transform="matrix(72.727273,0,0,-72.727273,72.727273,727.272727)"/>
<path style="fill:none;stroke-width:0.1;stroke-linecap:butt;stroke-linejoin:round;stroke:rgb(0%,0%,0%);stroke-opacity:1;stroke-miterlimit:10;" d="M 5.999985 4.000005 L 5.999985 4.999995 " transform="matrix(72.727273,0,0,-72.727273,72.727273,727.272727)"/>
<path style="fill:none;stroke-width:0.1;stroke-linecap:butt;stroke-linejoin:round;stroke:rgb(0%,0%,0%);stroke-opacity:1;stroke-miterlimit:10;" d="M 5.999985 4.999995 L 6.999976 4.999995 " transform="matrix(72.727273,0,0,-72.727273,72.727273,727.272727)"/>
<path style="fill:none;stroke-width:0.1;stroke-linecap:butt;stroke-linejoin:round;stroke:rgb(0%,0%,0%);stroke-opacity:1;stroke-miterlimit:10;" d="M 5.999985 4.999995 L 5.999985 5.999985 " transform="matrix(72.727273,0,0,-72.727273,72.727273,727.272727)"/>
<path style="fill:none;stroke-width:0.1;stroke-linecap:butt;stroke-linejoin:round;stroke:rgb(0%,0%,0%);stroke-opacity:1;stroke-miterlimit:10;" d="M 5.999985 5.999985 L 6.999976 5.999985 " transform="matrix(72.727273,0,0,-72.727273,72.727273,727.272727)"/>
<path style="fill:none;stroke-width:0.1;stroke-linecap:butt;stroke-linejoin:round;stroke:rgb(0%,0%,0%);stroke-opacity:1;stroke-miterlimit:10;" d="M 5.999985 5.999985 L 5.999985 6.999976 " transform="matrix(72.727273,0,0,-72.727273,72.727273,727.272727)"/>
<path style="fill:none;stroke-width:0.1;stroke-linecap:butt;stroke-linejoin:round;stroke:rgb(0%,0%,0%);stroke-opacity:1;stroke-miterlimit:10;" d="M 5.999985 6.999976 L 6.999976 6.999976 " transform="matrix(72.727273,0,0,-72.727273,72.727273,727.272727)"/>
<path style="fill:none;stroke-width:0.1;stroke-linecap:butt;stroke-linejoin:round;stroke:rgb(0%,0%,0%);stroke-opacity:1;stroke-miterlimit:10;" d="M 5.999985 6.999976 L 5.999985 8.00002 " transform="matrix(72.727273,0,0,-72.727273,72.727273,727.272727)"/>
<path style="fill:none;stroke-width:0.1;stroke-linecap:butt;stroke-linejoin:round;stroke:rgb(0%,0%,0%);stroke-opacity:1;stroke-miterlimit:10;" d="M 5.999985 8.00002 L 6.999976 8.00002 " transform="matrix(72.727273,0,0,-72.727273,72.727273,727.272727)"/>
<path style="fill:none;stroke-width:0.1;stroke-linecap:butt;stroke-linejoin:round;stroke:rgb(0%,0%,0%);stroke-opacity:1;stroke-miterlimit:10;" d="M 5.999985 8.00002 L 5.999985 9.00001 " transform="matrix(72.727273,0,0,-72.727273,72.727273,727.272727)"/>
<path style="fill:none;stroke-width:0.1;stroke-linecap:butt;stroke-linejoin:round;stroke:rgb(0%,0%,0%);stroke-opacity:1;stroke-miterlimit:10;" d="M 5.999985 9.00001 L 6.999976 9.00001 " transform="matrix(72.727273,0,0,-72.727273,72.727273,727.272727)"/>
<path style="fill:none;stroke-width:0.1;stroke-linecap:butt;stroke-linejoin:round;stroke:rgb(0%,0%,0%);stroke-opacity:1;stroke-miterlimit:10;" d="M 6.999976 -0.00000976562 L 8.00002 -0.00000976562 " transform="matrix(72.727273,0,0,-72.727273,72.727273,727.272727)"/>
<path style="fill:none;stroke-width:0.1;stroke-linecap:butt;stroke-linejoin:round;stroke:rgb(0%,0%,0%);stroke-opacity:1;stroke-miterlimit:10;" d="M 6.999976 -0.00000976562 L 6.999976 0.99998 " transform="matrix(72.727273,0,0,-72.727273,72.727273,727.272727)"/>
<path style="fill:none;stroke-width:0.1;stroke-linecap:butt;stroke-linejoin:round;stroke:rgb(0%,0%,0%);stroke-opacity:1;stroke-miterlimit:10;" d="M 6.999976 0.99998 L 8.00002 0.99998 " transform="matrix(72.727273,0,0,-72.727273,72.727273,727.272727)"/>
<path style="fill:none;stroke-width:0.1;stroke-linecap:butt;stroke-linejoin:round;stroke:rgb(0%,0%,0%);stroke-opacity:1;stroke-miterlimit:10;" d="M 6.999976 0.99998 L 6.999976 2.000024 " transform="matrix(72.727273,0,0,-72.727273,72.727273,727.272727)"/>
<path style="fill:none;stroke-width:0.1;stroke-linecap:butt;stroke-linejoin:round;stroke:rgb(0%,0%,0%);stroke-opacity:1;stroke-miterlimit:10;" d="M 6.999976 2.000024 L 8.00002 2.000024 " transform="matrix(72.727273,0,0,-72.727273,72.727273,727.272727)"/>
<path style="fill:none;stroke-width:0.1;stroke-linecap:butt;stroke-linejoin:round;stroke:rgb(0%,0%,0%);stroke-opacity:1;stroke-miterlimit:10;" d="M 6.999976 2.000024 L 6.999976 3.000015 " transform="matrix(72.727273,0,0,-72.727273,72.727273,727.272727)"/>
<path style="fill:none;stroke-width:0.1;stroke-linecap:butt;stroke-linejoin:round;stroke:rgb(0%,0%,0%);stroke-opacity:1;stroke-miterlimit:10;" d="M 6.999976 3.000015 L 8.00002 3.000015 " transform="matrix(72.727273,0,0,-72.727273,72.727273,727.272727)"/>
<path style="fill:none;stroke-width:0.1;stroke-linecap:butt;stroke-linejoin:round;stroke:rgb(0%,0%,0%);stroke-opacity:1;stroke-miterlimit:10;" d="M 6.999976 3.000015 L 6.999976 4.000005 " transform="matrix(72.727273,0,0,-72.727273,72.727273,727.272727)"/>
<path style="fill:none;stroke-width:0.1;stroke-linecap:butt;stroke-linejoin:round;stroke:rgb(0%,0%,0%);stroke-opacity:1;stroke-miterlimit:10;" d="M 6.999976 4.000005 L 8.00002 4.000005 " transform="matrix(72.727273,0,0,-72.727273,72.727273,727.272727)"/>
<path style="fill:none;stroke-width:0.1;stroke-linecap:butt;stroke-linejoin:round;stroke:rgb(0%,0%,0%);stroke-opacity:1;stroke-miterlimit:10;" d="M 6.999976 4.000005 L 6.999976 4.999995 " transform="matrix(72.727273,0,0,-72.727273,72.727273,727.272727)"/>
<path style="fill:none;stroke-width:0.1;stroke-linecap:butt;stroke-linejoin:round;stroke:rgb(0%,0%,0%);stroke-opacity:1;stroke-miterlimit:10;" d="M 6.999976 4.999995 L 8.00002 4.999995 " transform="matrix(72.727273,0,0,-72.727273,72.727273,727.272727)"/>
<path style="fill:none;stroke-width:0.1;stroke-linecap:butt;stroke-linejoin:round;stroke:rgb(0%,0%,0%);stroke-opacity:1;stroke-miterlimit:10;" d="M 6.999976 4.999995 L 6.999976 5.999985 " transform="matrix(72.727273,0,0,-72.727273,72.727273,727.272727)"/>
<path style="fill:none;stroke-width:0.1;stroke-linecap:butt;stroke-linejoin:round;stroke:rgb(0%,0%,0%);stroke-opacity:1;stroke-miterlimit:10;" d="M 6.999976 5.999985 L 8.00002 5.999985 " transform="matrix(72.727273,0,0,-72.727273,72.727273,727.272727)"/>
<path style="fill:none;stroke-width:0.1;stroke-linecap:butt;stroke-linejoin:round;stroke:rgb(0%,0%,0%);stroke-opacity:1;stroke-miterlimit:10;" d="M 6.999976 5.999985 L 6.999976 6.999976 " transform="matrix(72.727273,0,0,-72.727273,72.727273,727.272727)"/>
<path style="fill:none;stroke-width:0.1;stroke-linecap:butt;stroke-linejoin:round;stroke:rgb(0%,0%,0%);stroke-opacity:1;stroke-miterlimit:10;" d="M 6.999976 6.999976 L 8.00002 6.999976 " transform="matrix(72.727273,0,0,-72.727273,72.727273,727.272727)"/>
<path style="fill:none;stroke-width:0.1;stroke-linecap:butt;stroke-linejoin:round;stroke:rgb(0%,0%,0%);stroke-opacity:1;stroke-miterlimit:10;" d="M 6.999976 6.999976 L 6.999976 8.00002 " transform="matrix(72.727273,0,0,-72.727273,72.727273,727.272727)"/>
<path style="fill:none;stroke-width:0.1;stroke-linecap:butt;stroke-linejoin:round;stroke:rgb(0%,0%,0%);stroke-opacity:1;stroke-miterlimit:10;" d="M 6.999976 8.00002 L 8.00002 8.00002 " transform="matrix(72.727273,0,0,-72.727273,72.727273,727.272727)"/>
<path style="fill:none;stroke-width:0.1;stroke-linecap:butt;stroke-linejoin:round;stroke:rgb(0%,0%,0%);stroke-opacity:1;stroke-miterlimit:10;" d="M 6.999976 8.00002 L 6.999976 9.00001 " transform="matrix(72.727273,0,0,-72.727273,72.727273,727.272727)"/>
<path style="fill:none;stroke-width:0.1;stroke-linecap:butt;stroke-linejoin:round;stroke:rgb(0%,0%,0%);stroke-opacity:1;stroke-miterlimit:10;" d="M 6.999976 9.00001 L 8.00002 9.00001 " transform="matrix(72.727273,0,0,-72.727273,72.727273,727.272727)"/>
<path style="fill:none;stroke-width:0.1;stroke-linecap:butt;stroke-linejoin:round;stroke:rgb(0%,0%,0%);stroke-opacity:1;stroke-miterlimit:10;" d="M 8.00002 -0.00000976562 L 9.00001 -0.00000976562 " transform="matrix(72.727273,0,0,-72.727273,72.727273,727.272727)"/>
<path style="fill:none;stroke-width:0.1;stroke-linecap:butt;stroke-linejoin:round;stroke:rgb(0%,0%,0%);stroke-opacity:1;stroke-miterlimit:10;" d="M 8.00002 -0.00000976562 L 8.00002 0.99998 " transform="matrix(72.727273,0,0,-72.727273,72.727273,727.272727)"/>
<path style="fill:none;stroke-width:0.1;stroke-linecap:butt;stroke-linejoin:round;stroke:rgb(0%,0%,0%);stroke-opacity:1;stroke-miterlimit:10;" d="M 8.00002 0.99998 L 9.00001 0.99998 " transform="matrix(72.727273,0,0,-72.727273,72.727273,727.272727)"/>
<path style="fill:none;stroke-width:0.1;stroke-linecap:butt;stroke-linejoin:round;stroke:rgb(0%,0%,0%);stroke-opacity:1;stroke-miterlimit:10;" d="M 8.00002 0.99998 L 8.00002 2.000024 " transform="matrix(72.727273,0,0,-72.727273,72.727273,727.272727)"/>
<path style="fill:none;stroke-width:0.1;stroke-linecap:butt;stroke-linejoin:round;stroke:rgb(0%,0%,0%);stroke-opacity:1;stroke-miterlimit:10;" d="M 8.00002 2.000024 L 9.00001 2.000024 " transform="matrix(72.727273,0,0,-72.727273,72.727273,727.272727)"/>
<path style="fill:none;stroke-width:0.1;stroke-linecap:butt;stroke-linejoin:round;stroke:rgb(0%,0%,0%);stroke-opacity:1;stroke-miterlimit:10;" d="M 8.00002 2.000024 L 8.00002 3.000015 " transform="matrix(72.727273,0,0,-72.727273,72.727273,727.272727)"/>
<path style="fill:none;stroke-width:0.1;stroke-linecap:butt;stroke-linejoin:round;stroke:rgb(0%,0%,0%);stroke-opacity:1;stroke-miterlimit:10;" d="M 8.00002 3.000015 L 9.00001 3.000015 " transform="matrix(72.727273,0,0,-72.727273,72.727273,727.272727)"/>
<path style="fill:none;stroke-width:0.1;stroke-linecap:butt;stroke-linejoin:round;stroke:rgb(0%,0%,0%);stroke-opacity:1;stroke-miterlimit:10;" d="M 8.00002 3.000015 L 8.00002 4.000005 " transform="matrix(72.727273,0,0,-72.727273,72.727273,727.272727)"/>
<path style="fill:none;stroke-width:0.1;stroke-linecap:butt;stroke-linejoin:round;stroke:rgb(0%,0%,0%);stroke-opacity:1;stroke-miterlimit:10;" d="M 8.00002 4.000005 L 9.00001 4.000005 " transform="matrix(72.727273,0,0,-72.727273,72.727273,727.272727)"/>
<path style="fill:none;stroke-width:0.1;stroke-linecap:butt;stroke-linejoin:round;stroke:rgb(0%,0%,0%);stroke-opacity:1;stroke-miterlimit:10;" d="M 8.00002 4.000005 L 8.00002 4.999995 " transform="matrix(72.727273,0,0,-72.727273,72.727273,727.272727)"/>
<path style="fill:none;stroke-width:0.1;stroke-linecap:butt;stroke-linejoin:round;stroke:rgb(0%,0%,0%);stroke-opacity:1;stroke-miterlimit:10;" d="M 8.00002 4.999995 L 9.00001 4.999995 " transform="matrix(72.727273,0,0,-72.727273,72.727273,727.272727)"/>
<path style="fill:none;stroke-width:0.1;stroke-linecap:butt;stroke-linejoin:round;stroke:rgb(0%,0%,0%);stroke-opacity:1;stroke-miterlimit:10;" d="M 8.00002 4.999995 L 8.00002 5.999985 " transform="matrix(72.727273,0,0,-72.727273,72.727273,727.272727)"/>
<path style="fill:none;stroke-width:0.1;stroke-linecap:butt;stroke-linejoin:round;stroke:rgb(0%,0%,0%);stroke-opacity:1;stroke-miterlimit:10;" d="M 8.00002 5.999985 L 9.00001 5.999985 " transform="matrix(72.727273,0,0,-72.727273,72.727273,727.272727)"/>
<path style="fill:none;stroke-width:0.1;stroke-linecap:butt;stroke-linejoin:round;stroke:rgb(0%,0%,0%);stroke-opacity:1;stroke-miterlimit:10;" d="M 8.00002 5.999985 L 8.00002 6.999976 " transform="matrix(72.727273,0,0,-72.727273,72.727273,727.272727)"/>
<path style="fill:none;stroke-width:0.1;stroke-linecap:butt;stroke-linejoin:round;stroke:rgb(0%,0%,0%);stroke-opacity:1;stroke-miterlimit:10;" d="M 8.00002 6.999976 L 9.00001 6.999976 " transform="matrix(72.727273,0,0,-72.727273,72.727273,727.272727)"/>
<path style="fill:none;stroke-width:0.1;stroke-linecap:butt;stroke-linejoin:round;stroke:rgb(0%,0%,0%);stroke-opacity:1;stroke-miterlimit:10;" d="M 8.00002 6.999976 L 8.00002 8.00002 " transform="matrix(72.727273,0,0,-72.727273,72.727273,727.272727)"/>
<path style="fill:none;stroke-width:0.1;stroke-linecap:butt;stroke-linejoin:round;stroke:rgb(0%,0%,0%);stroke-opacity:1;stroke-miterlimit:10;" d="M 8.00002 8.00002 L 9.00001 8.00002 " transform="matrix(72.727273,0,0,-72.727273,72.727273,727.272727)"/>
<path style="fill:none;stroke-width:0.1;stroke-linecap:butt;stroke-linejoin:round;stroke:rgb(0%,0%,0%);stroke-opacity:1;stroke-miterlimit:10;" d="M 8.00002 8.00002 L 8.00002 9.00001 " transform="matrix(72.727273,0,0,-72.727273,72.727273,727.272727)"/>
<path style="fill:none;stroke-width:0.1;stroke-linecap:butt;stroke-linejoin:round;stroke:rgb(0%,0%,0%);stroke-opacity:1;stroke-miterlimit:10;" d="M 8.00002 9.00001 L 9.00001 9.00001 " transform="matrix(72.727273,0,0,-72.727273,72.727273,727.272727)"/>
<path style="fill:none;stroke-width:0.1;stroke-linecap:butt;stroke-linejoin:round;stroke:rgb(0%,0%,0%);stroke-opacity:1;stroke-miterlimit:10;" d="M 9.00001 -0.00000976562 L 9.00001 0.99998 " transform="matrix(72.727273,0,0,-72.727273,72.727273,727.272727)"/>
<path style="fill:none;stroke-width:0.1;stroke-linecap:butt;stroke-linejoin:round;stroke:rgb(0%,0%,0%);stroke-opacity:1;stroke-miterlimit:10;" d="M 9.00001 0.99998 L 9.00001 2.000024 " transform="matrix(72.727273,0,0,-72.727273,72.727273,727.272727)"/>
<path style="fill:none;stroke-width:0.1;stroke-linecap:butt;stroke-linejoin:round;stroke:rgb(0%,0%,0%);stroke-opacity:1;stroke-miterlimit:10;" d="M 9.00001 2.000024 L 9.00001 3.000015 " transform="matrix(72.727273,0,0,-72.727273,72.727273,727.272727)"/>
<path style="fill:none;stroke-width:0.1;stroke-linecap:butt;stroke-linejoin:round;stroke:rgb(0%,0%,0%);stroke-opacity:1;stroke-miterlimit:10;" d="M 9.00001 3.000015 L 9.00001 4.000005 " transform="matrix(72.727273,0,0,-72.727273,72.727273,727.272727)"/>
<path style="fill:none;stroke-width:0.1;stroke-linecap:butt;stroke-linejoin:round;stroke:rgb(0%,0%,0%);stroke-opacity:1;stroke-miterlimit:10;" d="M 9.00001 4.000005 L 9.00001 4.999995 " transform="matrix(72.727273,0,0,-72.727273,72.727273,727.272727)"/>
<path style="fill:none;stroke-width:0.1;stroke-linecap:butt;stroke-linejoin:round;stroke:rgb(0%,0%,0%);stroke-opacity:1;stroke-miterlimit:10;" d="M 9.00001 4.999995 L 9.00001 5.999985 " transform="matrix(72.727273,0,0,-72.727273,72.727273,727.272727)"/>
<path style="fill:none;stroke-width:0.1;stroke-linecap:butt;stroke-linejoin:round;stroke:rgb(0%,0%,0%);stroke-opacity:1;stroke-miterlimit:10;" d="M 9.00001 5.999985 L 9.00001 6.999976 " transform="matrix(72.727273,0,0,-72.727273,72.727273,727.272727)"/>
<path style="fill:none;stroke-width:0.1;stroke-linecap:butt;stroke-linejoin:round;stroke:rgb(0%,0%,0%);stroke-opacity:1;stroke-miterlimit:10;" d="M 9.00001 6.999976 L 9.00001 8.00002 " transform="matrix(72.727273,0,0,-72.727273,72.727273,727.272727)"/>
<path style="fill:none;stroke-width:0.1;stroke-linecap:butt;stroke-linejoin:round;stroke:rgb(0%,0%,0%);stroke-opacity:1;stroke-miterlimit:10;" d="M 9.00001 8.00002 L 9.00001 9.00001 " transform="matrix(72.727273,0,0,-72.727273,72.727273,727.272727)"/>
<path style=" stroke:none;fill-rule:nonzero;fill:rgb(100%,0%,0%);fill-opacity:1;" d="M 80 727.273438 C 80 723.257812 76.742188 720 72.726562 720 C 68.710938 720 65.453125 723.257812 65.453125 727.273438 C 65.453125 731.289062 68.710938 734.546875 72.726562 734.546875 C 76.742188 734.546875 80 731.289062 80 727.273438 "/>
<path style=" stroke:none;fill-rule:nonzero;fill:rgb(100%,0%,0%);fill-opacity:1;" d="M 80 654.546875 C 80 650.527344 76.742188 647.273438 72.726562 647.273438 C 68.710938 647.273438 65.453125 650.527344 65.453125 654.546875 C 65.453125 658.5625 68.710938 661.816406 72.726562 661.816406 C 76.742188 661.816406 80 658.5625 80 654.546875 "/>
<path style=" stroke:none;fill-rule:nonzero;fill:rgb(100%,0%,0%);fill-opacity:1;" d="M 80 581.816406 C 80 577.800781 76.742188 574.546875 72.726562 574.546875 C 68.710938 574.546875 65.453125 577.800781 65.453125 581.816406 C 65.453125 585.835938 68.710938 589.089844 72.726562 589.089844 C 76.742188 589.089844 80 585.835938 80 581.816406 "/>
<path style=" stroke:none;fill-rule:nonzero;fill:rgb(100%,0%,0%);fill-opacity:1;" d="M 80 509.089844 C 80 505.074219 76.742188 501.816406 72.726562 501.816406 C 68.710938 501.816406 65.453125 505.074219 65.453125 509.089844 C 65.453125 513.109375 68.710938 516.363281 72.726562 516.363281 C 76.742188 516.363281 80 513.109375 80 509.089844 "/>
<path style=" stroke:none;fill-rule:nonzero;fill:rgb(100%,0%,0%);fill-opacity:1;" d="M 80 436.363281 C 80 432.347656 76.742188 429.089844 72.726562 429.089844 C 68.710938 429.089844 65.453125 432.347656 65.453125 436.363281 C 65.453125 440.378906 68.710938 443.636719 72.726562 443.636719 C 76.742188 443.636719 80 440.378906 80 436.363281 "/>
<path style=" stroke:none;fill-rule:nonzero;fill:rgb(100%,0%,0%);fill-opacity:1;" d="M 80 363.636719 C 80 359.621094 76.742188 356.363281 72.726562 356.363281 C 68.710938 356.363281 65.453125 359.621094 65.453125 363.636719 C 65.453125 367.652344 68.710938 370.910156 72.726562 370.910156 C 76.742188 370.910156 80 367.652344 80 363.636719 "/>
<path style=" stroke:none;fill-rule:nonzero;fill:rgb(100%,0%,0%);fill-opacity:1;" d="M 80 290.910156 C 80 286.890625 76.742188 283.636719 72.726562 283.636719 C 68.710938 283.636719 65.453125 286.890625 65.453125 290.910156 C 65.453125 294.925781 68.710938 298.183594 72.726562 298.183594 C 76.742188 298.183594 80 294.925781 80 290.910156 "/>
<path style=" stroke:none;fill-rule:nonzero;fill:rgb(100%,0%,0%);fill-opacity:1;" d="M 80 218.183594 C 80 214.164062 76.742188 210.910156 72.726562 210.910156 C 68.710938 210.910156 65.453125 214.164062 65.453125 218.183594 C 65.453125 222.199219 68.710938 225.453125 72.726562 225.453125 C 76.742188 225.453125 80 222.199219 80 218.183594 "/>
<path style=" stroke:none;fill-rule:nonzero;fill:rgb(100%,0%,0%);fill-opacity:1;" d="M 80 145.453125 C 80 141.4375 76.742188 138.183594 72.726562 138.183594 C 68.710938 138.183594 65.453125 141.4375 65.453125 145.453125 C 65.453125 149.472656 68.710938 152.726562 72.726562 152.726562 C 76.742188 152.726562 80 149.472656 80 145.453125 "/>
<path style=" stroke:none;fill-rule:nonzero;fill:rgb(100%,0%,0%);fill-opacity:1;" d="M 80 72.726562 C 80 68.710938 76.742188 65.453125 72.726562 65.453125 C 68.710938 65.453125 65.453125 68.710938 65.453125 72.726562 C 65.453125 76.742188 68.710938 80 72.726562 80 C 76.742188 80 80 76.742188 80 72.726562 "/>
<path style=" stroke:none;fill-rule:nonzero;fill:rgb(100%,0%,0%);fill-opacity:1;" d="M 152.726562 727.273438 C 152.726562 723.257812 149.472656 720 145.453125 720 C 141.4375 720 138.183594 723.257812 138.183594 727.273438 C 138.183594 731.289062 141.4375 734.546875 145.453125 734.546875 C 149.472656 734.546875 152.726562 731.289062 152.726562 727.273438 "/>
<path style=" stroke:none;fill-rule:nonzero;fill:rgb(100%,0%,0%);fill-opacity:1;" d="M 152.726562 654.546875 C 152.726562 650.527344 149.472656 647.273438 145.453125 647.273438 C 141.4375 647.273438 138.183594 650.527344 138.183594 654.546875 C 138.183594 658.5625 141.4375 661.816406 145.453125 661.816406 C 149.472656 661.816406 152.726562 658.5625 152.726562 654.546875 "/>
<path style=" stroke:none;fill-rule:nonzero;fill:rgb(100%,0%,0%);fill-opacity:1;" d="M 152.726562 581.816406 C 152.726562 577.800781 149.472656 574.546875 145.453125 574.546875 C 141.4375 574.546875 138.183594 577.800781 138.183594 581.816406 C 138.183594 585.835938 141.4375 589.089844 145.453125 589.089844 C 149.472656 589.089844 152.726562 585.835938 152.726562 581.816406 "/>
<path style=" stroke:none;fill-rule:nonzero;fill:rgb(100%,0%,0%);fill-opacity:1;" d="M 152.726562 509.089844 C 152.726562 505.074219 149.472656 501.816406 145.453125 501.816406 C 141.4375 501.816406 138.183594 505.074219 138.183594 509.089844 C 138.183594 513.109375 141.4375 516.363281 145.453125 516.363281 C 149.472656 516.363281 152.726562 513.109375 152.726562 509.089844 "/>
<path style=" stroke:none;fill-rule:nonzero;fill:rgb(100%,0%,0%);fill-opacity:1;" d="M 152.726562 436.363281 C 152.726562 432.347656 149.472656 429.089844 145.453125 429.089844 C 141.4375 429.089844 138.183594 432.347656 138.183594 436.363281 C 138.183594 440.378906 141.4375 443.636719 145.453125 443.636719 C 149.472656 443.636719 152.726562 440.378906 152.726562 436.363281 "/>
<path style=" stroke:none;fill-rule:nonzero;fill:rgb(100%,0%,0%);fill-opacity:1;" d="M 152.726562 363.636719 C 152.726562 359.621094 149.472656 356.363281 145.453125 356.363281 C 141.4375 356.363281 138.183594 359.621094 138.183594 363.636719 C 138.183594 367.652344 141.4375 370.910156 145.453125 370.910156 C 149.472656 370.910156 152.726562 367.652344 152.726562 363.636719 "/>
<path style=" stroke:none;fill-rule:nonzero;fill:rgb(100%,0%,0%);fill-opacity:1;" d="M 152.726562 290.910156 C 152.726562 286.890625 149.472656 283.636719 145.453125 283.636719 C 141.4375 283.636719 138.183594 286.890625 138.183594 290.910156 C 138.183594 294.925781 141.4375 298.183594 145.453125 298.183594 C 149.472656 298.183594 152.726562 294.925781 152.726562 290.910156 "/>
<path style=" stroke:none;fill-rule:nonzero;fill:rgb(100%,0%,0%);fill-opacity:1;" d="M 152.726562 218.183594 C 152.726562 214.164062 149.472656 210.910156 145.453125 210.910156 C 141.4375 210.910156 138.183594 214.164062 138.183594 218.183594 C 138.183594 222.199219 141.4375 225.453125 145.453125 225.453125 C 149.472656 225.453125 152.726562 222.199219 152.726562 218.183594 "/>
<path style=" stroke:none;fill-rule:nonzero;fill:rgb(100%,0%,0%);fill-opacity:1;" d="M 152.726562 145.453125 C 152.726562 141.4375 149.472656 138.183594 145.453125 138.183594 C 141.4375 138.183594 138.183594 141.4375 138.183594 145.453125 C 138.183594 149.472656 141.4375 152.726562 145.453125 152.726562 C 149.472656 152.726562 152.726562 149.472656 152.726562 145.453125 "/>
<path style=" stroke:none;fill-rule:nonzero;fill:rgb(100%,0%,0%);fill-opacity:1;" d="M 152.726562 72.726562 C 152.726562 68.710938 149.472656 65.453125 145.453125 65.453125 C 141.4375 65.453125 138.183594 68.710938 138.183594 72.726562 C 138.183594 76.742188 141.4375 80 145.453125 80 C 149.472656 80 152.726562 76.742188 152.726562 72.726562 "/>
<path style=" stroke:none;fill-rule:nonzero;fill:rgb(100%,0%,0%);fill-opacity:1;" d="M 225.453125 727.273438 C 225.453125 723.257812 222.199219 720 218.183594 720 C 214.164062 720 210.910156 723.257812 210.910156 727.273438 C 210.910156 731.289062 214.164062 734.546875 218.183594 734.546875 C 222.199219 734.546875 225.453125 731.289062 225.453125 727.273438 "/>
<path style=" stroke:none;fill-rule:nonzero;fill:rgb(100%,0%,0%);fill-opacity:1;" d="M 225.453125 654.546875 C 225.453125 650.527344 222.199219 647.273438 218.183594 647.273438 C 214.164062 647.273438 210.910156 650.527344 210.910156 654.546875 C 210.910156 658.5625 214.164062 661.816406 218.183594 661.816406 C 222.199219 661.816406 225.453125 658.5625 225.453125 654.546875 "/>
<path style=" stroke:none;fill-rule:nonzero;fill:rgb(100%,0%,0%);fill-opacity:1;" d="M 225.453125 581.816406 C 225.453125 577.800781 222.199219 574.546875 218.183594 574.546875 C 214.164062 574.546875 210.910156 577.800781 210.910156 581.816406 C 210.910156 585.835938 214.164062 589.089844 218.183594 589.089844 C 222.199219 589.089844 225.453125 585.835938 225.453125 581.816406 "/>
<path style=" stroke:none;fill-rule:nonzero;fill:rgb(100%,0%,0%);fill-opacity:1;" d="M 225.453125 509.089844 C 225.453125 505.074219 222.199219 501.816406 218.183594 501.816406 C 214.164062 501.816406 210.910156 505.074219 210.910156 509.089844 C 210.910156 513.109375 214.164062 516.363281 218.183594 516.363281 C 222.199219 516.363281 225.453125 513.109375 225.453125 509.089844 "/>
<path style=" stroke:none;fill-rule:nonzero;fill:rgb(100%,0%,0%);fill-opacity:1;" d="M 225.453125 436.363281 C 225.453125 432.347656 222.199219 429.089844 218.183594 429.089844 C 214.164062 429.089844 210.910156 432.347656 210.910156 436.363281 C 210.910156 440.378906 214.164062 443.636719 218.183594 443.636719 C 222.199219 443.636719 225.453125 440.378906 225.453125 436.363281 "/>
<path style=" stroke:none;fill-rule:nonzero;fill:rgb(100%,0%,0%);fill-opacity:1;" d="M 225.453125 363.636719 C 225.453125 359.621094 222.199219 356.363281 218.183594 356.363281 C 214.164062 356.363281 210.910156 359.621094 210.910156 363.636719 C 210.910156 367.652344 214.164062 370.910156 218.183594 370.910156 C 222.199219 370.910156 225.453125 367.652344 225.453125 363.636719 "/>
<path style=" stroke:none;fill-rule:nonzero;fill:rgb(100%,0%,0%);fill-opacity:1;" d="M 225.453125 290.910156 C 225.453125 286.890625 222.199219 283.636719 218.183594 283.636719 C 214.164062 283.636719 210.910156 286.890625 210.910156 290.910156 C 210.910156 294.925781 214.164062 298.183594 218.183594 298.183594 C 222.199219 298.183594 225.453125 294.925781 225.453125 290.910156 "/>
<path style=" stroke:none;fill-rule:nonzero;fill:rgb(100%,0%,0%);fill-opacity:1;" d="M 225.453125 218.183594 C 225.453125 214.164062 222.199219 210.910156 218.183594 210.910156 C 214.164062 210.910156 210.910156 214.164062 210.910156 218.183594 C 210.910156 222.199219 214.164062 225.453125 218.183594 225.453125 C 222.199219 225.453125 225.453125 222.199219 225.453125 218.183594 "/>
<path style=" stroke:none;fill-rule:nonzero;fill:rgb(100%,0%,0%);fill-opacity:1;" d="M 225.453125 145.453125 C 225.453125 141.4375 222.199219 138.183594 218.183594 138.183594 C 214.164062 138.183594 210.910156 141.4375 210.910156 145.453125 C 210.910156 149.472656 214.164062 152.726562 218.183594 152.726562 C 222.199219 152.726562 225.453125 149.472656 225.453125 145.453125 "/>
<path style=" stroke:none;fill-rule:nonzero;fill:rgb(100%,0%,0%);fill-opacity:1;" d="M 225.453125 72.726562 C 225.453125 68.710938 222.199219 65.453125 218.183594 65.453125 C 214.164062 65.453125 210.910156 68.710938 210.910156 72.726562 C 210.910156 76.742188 214.164062 80 218.183594 80 C 222.199219 80 225.453125 76.742188 225.453125 72.726562 "/>
<path style=" stroke:none;fill-rule:nonzero;fill:rgb(100%,0%,0%);fill-opacity:1;" d="M 298.183594 727.273438 C 298.183594 723.257812 294.925781 720 290.910156 720 C 286.890625 720 283.636719 723.257812 283.636719 727.273438 C 283.636719 731.289062 286.890625 734.546875 290.910156 734.546875 C 294.925781 734.546875 298.183594 731.289062 298.183594 727.273438 "/>
<path style=" stroke:none;fill-rule:nonzero;fill:rgb(100%,0%,0%);fill-opacity:1;" d="M 298.183594 654.546875 C 298.183594 650.527344 294.925781 647.273438 290.910156 647.273438 C 286.890625 647.273438 283.636719 650.527344 283.636719 654.546875 C 283.636719 658.5625 286.890625 661.816406 290.910156 661.816406 C 294.925781 661.816406 298.183594 658.5625 298.183594 654.546875 "/>
<path style=" stroke:none;fill-rule:nonzero;fill:rgb(100%,0%,0%);fill-opacity:1;" d="M 298.183594 581.816406 C 298.183594 577.800781 294.925781 574.546875 290.910156 574.546875 C 286.890625 574.546875 283.636719 577.800781 283.636719 581.816406 C 283.636719 585.835938 286.890625 589.089844 290.910156 589.089844 C 294.925781 589.089844 298.183594 585.835938 298.183594 581.816406 "/>
<path style=" stroke:none;fill-rule:nonzero;fill:rgb(100%,0%,0%);fill-opacity:1;" d="M 298.183594 509.089844 C 298.183594 505.074219 294.925781 501.816406 290.910156 501.816406 C 286.890625 501.816406 283.636719 505.074219 283.636719 509.089844 C 283.636719 513.109375 286.890625 516.363281 290.910156 516.363281 C 294.925781 516.363281 298.183594 513.109375 298.183594 509.089844 "/>
<path style=" stroke:none;fill-rule:nonzero;fill:rgb(100%,0%,0%);fill-opacity:1;" d="M 298.183594 436.363281 C 298.183594 432.347656 294.925781 429.089844 290.910156 429.089844 C 286.890625 429.089844 283.636719 432.347656 283.636719 436.363281 C 283.636719 440.378906 286.890625 443.636719 290.910156 443.636719 C 294.925781 443.636719 298.183594 440.378906 298.183594 436.363281 "/>
<path style=" stroke:none;fill-rule:nonzero;fill:rgb(100%,0%,0%);fill-opacity:1;" d="M 298.183594 363.636719 C 298.183594 359.621094 294.925781 356.363281 290.910156 356.363281 C 286.890625 356.363281 283.636719 359.621094 283.636719 363.636719 C 283.636719 367.652344 286.890625 370.910156 290.910156 370.910156 C 294.925781 370.910156 298.183594 367.652344 298.183594 363.636719 "/>
<path style=" stroke:none;fill-rule:nonzero;fill:rgb(100%,0%,0%);fill-opacity:1;" d="M 298.183594 290.910156 C 298.183594 286.890625 294.925781 283.636719 290.910156 283.636719 C 286.890625 283.636719 283.636719 286.890625 283.636719 290.910156 C 283.636719 294.925781 286.890625 298.183594 290.910156 298.183594 C 294.925781 298.183594 298.183594 294.925781 298.183594 290.910156 "/>
<path style=" stroke:none;fill-rule:nonzero;fill:rgb(100%,0%,0%);fill-opacity:1;" d="M 298.183594 218.183594 C 298.183594 214.164062 294.925781 210.910156 290.910156 210.910156 C 286.890625 210.910156 283.636719 214.164062 283.636719 218.183594 C 283.636719 222.199219 286.890625 225.453125 290.910156 225.453125 C 294.925781 225.453125 298.183594 222.199219 298.183594 218.183594 "/>
<path style=" stroke:none;fill-rule:nonzero;fill:rgb(100%,0%,0%);fill-opacity:1;" d="M 298.183594 145.453125 C 298.183594 141.4375 294.925781 138.183594 290.910156 138.183594 C 286.890625 138.183594 283.636719 141.4375 283.636719 145.453125 C 283.636719 149.472656 286.890625 152.726562 290.910156 152.726562 C 294.925781 152.726562 298.183594 149.472656 298.183594 145.453125 "/>
<path style=" stroke:none;fill-rule:nonzero;fill:rgb(100%,0%,0%);fill-opacity:1;" d="M 298.183594 72.726562 C 298.183594 68.710938 294.925781 65.453125 290.910156 65.453125 C 286.890625 65.453125 283.636719 68.710938 283.636719 72.726562 C 283.636719 76.742188 286.890625 80 290.910156 80 C 294.925781 80 298.183594 76.742188 298.183594 72.726562 "/>
<path style=" stroke:none;fill-rule:nonzero;fill:rgb(100%,0%,0%);fill-opacity:1;" d="M 370.910156 727.273438 C 370.910156 723.257812 367.652344 720 363.636719 720 C 359.621094 720 356.363281 723.257812 356.363281 727.273438 C 356.363281 731.289062 359.621094 734.546875 363.636719 734.546875 C 367.652344 734.546875 370.910156 731.289062 370.910156 727.273438 "/>
<path style=" stroke:none;fill-rule:nonzero;fill:rgb(100%,0%,0%);fill-opacity:1;" d="M 370.910156 654.546875 C 370.910156 650.527344 367.652344 647.273438 363.636719 647.273438 C 359.621094 647.273438 356.363281 650.527344 356.363281 654.546875 C 356.363281 658.5625 359.621094 661.816406 363.636719 661.816406 C 367.652344 661.816406 370.910156 658.5625 370.910156 654.546875 "/>
<path style=" stroke:none;fill-rule:nonzero;fill:rgb(100%,0%,0%);fill-opacity:1;" d="M 370.910156 581.816406 C 370.910156 577.800781 367.652344 574.546875 363.636719 574.546875 C 359.621094 574.546875 356.363281 577.800781 356.363281 581.816406 C 356.363281 585.835938 359.621094 589.089844 363.636719 589.089844 C 367.652344 589.089844 370.910156 585.835938 370.910156 581.816406 "/>
<path style=" stroke:none;fill-rule:nonzero;fill:rgb(100%,0%,0%);fill-opacity:1;" d="M 370.910156 509.089844 C 370.910156 505.074219 367.652344 501.816406 363.636719 501.816406 C 359.621094 501.816406 356.363281 505.074219 356.363281 509.089844 C 356.363281 513.109375 359.621094 516.363281 363.636719 516.363281 C 367.652344 516.363281 370.910156 513.109375 370.910156 509.089844 "/>
<path style=" stroke:none;fill-rule:nonzero;fill:rgb(100%,0%,0%);fill-opacity:1;" d="M 370.910156 436.363281 C 370.910156 432.347656 367.652344 429.089844 363.636719 429.089844 C 359.621094 429.089844 356.363281 432.347656 356.363281 436.363281 C 356.363281 440.378906 359.621094 443.636719 363.636719 443.636719 C 367.652344 443.636719 370.910156 440.378906 370.910156 436.363281 "/>
<path style=" stroke:none;fill-rule:nonzero;fill:rgb(100%,0%,0%);fill-opacity:1;" d="M 370.910156 363.636719 C 370.910156 359.621094 367.652344 356.363281 363.636719 356.363281 C 359.621094 356.363281 356.363281 359.621094 356.363281 363.636719 C 356.363281 367.652344 359.621094 370.910156 363.636719 370.910156 C 367.652344 370.910156 370.910156 367.652344 370.910156 363.636719 "/>
<path style=" stroke:none;fill-rule:nonzero;fill:rgb(100%,0%,0%);fill-opacity:1;" d="M 370.910156 290.910156 C 370.910156 286.890625 367.652344 283.636719 363.636719 283.636719 C 359.621094 283.636719 356.363281 286.890625 356.363281 290.910156 C 356.363281 294.925781 359.621094 298.183594 363.636719 298.183594 C 367.652344 298.183594 370.910156 294.925781 370.910156 290.910156 "/>
<path style=" stroke:none;fill-rule:nonzero;fill:rgb(100%,0%,0%);fill-opacity:1;" d="M 370.910156 218.183594 C 370.910156 214.164062 367.652344 210.910156 363.636719 210.910156 C 359.621094 210.910156 356.363281 214.164062 356.363281 218.183594 C 356.363281 222.199219 359.621094 225.453125 363.636719 225.453125 C 367.652344 225.453125 370.910156 222.199219 370.910156 218.183594 "/>
<path style=" stroke:none;fill-rule:nonzero;fill:rgb(100%,0%,0%);fill-opacity:1;" d="M 370.910156 145.453125 C 370.910156 141.4375 367.652344 138.183594 363.636719 138.183594 C 359.621094 138.183594 356.363281 141.4375 356.363281 145.453125 C 356.363281 149.472656 359.621094 152.726562 363.636719 152.726562 C 367.652344 152.726562 370.910156 149.472656 370.910156 145.453125 "/>
<path style=" stroke:none;fill-rule:nonzero;fill:rgb(100%,0%,0%);fill-opacity:1;" d="M 370.910156 72.726562 C 370.910156 68.710938 367.652344 65.453125 363.636719 65.453125 C 359.621094 65.453125 356.363281 68.710938 356.363281 72.726562 C 356.363281 76.742188 359.621094 80 363.636719 80 C 367.652344 80 370.910156 76.742188 370.910156 72.726562 "/>
<path style=" stroke:none;fill-rule:nonzero;fill:rgb(100%,0%,0%);fill-opacity:1;" d="M 443.636719 727.273438 C 443.636719 723.257812 440.378906 720 436.363281 720 C 432.347656 720 429.089844 723.257812 429.089844 727.273438 C 429.089844 731.289062 432.347656 734.546875 436.363281 734.546875 C 440.378906 734.546875 443.636719 731.289062 443.636719 727.273438 "/>
<path style=" stroke:none;fill-rule:nonzero;fill:rgb(100%,0%,0%);fill-opacity:1;" d="M 443.636719 654.546875 C 443.636719 650.527344 440.378906 647.273438 436.363281 647.273438 C 432.347656 647.273438 429.089844 650.527344 429.089844 654.546875 C 429.089844 658.5625 432.347656 661.816406 436.363281 661.816406 C 440.378906 661.816406 443.636719 658.5625 443.636719 654.546875 "/>
<path style=" stroke:none;fill-rule:nonzero;fill:rgb(100%,0%,0%);fill-opacity:1;" d="M 443.636719 581.816406 C 443.636719 577.800781 440.378906 574.546875 436.363281 574.546875 C 432.347656 574.546875 429.089844 577.800781 429.089844 581.816406 C 429.089844 585.835938 432.347656 589.089844 436.363281 589.089844 C 440.378906 589.089844 443.636719 585.835938 443.636719 581.816406 "/>
<path style=" stroke:none;fill-rule:nonzero;fill:rgb(100%,0%,0%);fill-opacity:1;" d="M 443.636719 509.089844 C 443.636719 505.074219 440.378906 501.816406 436.363281 501.816406 C 432.347656 501.816406 429.089844 505.074219 429.089844 509.089844 C 429.089844 513.109375 432.347656 516.363281 436.363281 516.363281 C 440.378906 516.363281 443.636719 513.109375 443.636719 509.089844 "/>
<path style=" stroke:none;fill-rule:nonzero;fill:rgb(100%,0%,0%);fill-opacity:1;" d="M 443.636719 436.363281 C 443.636719 432.347656 440.378906 429.089844 436.363281 429.089844 C 432.347656 429.089844 429.089844 432.347656 429.089844 436.363281 C 429.089844 440.378906 432.347656 443.636719 436.363281 443.636719 C 440.378906 443.636719 443.636719 440.378906 443.636719 436.363281 "/>
<path style=" stroke:none;fill-rule:nonzero;fill:rgb(100%,0%,0%);fill-opacity:1;" d="M 443.636719 363.636719 C 443.636719 359.621094 440.378906 356.363281 436.363281 356.363281 C 432.347656 356.363281 429.089844 359.621094 429.089844 363.636719 C 429.089844 367.652344 432.347656 370.910156 436.363281 370.910156 C 440.378906 370.910156 443.636719 367.652344 443.636719 363.636719 "/>
<path style=" stroke:none;fill-rule:nonzero;fill:rgb(100%,0%,0%);fill-opacity:1;" d="M 443.636719 290.910156 C 443.636719 286.890625 440.378906 283.636719 436.363281 283.636719 C 432.347656 283.636719 429.089844 286.890625 429.089844 290.910156 C 429.089844 294.925781 432.347656 298.183594 436.363281 298.183594 C 440.378906 298.183594 443.636719 294.925781 443.636719 290.910156 "/>
<path style=" stroke:none;fill-rule:nonzero;fill:rgb(100%,0%,0%);fill-opacity:1;" d="M 443.636719 218.183594 C 443.636719 214.164062 440.378906 210.910156 436.363281 210.910156 C 432.347656 210.910156 429.089844 214.164062 429.089844 218.183594 C 429.089844 222.199219 432.347656 225.453125 436.363281 225.453125 C 440.378906 225.453125 443.636719 222.199219 443.636719 218.183594 "/>
<path style=" stroke:none;fill-rule:nonzero;fill:rgb(100%,0%,0%);fill-opacity:1;" d="M 443.636719 145.453125 C 443.636719 141.4375 440.378906 138.183594 436.363281 138.183594 C 432.347656 138.183594 429.089844 141.4375 429.089844 145.453125 C 429.089844 149.472656 432.347656 152.726562 436.363281 152.726562 C 440.378906 152.726562 443.636719 149.472656 443.636719 145.453125 "/>
<path style=" stroke:none;fill-rule:nonzero;fill:rgb(100%,0%,0%);fill-opacity:1;" d="M 443.636719 72.726562 C 443.636719 68.710938 440.378906 65.453125 436.363281 65.453125 C 432.347656 65.453125 429.089844 68.710938 429.089844 72.726562 C 429.089844 76.742188 432.347656 80 436.363281 80 C 440.378906 80 443.636719 76.742188 443.636719 72.726562 "/>
<path style=" stroke:none;fill-rule:nonzero;fill:rgb(100%,0%,0%);fill-opacity:1;" d="M 516.363281 727.273438 C 516.363281 723.257812 513.109375 720 509.089844 720 C 505.074219 720 501.816406 723.257812 501.816406 727.273438 C 501.816406 731.289062 505.074219 734.546875 509.089844 734.546875 C 513.109375 734.546875 516.363281 731.289062 516.363281 727.273438 "/>
<path style=" stroke:none;fill-rule:nonzero;fill:rgb(100%,0%,0%);fill-opacity:1;" d="M 516.363281 654.546875 C 516.363281 650.527344 513.109375 647.273438 509.089844 647.273438 C 505.074219 647.273438 501.816406 650.527344 501.816406 654.546875 C 501.816406 658.5625 505.074219 661.816406 509.089844 661.816406 C 513.109375 661.816406 516.363281 658.5625 516.363281 654.546875 "/>
<path style=" stroke:none;fill-rule:nonzero;fill:rgb(100%,0%,0%);fill-opacity:1;" d="M 516.363281 581.816406 C 516.363281 577.800781 513.109375 574.546875 509.089844 574.546875 C 505.074219 574.546875 501.816406 577.800781 501.816406 581.816406 C 501.816406 585.835938 505.074219 589.089844 509.089844 589.089844 C 513.109375 589.089844 516.363281 585.835938 516.363281 581.816406 "/>
<path style=" stroke:none;fill-rule:nonzero;fill:rgb(100%,0%,0%);fill-opacity:1;" d="M 516.363281 509.089844 C 516.363281 505.074219 513.109375 501.816406 509.089844 501.816406 C 505.074219 501.816406 501.816406 505.074219 501.816406 509.089844 C 501.816406 513.109375 505.074219 516.363281 509.089844 516.363281 C 513.109375 516.363281 516.363281 513.109375 516.363281 509.089844 "/>
<path style=" stroke:none;fill-rule:nonzero;fill:rgb(100%,0%,0%);fill-opacity:1;" d="M 516.363281 436.363281 C 516.363281 432.347656 513.109375 429.089844 509.089844 429.089844 C 505.074219 429.089844 501.816406 432.347656 501.816406 436.363281 C 501.816406 440.378906 505.074219 443.636719 509.089844 443.636719 C 513.109375 443.636719 516.363281 440.378906 516.363281 436.363281 "/>
<path style=" stroke:none;fill-rule:nonzero;fill:rgb(100%,0%,0%);fill-opacity:1;" d="M 516.363281 363.636719 C 516.363281 359.621094 513.109375 356.363281 509.089844 356.363281 C 505.074219 356.363281 501.816406 359.621094 501.816406 363.636719 C 501.816406 367.652344 505.074219 370.910156 509.089844 370.910156 C 513.109375 370.910156 516.363281 367.652344 516.363281 363.636719 "/>
<path style=" stroke:none;fill-rule:nonzero;fill:rgb(100%,0%,0%);fill-opacity:1;" d="M 516.363281 290.910156 C 516.363281 286.890625 513.109375 283.636719 509.089844 283.636719 C 505.074219 283.636719 501.816406 286.890625 501.816406 290.910156 C 501.816406 294.925781 505.074219 298.183594 509.089844 298.183594 C 513.109375 298.183594 516.363281 294.925781 516.363281 290.910156 "/>
<path style=" stroke:none;fill-rule:nonzero;fill:rgb(100%,0%,0%);fill-opacity:1;" d="M 516.363281 218.183594 C 516.363281 214.164062 513.109375 210.910156 509.089844 210.910156 C 505.074219 210.910156 501.816406 214.164062 501.816406 218.183594 C 501.816406 222.199219 505.074219 225.453125 509.089844 225.453125 C 513.109375 225.453125 516.363281 222.199219 516.363281 218.183594 "/>
<path style=" stroke:none;fill-rule:nonzero;fill:rgb(100%,0%,0%);fill-opacity:1;" d="M 516.363281 145.453125 C 516.363281 141.4375 513.109375 138.183594 509.089844 138.183594 C 505.074219 138.183594 501.816406 141.4375 501.816406 145.453125 C 501.816406 149.472656 505.074219 152.726562 509.089844 152.726562 C 513.109375 152.726562 516.363281 149.472656 516.363281 145.453125 "/>
<path style=" stroke:none;fill-rule:nonzero;fill:rgb(100%,0%,0%);fill-opacity:1;" d="M 516.363281 72.726562 C 516.363281 68.710938 513.109375 65.453125 509.089844 65.453125 C 505.074219 65.453125 501.816406 68.710938 501.816406 72.726562 C 501.816406 76.742188 505.074219 80 509.089844 80 C 513.109375 80 516.363281 76.742188 516.363281 72.726562 "/>
<path style=" stroke:none;fill-rule:nonzero;fill:rgb(100%,0%,0%);fill-opacity:1;" d="M 589.089844 727.273438 C 589.089844 723.257812 585.835938 720 581.816406 720 C 577.800781 720 574.546875 723.257812 574.546875 727.273438 C 574.546875 731.289062 577.800781 734.546875 581.816406 734.546875 C 585.835938 734.546875 589.089844 731.289062 589.089844 727.273438 "/>
<path style=" stroke:none;fill-rule:nonzero;fill:rgb(100%,0%,0%);fill-opacity:1;" d="M 589.089844 654.546875 C 589.089844 650.527344 585.835938 647.273438 581.816406 647.273438 C 577.800781 647.273438 574.546875 650.527344 574.546875 654.546875 C 574.546875 658.5625 577.800781 661.816406 581.816406 661.816406 C 585.835938 661.816406 589.089844 658.5625 589.089844 654.546875 "/>
<path style=" stroke:none;fill-rule:nonzero;fill:rgb(100%,0%,0%);fill-opacity:1;" d="M 589.089844 581.816406 C 589.089844 577.800781 585.835938 574.546875 581.816406 574.546875 C 577.800781 574.546875 574.546875 577.800781 574.546875 581.816406 C 574.546875 585.835938 577.800781 589.089844 581.816406 589.089844 C 585.835938 589.089844 589.089844 585.835938 589.089844 581.816406 "/>
<path style=" stroke:none;fill-rule:nonzero;fill:rgb(100%,0%,0%);fill-opacity:1;" d="M 589.089844 509.089844 C 589.089844 505.074219 585.835938 501.816406 581.816406 501.816406 C 577.800781 501.816406 574.546875 505.074219 574.546875 509.089844 C 574.546875 513.109375 577.800781 516.363281 581.816406 516.363281 C 585.835938 516.363281 589.089844 513.109375 589.089844 509.089844 "/>
<path style=" stroke:none;fill-rule:nonzero;fill:rgb(100%,0%,0%);fill-opacity:1;" d="M 589.089844 436.363281 C 589.089844 432.347656 585.835938 429.089844 581.816406 429.089844 C 577.800781 429.089844 574.546875 432.347656 574.546875 436.363281 C 574.546875 440.378906 577.800781 443.636719 581.816406 443.636719 C 585.835938 443.636719 589.089844 440.378906 589.089844 436.363281 "/>
<path style=" stroke:none;fill-rule:nonzero;fill:rgb(100%,0%,0%);fill-opacity:1;" d="M 589.089844 363.636719 C 589.089844 359.621094 585.835938 356.363281 581.816406 356.363281 C 577.800781 356.363281 574.546875 359.621094 574.546875 363.636719 C 574.546875 367.652344 577.800781 370.910156 581.816406 370.910156 C 585.835938 370.910156 589.089844 367.652344 589.089844 363.636719 "/>
<path style=" stroke:none;fill-rule:nonzero;fill:rgb(100%,0%,0%);fill-opacity:1;" d="M 589.089844 290.910156 C 589.089844 286.890625 585.835938 283.636719 581.816406 283.636719 C 577.800781 283.636719 574.546875 286.890625 574.546875 290.910156 C 574.546875 294.925781 577.800781 298.183594 581.816406 298.183594 C 585.835938 298.183594 589.089844 294.925781 589.089844 290.910156 "/>
<path style=" stroke:none;fill-rule:nonzero;fill:rgb(100%,0%,0%);fill-opacity:1;" d="M 589.089844 218.183594 C 589.089844 214.164062 585.835938 210.910156 581.816406 210.910156 C 577.800781 210.910156 574.546875 214.164062 574.546875 218.183594 C 574.546875 222.199219 577.800781 225.453125 581.816406 225.453125 C 585.835938 225.453125 589.089844 222.199219 589.089844 218.183594 "/>
<path style=" stroke:none;fill-rule:nonzero;fill:rgb(100%,0%,0%);fill-opacity:1;" d="M 589.089844 145.453125 C 589.089844 141.4375 585.835938 138.183594 581.816406 138.183594 C 577.800781 138.183594 574.546875 141.4375 574.546875 145.453125 C 574.546875 149.472656 577.800781 152.726562 581.816406 152.726562 C 585.835938 152.726562 589.089844 149.472656 589.089844 145.453125 "/>
<path style=" stroke:none;fill-rule:nonzero;fill:rgb(100%,0%,0%);fill-opacity:1;" d="M 589.089844 72.726562 C 589.089844 68.710938 585.835938 65.453125 581.816406 65.453125 C 577.800781 65.453125 574.546875 68.710938 574.546875 72.726562 C 574.546875 76.742188 577.800781 80 581.816406 80 C 585.835938 80 589.089844 76.742188 589.089844 72.726562 "/>
<path style=" stroke:none;fill-rule:nonzero;fill:rgb(100%,0%,0%);fill-opacity:1;" d="M 661.816406 727.273438 C 661.816406 723.257812 658.5625 720 654.546875 720 C 650.527344 720 647.273438 723.257812 647.273438 727.273438 C 647.273438 731.289062 650.527344 734.546875 654.546875 734.546875 C 658.5625 734.546875 661.816406 731.289062 661.816406 727.273438 "/>
<path style=" stroke:none;fill-rule:nonzero;fill:rgb(100%,0%,0%);fill-opacity:1;" d="M 661.816406 654.546875 C 661.816406 650.527344 658.5625 647.273438 654.546875 647.273438 C 650.527344 647.273438 647.273438 650.527344 647.273438 654.546875 C 647.273438 658.5625 650.527344 661.816406 654.546875 661.816406 C 658.5625 661.816406 661.816406 658.5625 661.816406 654.546875 "/>
<path style=" stroke:none;fill-rule:nonzero;fill:rgb(100%,0%,0%);fill-opacity:1;" d="M 661.816406 581.816406 C 661.816406 577.800781 658.5625 574.546875 654.546875 574.546875 C 650.527344 574.546875 647.273438 577.800781 647.273438 581.816406 C 647.273438 585.835938 650.527344 589.089844 654.546875 589.089844 C 658.5625 589.089844 661.816406 585.835938 661.816406 581.816406 "/>
<path style=" stroke:none;fill-rule:nonzero;fill:rgb(100%,0%,0%);fill-opacity:1;" d="M 661.816406 509.089844 C 661.816406 505.074219 658.5625 501.816406 654.546875 501.816406 C 650.527344 501.816406 647.273438 505.074219 647.273438 509.089844 C 647.273438 513.109375 650.527344 516.363281 654.546875 516.363281 C 658.5625 516.363281 661.816406 513.109375 661.816406 509.089844 "/>
<path style=" stroke:none;fill-rule:nonzero;fill:rgb(100%,0%,0%);fill-opacity:1;" d="M 661.816406 436.363281 C 661.816406 432.347656 658.5625 429.089844 654.546875 429.089844 C 650.527344 429.089844 647.273438 432.347656 647.273438 436.363281 C 647.273438 440.378906 650.527344 443.636719 654.546875 443.636719 C 658.5625 443.636719 661.816406 440.378906 661.816406 436.363281 "/>
<path style=" stroke:none;fill-rule:nonzero;fill:rgb(100%,0%,0%);fill-opacity:1;" d="M 661.816406 363.636719 C 661.816406 359.621094 658.5625 356.363281 654.546875 356.363281 C 650.527344 356.363281 647.273438 359.621094 647.273438 363.636719 C 647.273438 367.652344 650.527344 370.910156 654.546875 370.910156 C 658.5625 370.910156 661.816406 367.652344 661.816406 363.636719 "/>
<path style=" stroke:none;fill-rule:nonzero;fill:rgb(100%,0%,0%);fill-opacity:1;" d="M 661.816406 290.910156 C 661.816406 286.890625 658.5625 283.636719 654.546875 283.636719 C 650.527344 283.636719 647.273438 286.890625 647.273438 290.910156 C 647.273438 294.925781 650.527344 298.183594 654.546875 298.183594 C 658.5625 298.183594 661.816406 294.925781 661.816406 290.910156 "/>
<path style=" stroke:none;fill-rule:nonzero;fill:rgb(100%,0%,0%);fill-opacity:1;" d="M 661.816406 218.183594 C 661.816406 214.164062 658.5625 210.910156 654.546875 210.910156 C 650.527344 210.910156 647.273438 214.164062 647.273438 218.183594 C 647.273438 222.199219 650.527344 225.453125 654.546875 225.453125 C 658.5625 225.453125 661.816406 222.199219 661.816406 218.183594 "/>
<path style=" stroke:none;fill-rule:nonzero;fill:rgb(100%,0%,0%);fill-opacity:1;" d="M 661.816406 145.453125 C 661.816406 141.4375 658.5625 138.183594 654.546875 138.183594 C 650.527344 138.183594 647.273438 141.4375 647.273438 145.453125 C 647.273438 149.472656 650.527344 152.726562 654.546875 152.726562 C 658.5625 152.726562 661.816406 149.472656 661.816406 145.453125 "/>
<path style=" stroke:none;fill-rule:nonzero;fill:rgb(100%,0%,0%);fill-opacity:1;" d="M 661.816406 72.726562 C 661.816406 68.710938 658.5625 65.453125 654.546875 65.453125 C 650.527344 65.453125 647.273438 68.710938 647.273438 72.726562 C 647.273438 76.742188 650.527344 80 654.546875 80 C 658.5625 80 661.816406 76.742188 661.816406 72.726562 "/>
<path style=" stroke:none;fill-rule:nonzero;fill:rgb(100%,0%,0%);fill-opacity:1;" d="M 734.546875 727.273438 C 734.546875 723.257812 731.289062 720 727.273438 720 C 723.257812 720 720 723.257812 720 727.273438 C 720 731.289062 723.257812 734.546875 727.273438 734.546875 C 731.289062 734.546875 734.546875 731.289062 734.546875 727.273438 "/>
<path style=" stroke:none;fill-rule:nonzero;fill:rgb(100%,0%,0%);fill-opacity:1;" d="M 734.546875 654.546875 C 734.546875 650.527344 731.289062 647.273438 727.273438 647.273438 C 723.257812 647.273438 720 650.527344 720 654.546875 C 720 658.5625 723.257812 661.816406 727.273438 661.816406 C 731.289062 661.816406 734.546875 658.5625 734.546875 654.546875 "/>
<path style=" stroke:none;fill-rule:nonzero;fill:rgb(100%,0%,0%);fill-opacity:1;" d="M 734.546875 581.816406 C 734.546875 577.800781 731.289062 574.546875 727.273438 574.546875 C 723.257812 574.546875 720 577.800781 720 581.816406 C 720 585.835938 723.257812 589.089844 727.273438 589.089844 C 731.289062 589.089844 734.546875 585.835938 734.546875 581.816406 "/>
<path style=" stroke:none;fill-rule:nonzero;fill:rgb(100%,0%,0%);fill-opacity:1;" d="M 734.546875 509.089844 C 734.546875 505.074219 731.289062 501.816406 727.273438 501.816406 C 723.257812 501.816406 720 505.074219 720 509.089844 C 720 513.109375 723.257812 516.363281 727.273438 516.363281 C 731.289062 516.363281 734.546875 513.109375 734.546875 509.089844 "/>
<path style=" stroke:none;fill-rule:nonzero;fill:rgb(100%,0%,0%);fill-opacity:1;" d="M 734.546875 436.363281 C 734.546875 432.347656 731.289062 429.089844 727.273438 429.089844 C 723.257812 429.089844 720 432.347656 720 436.363281 C 720 440.378906 723.257812 443.636719 727.273438 443.636719 C 731.289062 443.636719 734.546875 440.378906 734.546875 436.363281 "/>
<path style=" stroke:none;fill-rule:nonzero;fill:rgb(100%,0%,0%);fill-opacity:1;" d="M 734.546875 363.636719 C 734.546875 359.621094 731.289062 356.363281 727.273438 356.363281 C 723.257812 356.363281 720 359.621094 720 363.636719 C 720 367.652344 723.257812 370.910156 727.273438 370.910156 C 731.289062 370.910156 734.546875 367.652344 734.546875 363.636719 "/>
<path style=" stroke:none;fill-rule:nonzero;fill:rgb(100%,0%,0%);fill-opacity:1;" d="M 734.546875 290.910156 C 734.546875 286.890625 731.289062 283.636719 727.273438 283.636719 C 723.257812 283.636719 720 286.890625 720 290.910156 C 720 294.925781 723.257812 298.183594 727.273438 298.183594 C 731.289062 298.183594 734.546875 294.925781 734.546875 290.910156 "/>
<path style=" stroke:none;fill-rule:nonzero;fill:rgb(100%,0%,0%);fill-opacity:1;" d="M 734.546875 218.183594 C 734.546875 214.164062 731.289062 210.910156 727.273438 210.910156 C 723.257812 210.910156 720 214.164062 720 218.183594 C 720 222.199219 723.257812 225.453125 727.273438 225.453125 C 731.289062 225.453125 734.546875 222.199219 734.546875 218.183594 "/>
<path style=" stroke:none;fill-rule:nonzero;fill:rgb(100%,0%,0%);fill-opacity:1;" d="M 734.546875 145.453125 C 734.546875 141.4375 731.289062 138.183594 727.273438 138.183594 C 723.257812 138.183594 720 141.4375 720 145.453125 C 720 149.472656 723.257812 152.726562 727.273438 152.726562 C 731.289062 152.726562 734.546875 149.472656 734.546875 145.453125 "/>
<path style=" stroke:none;fill-rule:nonzero;fill:rgb(100%,0%,0%);fill-opacity:1;" d="M 734.546875 72.726562 C 734.546875 68.710938 731.289062 65.453125 727.273438 65.453125 C 723.257812 65.453125 720 68.710938 720 72.726562 C 720 76.742188 723.257812 80 727.273438 80 C 731.289062 80 734.546875 76.742188 734.546875 72.726562 "/>
<path style=" stroke:none;fill-rule:nonzero;fill:rgb(0%,0%,0%);fill-opacity:1;" d="M 1309.089844 509.089844 C 1283.226562 512.339844 1252.488281 525.328125 1236.363281 509.089844 C 1220.242188 492.851562 1218.734375 447.382812 1236.363281 436.363281 C 1253.996094 425.34375 1290.765625 448.773438 1309.089844 436.363281 C 1327.417969 423.953125 1327.296875 375.707031 1309.089844 363.636719 C 1290.882812 351.566406 1254.589844 375.671875 1236.363281 363.636719 C 1218.136719 351.601562 1217.980469 303.421875 1236.363281 290.910156 C 1254.75 278.398438 1291.675781 301.554688 1309.089844 290.910156 C 1326.503906 280.265625 1324.40625 235.820312 1309.089844 218.183594 C 1293.777344 200.542969 1265.246094 209.707031 1236.363281 218.183594 C 1207.480469 226.65625 1178.242188 234.445312 1163.636719 218.183594 C 1149.03125 201.917969 1149.058594 161.605469 1163.636719 145.453125 C 1178.214844 129.304688 1207.339844 137.320312 1236.363281 145.453125 C 1265.390625 153.589844 1294.3125 161.84375 1309.089844 145.453125 C 1323.867188 129.0625 1324.5 88.027344 1309.089844 72.726562 C 1293.683594 57.425781 1262.238281 67.863281 1236.363281 72.726562 C 1210.488281 77.589844 1190.1875 76.882812 1163.636719 72.726562 C 1137.085938 68.570312 1104.285156 60.964844 1090.910156 72.726562 C 1077.53125 84.488281 1083.574219 115.617188 1090.910156 145.453125 C 1098.242188 175.289062 1106.867188 203.832031 1090.910156 218.183594 C 1074.953125 232.53125 1034.414062 232.691406 1018.183594 218.183594 C 1001.949219 203.671875 1010.027344 174.496094 1018.183594 145.453125 C 1026.335938 116.414062 1034.574219 87.507812 1018.183594 72.726562 C 1001.789062 57.949219 960.769531 57.292969 945.453125 72.726562 C 930.140625 88.160156 940.53125 119.679688 945.453125 145.453125 C 950.375 171.226562 949.828125 191.253906 945.453125 218.183594 C 941.082031 245.109375 932.882812 278.933594 945.453125 290.910156 C 958.023438 302.886719 991.363281 293.015625 1018.183594 290.910156 C 1045 288.804688 1065.296875 294.460938 1090.910156 290.910156 C 1116.519531 287.355469 1147.445312 274.589844 1163.636719 290.910156 C 1179.828125 307.230469 1181.289062 352.632812 1163.636719 363.636719 C 1145.984375 374.636719 1109.214844 351.234375 1090.910156 363.636719 C 1072.601562 376.039062 1072.757812 424.242188 1090.910156 436.363281 C 1109.0625 448.484375 1145.210938 424.527344 1163.636719 436.363281 C 1182.0625 448.199219 1182.765625 495.832031 1163.636719 509.089844 C 1144.503906 522.347656 1105.539062 501.230469 1090.910156 509.089844 C 1076.277344 516.953125 1085.980469 553.796875 1090.910156 581.816406 C 1095.839844 609.839844 1095.996094 629.046875 1090.910156 654.546875 C 1085.820312 680.046875 1075.484375 711.839844 1090.910156 727.273438 C 1106.332031 742.703125 1147.511719 741.773438 1163.636719 727.273438 C 1179.757812 712.773438 1170.824219 684.707031 1163.636719 654.546875 C 1156.449219 624.382812 1151.007812 592.125 1163.636719 581.816406 C 1176.265625 571.511719 1206.960938 583.152344 1236.363281 581.816406 C 1265.765625 580.484375 1293.878906 566.175781 1309.089844 581.816406 C 1324.300781 597.460938 1326.613281 643.050781 1309.089844 654.546875 C 1291.566406 666.039062 1254.210938 643.4375 1236.363281 654.546875 C 1218.515625 665.652344 1220.183594 710.464844 1236.363281 727.273438 C 1252.542969 744.078125 1283.242188 732.878906 1309.089844 727.273438 C 1334.941406 721.667969 1355.945312 721.652344 1381.816406 727.273438 C 1407.691406 732.890625 1438.425781 744.140625 1454.546875 727.273438 C 1470.664062 710.402344 1472.164062 665.414062 1454.546875 654.546875 C 1436.925781 643.675781 1400.1875 666.929688 1381.816406 654.546875 C 1363.449219 642.164062 1363.449219 594.144531 1381.816406 581.816406 C 1400.1875 569.492188 1436.925781 592.859375 1454.546875 581.816406 C 1472.164062 570.777344 1470.664062 525.324219 1454.546875 509.089844 C 1438.425781 492.859375 1407.683594 505.84375 1381.816406 509.089844 C 1355.949219 512.335938 1334.957031 505.84375 1309.089844 509.089844 "/>
<path style=" stroke:none;fill-rule:nonzero;fill:rgb(0%,0%,0%);fill-opacity:1;" d="M 800 218.183594 C 794.804688 244.15625 784.414062 275.324219 800 290.910156 C 815.585938 306.492188 857.144531 306.492188 872.726562 290.910156 C 888.3125 275.324219 877.921875 244.15625 872.726562 218.183594 C 867.53125 192.207031 867.53125 171.429688 872.726562 145.453125 C 877.921875 119.480469 888.3125 88.3125 872.726562 72.726562 C 857.144531 57.144531 815.585938 57.144531 800 72.726562 C 784.414062 88.3125 794.804688 119.480469 800 145.453125 C 805.195312 171.429688 805.195312 192.207031 800 218.183594 "/>
<path style=" stroke:none;fill-rule:nonzero;fill:rgb(0%,0%,0%);fill-opacity:1;" d="M 945.453125 363.636719 C 918.996094 367.757812 899.683594 367.609375 872.726562 363.636719 C 845.769531 359.664062 811.167969 351.867188 800 363.636719 C 788.832031 375.402344 801.097656 406.734375 800 436.363281 C 798.902344 465.996094 784.433594 493.925781 800 509.089844 C 815.566406 524.257812 861.160156 526.65625 872.726562 509.089844 C 884.292969 491.527344 861.835938 454.003906 872.726562 436.363281 C 883.621094 418.726562 927.867188 420.972656 945.453125 436.363281 C 963.042969 451.753906 953.972656 480.285156 945.453125 509.089844 C 936.933594 537.898438 928.964844 566.976562 945.453125 581.816406 C 961.945312 596.660156 1002.890625 597.257812 1018.183594 581.816406 C 1033.472656 566.378906 1023.105469 534.898438 1018.183594 509.089844 C 1013.261719 483.28125 1013.785156 463.144531 1018.183594 436.363281 C 1022.578125 409.582031 1030.847656 376.152344 1018.183594 363.636719 C 1005.515625 351.121094 971.914062 359.515625 945.453125 363.636719 "/>
<path style=" stroke:none;fill-rule:nonzero;fill:rgb(0%,0%,0%);fill-opacity:1;" d="M 1381.816406 363.636719 C 1363.636719 381.816406 1363.636719 418.183594 1381.816406 436.363281 C 1400 454.546875 1436.363281 454.546875 1454.546875 436.363281 C 1472.726562 418.183594 1472.726562 381.816406 1454.546875 363.636719 C 1436.363281 345.453125 1400 345.453125 1381.816406 363.636719 "/>
<path style=" stroke:none;fill-rule:nonzero;fill:rgb(0%,0%,0%);fill-opacity:1;" d="M 872.726562 654.546875 C 865.417969 638.886719 885.253906 599.914062 872.726562 581.816406 C 860.199219 563.722656 815.3125 566.507812 800 581.816406 C 784.6875 597.128906 798.957031 624.96875 800 654.546875 C 801.042969 684.125 788.863281 715.441406 800 727.273438 C 811.136719 739.105469 845.585938 731.449219 872.726562 727.273438 C 899.871094 723.097656 919.703125 722.402344 945.453125 727.273438 C 971.203125 732.144531 1002.871094 742.582031 1018.183594 727.273438 C 1033.492188 711.960938 1032.449219 670.902344 1018.183594 654.546875 C 1003.914062 638.191406 976.425781 646.542969 945.453125 654.546875 C 914.484375 662.550781 880.035156 670.203125 872.726562 654.546875 "/>
<path style=" stroke:none;fill-rule:nonzero;fill:rgb(0%,0%,0%);fill-opacity:1;" d="M 1454.546875 72.726562 C 1436.363281 54.546875 1400 54.546875 1381.816406 72.726562 C 1363.636719 90.910156 1363.636719 127.273438 1381.816406 145.453125 C 1400 163.636719 1436.363281 163.636719 1454.546875 145.453125 C 1472.726562 127.273438 1472.726562 90.910156 1454.546875 72.726562 "/>
<path style=" stroke:none;fill-rule:nonzero;fill:rgb(0%,0%,0%);fill-opacity:1;" d="M 1381.816406 290.910156 C 1363.636719 272.726562 1363.636719 236.363281 1381.816406 218.183594 C 1400 200 1436.363281 200 1454.546875 218.183594 C 1472.726562 236.363281 1472.726562 272.726562 1454.546875 290.910156 C 1436.363281 309.089844 1400 309.089844 1381.816406 290.910156 "/>
</g>
</svg>
