<?xml version="1.0" encoding="UTF-8"?>
<svg xmlns="http://www.w3.org/2000/svg" xmlns:xlink="http://www.w3.org/1999/xlink" width="1600pt" height="800pt" viewBox="0 0 1600 800" version="1.1">
<g id="surface11">
<rect x="0" y="0" width="1600" height="800" style="fill:rgb(100%,100%,100%);fill-opacity:1;stroke:none;"/>
<path style="fill:none;stroke-width:0.1;stroke-linecap:butt;stroke-linejoin:round;stroke:rgb(0%,0%,0%);stroke-opacity:1;stroke-miterlimit:10;" d="M 0.499995 0.866025 L 1.49999 0.866025 " transform="matrix(114.285714,0,0,-114.285714,57.142857,742.857143)"/>
<path style="fill:none;stroke-width:0.1;stroke-linecap:butt;stroke-linejoin:round;stroke:rgb(0%,0%,0%);stroke-opacity:1;stroke-miterlimit:10;" d="M 0.499995 0.866025 L 0.0000146484 1.732036 " transform="matrix(114.285714,0,0,-114.285714,57.142857,742.857143)"/>
<path style="fill:none;stroke-width:0.1;stroke-linecap:butt;stroke-linejoin:round;stroke:rgb(0%,0%,0%);stroke-opacity:1;stroke-miterlimit:10;" d="M 0.499995 0.866025 L 1.00001 1.732036 " transform="matrix(114.285714,0,0,-114.285714,57.142857,742.857143)"/>
<path style="fill:none;stroke-width:0.1;stroke-linecap:butt;stroke-linejoin:round;stroke:rgb(0%,0%,0%);stroke-opacity:1;stroke-miterlimit:10;" d="M 1.49999 0.866025 L 2.499985 0.866025 " transform="matrix(114.285714,0,0,-114.285714,57.142857,742.857143)"/>
<path style="fill:none;stroke-width:0.1;stroke-linecap:butt;stroke-linejoin:round;stroke:rgb(0%,0%,0%);stroke-opacity:1;stroke-miterlimit:10;" d="M 1.49999 0.866025 L 1.00001 1.732036 " transform="matrix(114.285714,0,0,-114.285714,57.142857,742.857143)"/>
<path style="fill:none;stroke-width:0.1;stroke-linecap:butt;stroke-linejoin:round;stroke:rgb(0%,0%,0%);stroke-opacity:1;stroke-miterlimit:10;" d="M 1.49999 0.866025 L 2.000005 1.732036 " transform="matrix(114.285714,0,0,-114.285714,57.142857,742.857143)"/>
<path style="fill:none;stroke-width:0.1;stroke-linecap:butt;stroke-linejoin:round;stroke:rgb(0%,0%,0%);stroke-opacity:1;stroke-miterlimit:10;" d="M 2.499985 0.866025 L 3.500015 0.866025 " transform="matrix(114.285714,0,0,-114.285714,57.142857,742.857143)"/>
<path style="fill:none;stroke-width:0.1;stroke-linecap:butt;stroke-linejoin:round;stroke:rgb(0%,0%,0%);stroke-opacity:1;stroke-miterlimit:10;" d="M 2.499985 0.866025 L 2.000005 1.732036 " transform="matrix(114.285714,0,0,-114.285714,57.142857,742.857143)"/>
<path style="fill:none;stroke-width:0.1;stroke-linecap:butt;stroke-linejoin:round;stroke:rgb(0%,0%,0%);stroke-opacity:1;stroke-miterlimit:10;" d="M 2.499985 0.866025 L 3 1.732036 " transform="matrix(114.285714,0,0,-114.285714,57.142857,742.857143)"/>
<path style="fill:none;stroke-width:0.1;stroke-linecap:butt;stroke-linejoin:round;stroke:rgb(0%,0%,0%);stroke-opacity:1;stroke-miterlimit:10;" d="M 3.500015 0.866025 L 4.50001 0.866025 " transform="matrix(114.285714,0,0,-114.285714,57.142857,742.857143)"/>
<path style="fill:none;stroke-width:0.1;stroke-linecap:butt;stroke-linejoin:round;stroke:rgb(0%,0%,0%);stroke-opacity:1;stroke-miterlimit:10;" d="M 3.500015 0.866025 L 3 1.732036 " transform="matrix(114.285714,0,0,-114.285714,57.142857,742.857143)"/>
<path style="fill:none;stroke-width:0.1;stroke-linecap:butt;stroke-linejoin:round;stroke:rgb(0%,0%,0%);stroke-opacity:1;stroke-miterlimit:10;" d="M 3.500015 0.866025 L 3.999995 1.732036 " transform="matrix(114.285714,0,0,-114.285714,57.142857,742.857143)"/>
<path style="fill:none;stroke-width:0.1;stroke-linecap:butt;stroke-linejoin:round;stroke:rgb(0%,0%,0%);stroke-opacity:1;stroke-miterlimit:10;" d="M 4.50001 0.866025 L 5.500005 0.866025 " transform="matrix(114.285714,0,0,-114.285714,57.142857,742.857143)"/>
<path style="fill:none;stroke-width:0.1;stroke-linecap:butt;stroke-linejoin:round;stroke:rgb(0%,0%,0%);stroke-opacity:1;stroke-miterlimit:10;" d="M 4.50001 0.866025 L 3.999995 1.732036 " transform="matrix(114.285714,0,0,-114.285714,57.142857,742.857143)"/>
<path style="fill:none;stroke-width:0.1;stroke-linecap:butt;stroke-linejoin:round;stroke:rgb(0%,0%,0%);stroke-opacity:1;stroke-miterlimit:10;" d="M 4.50001 0.866025 L 4.99999 1.732036 " transform="matrix(114.285714,0,0,-114.285714,57.142857,742.857143)"/>
<path style="fill:none;stroke-width:0.1;stroke-linecap:butt;stroke-linejoin:round;stroke:rgb(0%,0%,0%);stroke-opacity:1;stroke-miterlimit:10;" d="M 5.500005 0.866025 L 4.99999 1.732036 " transform="matrix(114.285714,0,0,-114.285714,57.142857,742.857143)"/>
<path style="fill:none;stroke-width:0.1;stroke-linecap:butt;stroke-linejoin:round;stroke:rgb(0%,0%,0%);stroke-opacity:1;stroke-miterlimit:10;" d="M 0.0000146484 1.732036 L 1.00001 1.732036 " transform="matrix(114.285714,0,0,-114.285714,57.142857,742.857143)"/>
<path style="fill:none;stroke-width:0.1;stroke-linecap:butt;stroke-linejoin:round;stroke:rgb(0%,0%,0%);stroke-opacity:1;stroke-miterlimit:10;" d="M 0.0000146484 1.732036 L 0.499995 2.598081 " transform="matrix(114.285714,0,0,-114.285714,57.142857,742.857143)"/>
<path style="fill:none;stroke-width:0.1;stroke-linecap:butt;stroke-linejoin:round;stroke:rgb(0%,0%,0%);stroke-opacity:1;stroke-miterlimit:10;" d="M 1.00001 1.732036 L 2.000005 1.732036 " transform="matrix(114.285714,0,0,-114.285714,57.142857,742.857143)"/>
<path style="fill:none;stroke-width:0.1;stroke-linecap:butt;stroke-linejoin:round;stroke:rgb(0%,0%,0%);stroke-opacity:1;stroke-miterlimit:10;" d="M 1.00001 1.732036 L 0.499995 2.598081 " transform="matrix(114.285714,0,0,-114.285714,57.142857,742.857143)"/>
<path style="fill:none;stroke-width:0.1;stroke-linecap:butt;stroke-linejoin:round;stroke:rgb(0%,0%,0%);stroke-opacity:1;stroke-miterlimit:10;" d="M 1.00001 1.732036 L 1.49999 2.598081 " transform="matrix(114.285714,0,0,-114.285714,57.142857,742.857143)"/>
<path style="fill:none;stroke-width:0.1;stroke-linecap:butt;stroke-linejoin:round;stroke:rgb(0%,0%,0%);stroke-opacity:1;stroke-miterlimit:10;" d="M 2.000005 1.732036 L 3 1.732036 " transform="matrix(114.285714,0,0,-114.285714,57.142857,742.857143)"/>
<path style="fill:none;stroke-width:0.1;stroke-linecap:butt;stroke-linejoin:round;stroke:rgb(0%,0%,0%);stroke-opacity:1;stroke-miterlimit:10;" d="M 2.000005 1.732036 L 1.49999 2.598081 " transform="matrix(114.285714,0,0,-114.285714,57.142857,742.857143)"/>
<path style="fill:none;stroke-width:0.1;stroke-linecap:butt;stroke-linejoin:round;stroke:rgb(0%,0%,0%);stroke-opacity:1;stroke-miterlimit:10;" d="M 2.000005 1.732036 L 2.499985 2.598081 " transform="matrix(114.285714,0,0,-114.285714,57.142857,742.857143)"/>
<path style="fill:none;stroke-width:0.1;stroke-linecap:butt;stroke-linejoin:round;stroke:rgb(0%,0%,0%);stroke-opacity:1;stroke-miterlimit:10;" d="M 3 1.732036 L 3.999995 1.732036 " transform="matrix(114.285714,0,0,-114.285714,57.142857,742.857143)"/>
<path style="fill:none;stroke-width:0.1;stroke-linecap:butt;stroke-linejoin:round;stroke:rgb(0%,0%,0%);stroke-opacity:1;stroke-miterlimit:10;" d="M 3 1.732036 L 2.499985 2.598081 " transform="matrix(114.285714,0,0,-114.285714,57.142857,742.857143)"/>
<path style="fill:none;stroke-width:0.1;stroke-linecap:butt;stroke-linejoin:round;stroke:rgb(0%,0%,0%);stroke-opacity:1;stroke-miterlimit:10;" d="M 3 1.732036 L 3.500015 2.598081 " transform="matrix(114.285714,0,0,-114.285714,57.142857,742.857143)"/>
<path style="fill:none;stroke-width:0.1;stroke-linecap:butt;stroke-linejoin:round;stroke:rgb(0%,0%,0%);stroke-opacity:1;stroke-miterlimit:10;" d="M 3.999995 1.732036 L 4.99999 1.732036 " transform="matrix(114.285714,0,0,-114.285714,57.142857,742.857143)"/>
<path style="fill:none;stroke-width:0.1;stroke-linecap:butt;stroke-linejoin:round;stroke:rgb(0%,0%,0%);stroke-opacity:1;stroke-miterlimit:10;" d="M 3.999995 1.732036 L 3.500015 2.598081 " transform="matrix(114.285714,0,0,-114.285714,57.142857,742.857143)"/>
<path style="fill:none;stroke-width:0.1;stroke-linecap:butt;stroke-linejoin:round;stroke:rgb(0%,0%,0%);stroke-opacity:1;stroke-miterlimit:10;" d="M 3.999995 1.732036 L 4.50001 2.598081 " transform="matrix(114.285714,0,0,-114.285714,57.142857,742.857143)"/>
<path style="fill:none;stroke-width:0.1;stroke-linecap:butt;stroke-linejoin:round;stroke:rgb(0%,0%,0%);stroke-opacity:1;stroke-miterlimit:10;" d="M 4.99999 1.732036 L 4.50001 2.598081 " transform="matrix(114.285714,0,0,-114.285714,57.142857,742.857143)"/>
<path style="fill:none;stroke-width:0.1;stroke-linecap:butt;stroke-linejoin:round;stroke:rgb(0%,0%,0%);stroke-opacity:1;stroke-miterlimit:10;" d="M 4.99999 1.732036 L 5.500005 2.598081 " transform="matrix(114.285714,0,0,-114.285714,57.142857,742.857143)"/>
<path style="fill:none;stroke-width:0.1;stroke-linecap:butt;stroke-linejoin:round;stroke:rgb(0%,0%,0%);stroke-opacity:1;stroke-miterlimit:10;" d="M 0.499995 2.598081 L 1.49999 2.598081 " transform="matrix(114.285714,0,0,-114.285714,57.142857,742.857143)"/>
<path style="fill:none;stroke-width:0.1;stroke-linecap:butt;stroke-linejoin:round;stroke:rgb(0%,0%,0%);stroke-opacity:1;stroke-miterlimit:10;" d="M 0.499995 2.598081 L 0.0000146484 3.464092 " transform="matrix(114.285714,0,0,-114.285714,57.142857,742.857143)"/>
<path style="fill:none;stroke-width:0.1;stroke-linecap:butt;stroke-linejoin:round;stroke:rgb(0%,0%,0%);stroke-opacity:1;stroke-miterlimit:10;" d="M 0.499995 2.598081 L 1.00001 3.464092 " transform="matrix(114.285714,0,0,-114.285714,57.142857,742.857143)"/>
<path style="fill:none;stroke-width:0.1;stroke-linecap:butt;stroke-linejoin:round;stroke:rgb(0%,0%,0%);stroke-opacity:1;stroke-miterlimit:10;" d="M 1.49999 2.598081 L 2.499985 2.598081 " transform="matrix(114.285714,0,0,-114.285714,57.142857,742.857143)"/>
<path style="fill:none;stroke-width:0.1;stroke-linecap:butt;stroke-linejoin:round;stroke:rgb(0%,0%,0%);stroke-opacity:1;stroke-miterlimit:10;" d="M 1.49999 2.598081 L 1.00001 3.464092 " transform="matrix(114.285714,0,0,-114.285714,57.142857,742.857143)"/>
<path style="fill:none;stroke-width:0.1;stroke-linecap:butt;stroke-linejoin:round;stroke:rgb(0%,0%,0%);stroke-opacity:1;stroke-miterlimit:10;" d="M 1.49999 2.598081 L 2.000005 3.464092 " transform="matrix(114.285714,0,0,-114.285714,57.142857,742.857143)"/>
<path style="fill:none;stroke-width:0.1;stroke-linecap:butt;stroke-linejoin:round;stroke:rgb(0%,0%,0%);stroke-opacity:1;stroke-miterlimit:10;" d="M 2.499985 2.598081 L 3.500015 2.598081 " transform="matrix(114.285714,0,0,-114.285714,57.142857,742.857143)"/>
<path style="fill:none;stroke-width:0.1;stroke-linecap:butt;stroke-linejoin:round;stroke:rgb(0%,0%,0%);stroke-opacity:1;stroke-miterlimit:10;" d="M 2.499985 2.598081 L 2.000005 3.464092 " transform="matrix(114.285714,0,0,-114.285714,57.142857,742.857143)"/>
<path style="fill:none;stroke-width:0.1;stroke-linecap:butt;stroke-linejoin:round;stroke:rgb(0%,0%,0%);stroke-opacity:1;stroke-miterlimit:10;" d="M 2.499985 2.598081 L 3 3.464092 " transform="matrix(114.285714,0,0,-114.285714,57.142857,742.857143)"/>
<path style="fill:none;stroke-width:0.1;stroke-linecap:butt;stroke-linejoin:round;stroke:rgb(0%,0%,0%);stroke-opacity:1;stroke-miterlimit:10;" d="M 3.500015 2.598081 L 4.50001 2.598081 " transform="matrix(114.285714,0,0,-114.285714,57.142857,742.857143)"/>
<path style="fill:none;stroke-width:0.1;stroke-linecap:butt;stroke-linejoin:round;stroke:rgb(0%,0%,0%);stroke-opacity:1;stroke-miterlimit:10;" d="M 3.500015 2.598081 L 3 3.464092 " transform="matrix(114.285714,0,0,-114.285714,57.142857,742.857143)"/>
<path style="fill:none;stroke-width:0.1;stroke-linecap:butt;stroke-linejoin:round;stroke:rgb(0%,0%,0%);stroke-opacity:1;stroke-miterlimit:10;" d="M 3.500015 2.598081 L 3.999995 3.464092 " transform="matrix(114.285714,0,0,-114.285714,57.142857,742.857143)"/>
<path style="fill:none;stroke-width:0.1;stroke-linecap:butt;stroke-linejoin:round;stroke:rgb(0%,0%,0%);stroke-opacity:1;stroke-miterlimit:10;" d="M 4.50001 2.598081 L 5.500005 2.598081 " transform="matrix(114.285714,0,0,-114.285714,57.142857,742.857143)"/>
<path style="fill:none;stroke-width:0.1;stroke-linecap:butt;stroke-linejoin:round;stroke:rgb(0%,0%,0%);stroke-opacity:1;stroke-miterlimit:10;" d="M 4.50001 2.598081 L 3.999995 3.464092 " transform="matrix(114.285714,0,0,-114.285714,57.142857,742.857143)"/>
<path style="fill:none;stroke-width:0.1;stroke-linecap:butt;stroke-linejoin:round;stroke:rgb(0%,0%,0%);stroke-opacity:1;stroke-miterlimit:10;" d="M 4.50001 2.598081 L 4.99999 3.464092 " transform="matrix(114.285714,0,0,-114.285714,57.142857,742.857143)"/>
<path style="fill:none;stroke-width:0.1;stroke-linecap:butt;stroke-linejoin:round;stroke:rgb(0%,0%,0%);stroke-opacity:1;stroke-miterlimit:10;" d="M 5.500005 2.598081 L 4.99999 3.464092 " transform="matrix(114.285714,0,0,-114.285714,57.142857,742.857143)"/>
<path style="fill:none;stroke-width:0.1;stroke-linecap:butt;stroke-linejoin:round;stroke:rgb(0%,0%,0%);stroke-opacity:1;stroke-miterlimit:10;" d="M 0.0000146484 3.464092 L 1.00001 3.464092 " transform="matrix(114.285714,0,0,-114.285714,57.142857,742.857143)"/>
<path style="fill:none;stroke-width:0.1;stroke-linecap:butt;stroke-linejoin:round;stroke:rgb(0%,0%,0%);stroke-opacity:1;stroke-miterlimit:10;" d="M 0.0000146484 3.464092 L 0.499995 4.330137 " transform="matrix(114.285714,0,0,-114.285714,57.142857,742.857143)"/>
<path style="fill:none;stroke-width:0.1;stroke-linecap:butt;stroke-linejoin:round;stroke:rgb(0%,0%,0%);stroke-opacity:1;stroke-miterlimit:10;" d="M 1.00001 3.464092 L 2.000005 3.464092 " transform="matrix(114.285714,0,0,-114.285714,57.142857,742.857143)"/>
<path style="fill:none;stroke-width:0.1;stroke-linecap:butt;stroke-linejoin:round;stroke:rgb(0%,0%,0%);stroke-opacity:1;stroke-miterlimit:10;" d="M 1.00001 3.464092 L 0.499995 4.330137 " transform="matrix(114.285714,0,0,-114.285714,57.142857,742.857143)"/>
<path style="fill:none;stroke-width:0.1;stroke-linecap:butt;stroke-linejoin:round;stroke:rgb(0%,0%,0%);stroke-opacity:1;stroke-miterlimit:10;" d="M 1.00001 3.464092 L 1.49999 4.330137 " transform="matrix(114.285714,0,0,-114.285714,57.142857,742.857143)"/>
<path style="fill:none;stroke-width:0.1;stroke-linecap:butt;stroke-linejoin:round;stroke:rgb(0%,0%,0%);stroke-opacity:1;stroke-miterlimit:10;" d="M 2.000005 3.464092 L 3 3.464092 " transform="matrix(114.285714,0,0,-114.285714,57.142857,742.857143)"/>
<path style="fill:none;stroke-width:0.1;stroke-linecap:butt;stroke-linejoin:round;stroke:rgb(0%,0%,0%);stroke-opacity:1;stroke-miterlimit:10;" d="M 2.000005 3.464092 L 1.49999 4.330137 " transform="matrix(114.285714,0,0,-114.285714,57.142857,742.857143)"/>
<path style="fill:none;stroke-width:0.1;stroke-linecap:butt;stroke-linejoin:round;stroke:rgb(0%,0%,0%);stroke-opacity:1;stroke-miterlimit:10;" d="M 2.000005 3.464092 L 2.499985 4.330137 " transform="matrix(114.285714,0,0,-114.285714,57.142857,742.857143)"/>
<path style="fill:none;stroke-width:0.1;stroke-linecap:butt;stroke-linejoin:round;stroke:rgb(0%,0%,0%);stroke-opacity:1;stroke-miterlimit:10;" d="M 3 3.464092 L 3.999995 3.464092 " transform="matrix(114.285714,0,0,-114.285714,57.142857,742.857143)"/>
<path style="fill:none;stroke-width:0.1;stroke-linecap:butt;stroke-linejoin:round;stroke:rgb(0%,0%,0%);stroke-opacity:1;stroke-miterlimit:10;" d="M 3 3.464092 L 2.499985 4.330137 " transform="matrix(114.285714,0,0,-114.285714,57.142857,742.857143)"/>
<path style="fill:none;stroke-width:0.1;stroke-linecap:butt;stroke-linejoin:round;stroke:rgb(0%,0%,0%);stroke-opacity:1;stroke-miterlimit:10;" d="M 3 3.464092 L 3.500015 4.330137 " transform="matrix(114.285714,0,0,-114.285714,57.142857,742.857143)"/>
<path style="fill:none;stroke-width:0.1;stroke-linecap:butt;stroke-linejoin:round;stroke:rgb(0%,0%,0%);stroke-opacity:1;stroke-miterlimit:10;" d="M 3.999995 3.464092 L 4.99999 3.464092 " transform="matrix(114.285714,0,0,-114.285714,57.142857,742.857143)"/>
<path style="fill:none;stroke-width:0.1;stroke-linecap:butt;stroke-linejoin:round;stroke:rgb(0%,0%,0%);stroke-opacity:1;stroke-miterlimit:10;" d="M 3.999995 3.464092 L 3.500015 4.330137 " transform="matrix(114.285714,0,0,-114.285714,57.142857,742.857143)"/>
<path style="fill:none;stroke-width:0.1;stroke-linecap:butt;stroke-linejoin:round;stroke:rgb(0%,0%,0%);stroke-opacity:1;stroke-miterlimit:10;" d="M 3.999995 3.464092 L 4.50001 4.330137 " transform="matrix(114.285714,0,0,-114.285714,57.142857,742.857143)"/>
<path style="fill:none;stroke-width:0.1;stroke-linecap:butt;stroke-linejoin:round;stroke:rgb(0%,0%,0%);stroke-opacity:1;stroke-miterlimit:10;" d="M 4.99999 3.464092 L 4.50001 4.330137 " transform="matrix(114.285714,0,0,-114.285714,57.142857,742.857143)"/>
<path style="fill:none;stroke-width:0.1;stroke-linecap:butt;stroke-linejoin:round;stroke:rgb(0%,0%,0%);stroke-opacity:1;stroke-miterlimit:10;" d="M 4.99999 3.464092 L 5.500005 4.330137 " transform="matrix(114.285714,0,0,-114.285714,57.142857,742.857143)"/>
<path style="fill:none;stroke-width:0.1;stroke-linecap:butt;stroke-linejoin:round;stroke:rgb(0%,0%,0%);stroke-opacity:1;stroke-miterlimit:10;" d="M 0.499995 4.330137 L 1.49999 4.330137 " transform="matrix(114.285714,0,0,-114.285714,57.142857,742.857143)"/>
<path style="fill:none;stroke-width:0.1;stroke-linecap:butt;stroke-linejoin:round;stroke:rgb(0%,0%,0%);stroke-opacity:1;stroke-miterlimit:10;" d="M 0.499995 4.330137 L 0.0000146484 5.196147 " transform="matrix(114.285714,0,0,-114.285714,57.142857,742.857143)"/>
<path style="fill:none;stroke-width:0.1;stroke-linecap:butt;stroke-linejoin:round;stroke:rgb(0%,0%,0%);stroke-opacity:1;stroke-miterlimit:10;" d="M 0.499995 4.330137 L 1.00001 5.196147 " transform="matrix(114.285714,0,0,-114.285714,57.142857,742.857143)"/>
<path style="fill:none;stroke-width:0.1;stroke-linecap:butt;stroke-linejoin:round;stroke:rgb(0%,0%,0%);stroke-opacity:1;stroke-miterlimit:10;" d="M 1.49999 4.330137 L 2.499985 4.330137 " transform="matrix(114.285714,0,0,-114.285714,57.142857,742.857143)"/>
<path style="fill:none;stroke-width:0.1;stroke-linecap:butt;stroke-linejoin:round;stroke:rgb(0%,0%,0%);stroke-opacity:1;stroke-miterlimit:10;" d="M 1.49999 4.330137 L 1.00001 5.196147 " transform="matrix(114.285714,0,0,-114.285714,57.142857,742.857143)"/>
<path style="fill:none;stroke-width:0.1;stroke-linecap:butt;stroke-linejoin:round;stroke:rgb(0%,0%,0%);stroke-opacity:1;stroke-miterlimit:10;" d="M 1.49999 4.330137 L 2.000005 5.196147 " transform="matrix(114.285714,0,0,-114.285714,57.142857,742.857143)"/>
<path style="fill:none;stroke-width:0.1;stroke-linecap:butt;stroke-linejoin:round;stroke:rgb(0%,0%,0%);stroke-opacity:1;stroke-miterlimit:10;" d="M 2.499985 4.330137 L 3.500015 4.330137 " transform="matrix(114.285714,0,0,-114.285714,57.142857,742.857143)"/>
<path style="fill:none;stroke-width:0.1;stroke-linecap:butt;stroke-linejoin:round;stroke:rgb(0%,0%,0%);stroke-opacity:1;stroke-miterlimit:10;" d="M 2.499985 4.330137 L 2.000005 5.196147 " transform="matrix(114.285714,0,0,-114.285714,57.142857,742.857143)"/>
<path style="fill:none;stroke-width:0.1;stroke-linecap:butt;stroke-linejoin:round;stroke:rgb(0%,0%,0%);stroke-opacity:1;stroke-miterlimit:10;" d="M 2.499985 4.330137 L 3 5.196147 " transform="matrix(114.285714,0,0,-114.285714,57.142857,742.857143)"/>
<path style="fill:none;stroke-width:0.1;stroke-linecap:butt;stroke-linejoin:round;stroke:rgb(0%,0%,0%);stroke-opacity:1;stroke-miterlimit:10;" d="M 3.500015 4.330137 L 4.50001 4.330137 " transform="matrix(114.285714,0,0,-114.285714,57.142857,742.857143)"/>
<path style="fill:none;stroke-width:0.1;stroke-linecap:butt;stroke-linejoin:round;stroke:rgb(0%,0%,0%);stroke-opacity:1;stroke-miterlimit:10;" d="M 3.500015 4.330137 L 3 5.196147 " transform="matrix(114.285714,0,0,-114.285714,57.142857,742.857143)"/>
<path style="fill:none;stroke-width:0.1;stroke-linecap:butt;stroke-linejoin:round;stroke:rgb(0%,0%,0%);stroke-opacity:1;stroke-miterlimit:10;" d="M 3.500015 4.330137 L 3.999995 5.196147 " transform="matrix(114.285714,0,0,-114.285714,57.142857,742.857143)"/>
<path style="fill:none;stroke-width:0.1;stroke-linecap:butt;stroke-linejoin:round;stroke:rgb(0%,0%,0%);stroke-opacity:1;stroke-miterlimit:10;" d="M 4.50001 4.330137 L 5.500005 4.330137 " transform="matrix(114.285714,0,0,-114.285714,57.142857,742.857143)"/>
<path style="fill:none;stroke-width:0.1;stroke-linecap:butt;stroke-linejoin:round;stroke:rgb(0%,0%,0%);stroke-opacity:1;stroke-miterlimit:10;" d="M 4.50001 4.330137 L 3.999995 5.196147 " transform="matrix(114.285714,0,0,-114.285714,57.142857,742.857143)"/>
<path style="fill:none;stroke-width:0.1;stroke-linecap:butt;stroke-linejoin:round;stroke:rgb(0%,0%,0%);stroke-opacity:1;stroke-miterlimit:10;" d="M 4.50001 4.330137 L 4.99999 5.196147 " transform="matrix(114.285714,0,0,-114.285714,57.142857,742.857143)"/>
<path style="fill:none;stroke-width:0.1;stroke-linecap:butt;stroke-linejoin:round;stroke:rgb(0%,0%,0%);stroke-opacity:1;stroke-miterlimit:10;" d="M 5.500005 4.330137 L 4.99999 5.196147 " transform="matrix(114.285714,0,0,-114.285714,57.142857,742.857143)"/>
<path style="fill:none;stroke-width:0.1;stroke-linecap:butt;stroke-linejoin:round;stroke:rgb(0%,0%,0%);stroke-opacity:1;stroke-miterlimit:10;" d="M 0.0000146484 5.196147 L 1.00001 5.196147 " transform="matrix(114.285714,0,0,-114.285714,57.142857,742.857143)"/>
<path style="fill:none;stroke-width:0.1;stroke-linecap:butt;stroke-linejoin:round;stroke:rgb(0%,0%,0%);stroke-opacity:1;stroke-miterlimit:10;" d="M 0.0000146484 5.196147 L 0.499995 6.062192 " transform="matrix(114.285714,0,0,-114.285714,57.142857,742.857143)"/>
<path style="fill:none;stroke-width:0.1;stroke-linecap:butt;stroke-linejoin:round;stroke:rgb(0%,0%,0%);stroke-opacity:1;stroke-miterlimit:10;" d="M 1.00001 5.196147 L 2.000005 5.196147 " transform="matrix(114.285714,0,0,-114.285714,57.142857,742.857143)"/>
<path style="fill:none;stroke-width:0.1;stroke-linecap:butt;stroke-linejoin:round;stroke:rgb(0%,0%,0%);stroke-opacity:1;stroke-miterlimit:10;" d="M 1.00001 5.196147 L 0.499995 6.062192 " transform="matrix(114.285714,0,0,-114.285714,57.142857,742.857143)"/>
<path style="fill:none;stroke-width:0.1;stroke-linecap:butt;stroke-linejoin:round;stroke:rgb(0%,0%,0%);stroke-opacity:1;stroke-miterlimit:10;" d="M 1.00001 5.196147 L 1.49999 6.062192 " transform="matrix(114.285714,0,0,-114.285714,57.142857,742.857143)"/>
<path style="fill:none;stroke-width:0.1;stroke-linecap:butt;stroke-linejoin:round;stroke:rgb(0%,0%,0%);stroke-opacity:1;stroke-miterlimit:10;" d="M 2.000005 5.196147 L 3 5.196147 " transform="matrix(114.285714,0,0,-114.285714,57.142857,742.857143)"/>
<path style="fill:none;stroke-width:0.1;stroke-linecap:butt;stroke-linejoin:round;stroke:rgb(0%,0%,0%);stroke-opacity:1;stroke-miterlimit:10;" d="M 2.000005 5.196147 L 1.49999 6.062192 " transform="matrix(114.285714,0,0,-114.285714,57.142857,742.857143)"/>
<path style="fill:none;stroke-width:0.1;stroke-linecap:butt;stroke-linejoin:round;stroke:rgb(0%,0%,0%);stroke-opacity:1;stroke-miterlimit:10;" d="M 2.000005 5.196147 L 2.499985 6.062192 " transform="matrix(114.285714,0,0,-114.285714,57.142857,742.857143)"/>
<path style="fill:none;stroke-width:0.1;stroke-linecap:butt;stroke-linejoin:round;stroke:rgb(0%,0%,0%);stroke-opacity:1;stroke-miterlimit:10;" d="M 3 5.196147 L 3.999995 5.196147 " transform="matrix(114.285714,0,0,-114.285714,57.142857,742.857143)"/>
<path style="fill:none;stroke-width:0.1;stroke-linecap:butt;stroke-linejoin:round;stroke:rgb(0%,0%,0%);stroke-opacity:1;stroke-miterlimit:10;" d="M 3 5.196147 L 2.499985 6.062192 " transform="matrix(114.285714,0,0,-114.285714,57.142857,742.857143)"/>
<path style="fill:none;stroke-width:0.1;stroke-linecap:butt;stroke-linejoin:round;stroke:rgb(0%,0%,0%);stroke-opacity:1;stroke-miterlimit:10;" d="M 3 5.196147 L 3.500015 6.062192 " transform="matrix(114.285714,0,0,-114.285714,57.142857,742.857143)"/>
<path style="fill:none;stroke-width:0.1;stroke-linecap:butt;stroke-linejoin:round;stroke:rgb(0%,0%,0%);stroke-opacity:1;stroke-miterlimit:10;" d="M 3.999995 5.196147 L 4.99999 5.196147 " transform="matrix(114.285714,0,0,-114.285714,57.142857,742.857143)"/>
<path style="fill:none;stroke-width:0.1;stroke-linecap:butt;stroke-linejoin:round;stroke:rgb(0%,0%,0%);stroke-opacity:1;stroke-miterlimit:10;" d="M 3.999995 5.196147 L 3.500015 6.062192 " transform="matrix(114.285714,0,0,-114.285714,57.142857,742.857143)"/>
<path style="fill:none;stroke-width:0.1;stroke-linecap:butt;stroke-linejoin:round;stroke:rgb(0%,0%,0%);stroke-opacity:1;stroke-miterlimit:10;" d="M 3.999995 5.196147 L 4.50001 6.062192 " transform="matrix(114.285714,0,0,-114.285714,57.142857,742.857143)"/>
<path style="fill:none;stroke-width:0.1;stroke-linecap:butt;stroke-linejoin:round;stroke:rgb(0%,0%,0%);stroke-opacity:1;stroke-miterlimit:10;" d="M 4.99999 5.196147 L 4.50001 6.062192 " transform="matrix(114.285714,0,0,-114.285714,57.142857,742.857143)"/>
<path style="fill:none;stroke-width:0.1;stroke-linecap:butt;stroke-linejoin:round;stroke:rgb(0%,0%,0%);stroke-opacity:1;stroke-miterlimit:10;" d="M 4.99999 5.196147 L 5.500005 6.062192 " transform="matrix(114.285714,0,0,-114.285714,57.142857,742.857143)"/>
<path style="fill:none;stroke-width:0.1;stroke-linecap:butt;stroke-linejoin:round;stroke:rgb(0%,0%,0%);stroke-opacity:1;stroke-miterlimit:10;" d="M 0.499995 6.062192 L 1.49999 6.062192 " transform="matrix(114.285714,0,0,-114.285714,57.142857,742.857143)"/>
<path style="fill:none;stroke-width:0.1;stroke-linecap:butt;stroke-linejoin:round;stroke:rgb(0%,0%,0%);stroke-opacity:1;stroke-miterlimit:10;" d="M 1.49999 6.062192 L 2.499985 6.062192 " transform="matrix(114.285714,0,0,-114.285714,57.142857,742.857143)"/>
<path style="fill:none;stroke-width:0.1;stroke-linecap:butt;stroke-linejoin:round;stroke:rgb(0%,0%,0%);stroke-opacity:1;stroke-miterlimit:10;" d="M 2.499985 6.062192 L 3.500015 6.062192 " transform="matrix(114.285714,0,0,-114.285714,57.142857,742.857143)"/>
<path style="fill:none;stroke-width:0.1;stroke-linecap:butt;stroke-linejoin:round;stroke:rgb(0%,0%,0%);stroke-opacity:1;stroke-miterlimit:10;" d="M 3.500015 6.062192 L 4.50001 6.062192 " transform="matrix(114.285714,0,0,-114.285714,57.142857,742.857143)"/>
<path style="fill:none;stroke-width:0.1;stroke-linecap:butt;stroke-linejoin:round;stroke:rgb(0%,0%,0%);stroke-opacity:1;stroke-miterlimit:10;" d="M 4.50001 6.062192 L 5.500005 6.062192 " transform="matrix(114.285714,0,0,-114.285714,57.142857,742.857143)"/>
<path style=" stroke:none;fill-rule:nonzero;fill:rgb(100%,0%,0%);fill-opacity:1;" d="M 125.714844 643.882812 C 125.714844 637.570312 120.597656 632.453125 114.285156 632.453125 C 107.972656 632.453125 102.855469 637.570312 102.855469 643.882812 C 102.855469 650.195312 107.972656 655.3125 114.285156 655.3125 C 120.597656 655.3125 125.714844 650.195312 125.714844 643.882812 "/>
<path style=" stroke:none;fill-rule:nonzero;fill:rgb(100%,0%,0%);fill-opacity:1;" d="M 240 643.882812 C 240 637.570312 234.882812 632.453125 228.570312 632.453125 C 222.257812 632.453125 217.144531 637.570312 217.144531 643.882812 C 217.144531 650.195312 222.257812 655.3125 228.570312 655.3125 C 234.882812 655.3125 240 650.195312 240 643.882812 "/>
<path style=" stroke:none;fill-rule:nonzero;fill:rgb(100%,0%,0%);fill-opacity:1;" d="M 354.285156 643.882812 C 354.285156 637.570312 349.167969 632.453125 342.855469 632.453125 C 336.546875 632.453125 331.429688 637.570312 331.429688 643.882812 C 331.429688 650.195312 336.546875 655.3125 342.855469 655.3125 C 349.167969 655.3125 354.285156 650.195312 354.285156 643.882812 "/>
<path style=" stroke:none;fill-rule:nonzero;fill:rgb(100%,0%,0%);fill-opacity:1;" d="M 468.570312 643.882812 C 468.570312 637.570312 463.453125 632.453125 457.144531 632.453125 C 450.832031 632.453125 445.714844 637.570312 445.714844 643.882812 C 445.714844 650.195312 450.832031 655.3125 457.144531 655.3125 C 463.453125 655.3125 468.570312 650.195312 468.570312 643.882812 "/>
<path style=" stroke:none;fill-rule:nonzero;fill:rgb(100%,0%,0%);fill-opacity:1;" d="M 582.855469 643.882812 C 582.855469 637.570312 577.742188 632.453125 571.429688 632.453125 C 565.117188 632.453125 560 637.570312 560 643.882812 C 560 650.195312 565.117188 655.3125 571.429688 655.3125 C 577.742188 655.3125 582.855469 650.195312 582.855469 643.882812 "/>
<path style=" stroke:none;fill-rule:nonzero;fill:rgb(100%,0%,0%);fill-opacity:1;" d="M 697.144531 643.882812 C 697.144531 637.570312 692.027344 632.453125 685.714844 632.453125 C 679.402344 632.453125 674.285156 637.570312 674.285156 643.882812 C 674.285156 650.195312 679.402344 655.3125 685.714844 655.3125 C 692.027344 655.3125 697.144531 650.195312 697.144531 643.882812 "/>
<path style=" stroke:none;fill-rule:nonzero;fill:rgb(100%,0%,0%);fill-opacity:1;" d="M 68.570312 544.910156 C 68.570312 538.597656 63.453125 533.480469 57.144531 533.480469 C 50.832031 533.480469 45.714844 538.597656 45.714844 544.910156 C 45.714844 551.21875 50.832031 556.335938 57.144531 556.335938 C 63.453125 556.335938 68.570312 551.21875 68.570312 544.910156 "/>
<path style=" stroke:none;fill-rule:nonzero;fill:rgb(100%,0%,0%);fill-opacity:1;" d="M 182.855469 544.910156 C 182.855469 538.597656 177.742188 533.480469 171.429688 533.480469 C 165.117188 533.480469 160 538.597656 160 544.910156 C 160 551.21875 165.117188 556.335938 171.429688 556.335938 C 177.742188 556.335938 182.855469 551.21875 182.855469 544.910156 "/>
<path style=" stroke:none;fill-rule:nonzero;fill:rgb(100%,0%,0%);fill-opacity:1;" d="M 297.144531 544.910156 C 297.144531 538.597656 292.027344 533.480469 285.714844 533.480469 C 279.402344 533.480469 274.285156 538.597656 274.285156 544.910156 C 274.285156 551.21875 279.402344 556.335938 285.714844 556.335938 C 292.027344 556.335938 297.144531 551.21875 297.144531 544.910156 "/>
<path style=" stroke:none;fill-rule:nonzero;fill:rgb(100%,0%,0%);fill-opacity:1;" d="M 411.429688 544.910156 C 411.429688 538.597656 406.3125 533.480469 400 533.480469 C 393.6875 533.480469 388.570312 538.597656 388.570312 544.910156 C 388.570312 551.21875 393.6875 556.335938 400 556.335938 C 406.3125 556.335938 411.429688 551.21875 411.429688 544.910156 "/>
<path style=" stroke:none;fill-rule:nonzero;fill:rgb(100%,0%,0%);fill-opacity:1;" d="M 525.714844 544.910156 C 525.714844 538.597656 520.597656 533.480469 514.285156 533.480469 C 507.972656 533.480469 502.855469 538.597656 502.855469 544.910156 C 502.855469 551.21875 507.972656 556.335938 514.285156 556.335938 C 520.597656 556.335938 525.714844 551.21875 525.714844 544.910156 "/>
<path style=" stroke:none;fill-rule:nonzero;fill:rgb(100%,0%,0%);fill-opacity:1;" d="M 640 544.910156 C 640 538.597656 634.882812 533.480469 628.570312 533.480469 C 622.257812 533.480469 617.144531 538.597656 617.144531 544.910156 C 617.144531 551.21875 622.257812 556.335938 628.570312 556.335938 C 634.882812 556.335938 640 551.21875 640 544.910156 "/>
<path style=" stroke:none;fill-rule:nonzero;fill:rgb(100%,0%,0%);fill-opacity:1;" d="M 125.714844 445.933594 C 125.714844 439.621094 120.597656 434.503906 114.285156 434.503906 C 107.972656 434.503906 102.855469 439.621094 102.855469 445.933594 C 102.855469 452.246094 107.972656 457.363281 114.285156 457.363281 C 120.597656 457.363281 125.714844 452.246094 125.714844 445.933594 "/>
<path style=" stroke:none;fill-rule:nonzero;fill:rgb(100%,0%,0%);fill-opacity:1;" d="M 240 445.933594 C 240 439.621094 234.882812 434.503906 228.570312 434.503906 C 222.257812 434.503906 217.144531 439.621094 217.144531 445.933594 C 217.144531 452.246094 222.257812 457.363281 228.570312 457.363281 C 234.882812 457.363281 240 452.246094 240 445.933594 "/>
<path style=" stroke:none;fill-rule:nonzero;fill:rgb(100%,0%,0%);fill-opacity:1;" d="M 354.285156 445.933594 C 354.285156 439.621094 349.167969 434.503906 342.855469 434.503906 C 336.546875 434.503906 331.429688 439.621094 331.429688 445.933594 C 331.429688 452.246094 336.546875 457.363281 342.855469 457.363281 C 349.167969 457.363281 354.285156 452.246094 354.285156 445.933594 "/>
<path style=" stroke:none;fill-rule:nonzero;fill:rgb(100%,0%,0%);fill-opacity:1;" d="M 468.570312 445.933594 C 468.570312 439.621094 463.453125 434.503906 457.144531 434.503906 C 450.832031 434.503906 445.714844 439.621094 445.714844 445.933594 C 445.714844 452.246094 450.832031 457.363281 457.144531 457.363281 C 463.453125 457.363281 468.570312 452.246094 468.570312 445.933594 "/>
<path style=" stroke:none;fill-rule:nonzero;fill:rgb(100%,0%,0%);fill-opacity:1;" d="M 582.855469 445.933594 C 582.855469 439.621094 577.742188 434.503906 571.429688 434.503906 C 565.117188 434.503906 560 439.621094 560 445.933594 C 560 452.246094 565.117188 457.363281 571.429688 457.363281 C 577.742188 457.363281 582.855469 452.246094 582.855469 445.933594 "/>
<path style=" stroke:none;fill-rule:nonzero;fill:rgb(100%,0%,0%);fill-opacity:1;" d="M 697.144531 445.933594 C 697.144531 439.621094 692.027344 434.503906 685.714844 434.503906 C 679.402344 434.503906 674.285156 439.621094 674.285156 445.933594 C 674.285156 452.246094 679.402344 457.363281 685.714844 457.363281 C 692.027344 457.363281 697.144531 452.246094 697.144531 445.933594 "/>
<path style=" stroke:none;fill-rule:nonzero;fill:rgb(100%,0%,0%);fill-opacity:1;" d="M 68.570312 346.960938 C 68.570312 340.648438 63.453125 335.53125 57.144531 335.53125 C 50.832031 335.53125 45.714844 340.648438 45.714844 346.960938 C 45.714844 353.273438 50.832031 358.386719 57.144531 358.386719 C 63.453125 358.386719 68.570312 353.273438 68.570312 346.960938 "/>
<path style=" stroke:none;fill-rule:nonzero;fill:rgb(100%,0%,0%);fill-opacity:1;" d="M 182.855469 346.960938 C 182.855469 340.648438 177.742188 335.53125 171.429688 335.53125 C 165.117188 335.53125 160 340.648438 160 346.960938 C 160 353.273438 165.117188 358.386719 171.429688 358.386719 C 177.742188 358.386719 182.855469 353.273438 182.855469 346.960938 "/>
<path style=" stroke:none;fill-rule:nonzero;fill:rgb(100%,0%,0%);fill-opacity:1;" d="M 297.144531 346.960938 C 297.144531 340.648438 292.027344 335.53125 285.714844 335.53125 C 279.402344 335.53125 274.285156 340.648438 274.285156 346.960938 C 274.285156 353.273438 279.402344 358.386719 285.714844 358.386719 C 292.027344 358.386719 297.144531 353.273438 297.144531 346.960938 "/>
<path style=" stroke:none;fill-rule:nonzero;fill:rgb(100%,0%,0%);fill-opacity:1;" d="M 411.429688 346.960938 C 411.429688 340.648438 406.3125 335.53125 400 335.53125 C 393.6875 335.53125 388.570312 340.648438 388.570312 346.960938 C 388.570312 353.273438 393.6875 358.386719 400 358.386719 C 406.3125 358.386719 411.429688 353.273438 411.429688 346.960938 "/>
<path style=" stroke:none;fill-rule:nonzero;fill:rgb(100%,0%,0%);fill-opacity:1;" d="M 525.714844 346.960938 C 525.714844 340.648438 520.597656 335.53125 514.285156 335.53125 C 507.972656 335.53125 502.855469 340.648438 502.855469 346.960938 C 502.855469 353.273438 507.972656 358.386719 514.285156 358.386719 C 520.597656 358.386719 525.714844 353.273438 525.714844 346.960938 "/>
<path style=" stroke:none;fill-rule:nonzero;fill:rgb(100%,0%,0%);fill-opacity:1;" d="M 640 346.960938 C 640 340.648438 634.882812 335.53125 628.570312 335.53125 C 622.257812 335.53125 617.144531 340.648438 617.144531 346.960938 C 617.144531 353.273438 622.257812 358.386719 628.570312 358.386719 C 634.882812 358.386719 640 353.273438 640 346.960938 "/>
<path style=" stroke:none;fill-rule:nonzero;fill:rgb(100%,0%,0%);fill-opacity:1;" d="M 125.714844 247.984375 C 125.714844 241.671875 120.597656 236.558594 114.285156 236.558594 C 107.972656 236.558594 102.855469 241.671875 102.855469 247.984375 C 102.855469 254.296875 107.972656 259.414062 114.285156 259.414062 C 120.597656 259.414062 125.714844 254.296875 125.714844 247.984375 "/>
<path style=" stroke:none;fill-rule:nonzero;fill:rgb(100%,0%,0%);fill-opacity:1;" d="M 240 247.984375 C 240 241.671875 234.882812 236.558594 228.570312 236.558594 C 222.257812 236.558594 217.144531 241.671875 217.144531 247.984375 C 217.144531 254.296875 222.257812 259.414062 228.570312 259.414062 C 234.882812 259.414062 240 254.296875 240 247.984375 "/>
<path style=" stroke:none;fill-rule:nonzero;fill:rgb(100%,0%,0%);fill-opacity:1;" d="M 354.285156 247.984375 C 354.285156 241.671875 349.167969 236.558594 342.855469 236.558594 C 336.546875 236.558594 331.429688 241.671875 331.429688 247.984375 C 331.429688 254.296875 336.546875 259.414062 342.855469 259.414062 C 349.167969 259.414062 354.285156 254.296875 354.285156 247.984375 "/>
<path style=" stroke:none;fill-rule:nonzero;fill:rgb(100%,0%,0%);fill-opacity:1;" d="M 468.570312 247.984375 C 468.570312 241.671875 463.453125 236.558594 457.144531 236.558594 C 450.832031 236.558594 445.714844 241.671875 445.714844 247.984375 C 445.714844 254.296875 450.832031 259.414062 457.144531 259.414062 C 463.453125 259.414062 468.570312 254.296875 468.570312 247.984375 "/>
<path style=" stroke:none;fill-rule:nonzero;fill:rgb(100%,0%,0%);fill-opacity:1;" d="M 582.855469 247.984375 C 582.855469 241.671875 577.742188 236.558594 571.429688 236.558594 C 565.117188 236.558594 560 241.671875 560 247.984375 C 560 254.296875 565.117188 259.414062 571.429688 259.414062 C 577.742188 259.414062 582.855469 254.296875 582.855469 247.984375 "/>
<path style=" stroke:none;fill-rule:nonzero;fill:rgb(100%,0%,0%);fill-opacity:1;" d="M 697.144531 247.984375 C 697.144531 241.671875 692.027344 236.558594 685.714844 236.558594 C 679.402344 236.558594 674.285156 241.671875 674.285156 247.984375 C 674.285156 254.296875 679.402344 259.414062 685.714844 259.414062 C 692.027344 259.414062 697.144531 254.296875 697.144531 247.984375 "/>
<path style=" stroke:none;fill-rule:nonzero;fill:rgb(100%,0%,0%);fill-opacity:1;" d="M 68.570312 149.011719 C 68.570312 142.699219 63.453125 137.582031 57.144531 137.582031 C 50.832031 137.582031 45.714844 142.699219 45.714844 149.011719 C 45.714844 155.324219 50.832031 160.441406 57.144531 160.441406 C 63.453125 160.441406 68.570312 155.324219 68.570312 149.011719 "/>
<path style=" stroke:none;fill-rule:nonzero;fill:rgb(100%,0%,0%);fill-opacity:1;" d="M 182.855469 149.011719 C 182.855469 142.699219 177.742188 137.582031 171.429688 137.582031 C 165.117188 137.582031 160 142.699219 160 149.011719 C 160 155.324219 165.117188 160.441406 171.429688 160.441406 C 177.742188 160.441406 182.855469 155.324219 182.855469 149.011719 "/>
<path style=" stroke:none;fill-rule:nonzero;fill:rgb(100%,0%,0%);fill-opacity:1;" d="M 297.144531 149.011719 C 297.144531 142.699219 292.027344 137.582031 285.714844 137.582031 C 279.402344 137.582031 274.285156 142.699219 274.285156 149.011719 C 274.285156 155.324219 279.402344 160.441406 285.714844 160.441406 C 292.027344 160.441406 297.144531 155.324219 297.144531 149.011719 "/>
<path style=" stroke:none;fill-rule:nonzero;fill:rgb(100%,0%,0%);fill-opacity:1;" d="M 411.429688 149.011719 C 411.429688 142.699219 406.3125 137.582031 400 137.582031 C 393.6875 137.582031 388.570312 142.699219 388.570312 149.011719 C 388.570312 155.324219 393.6875 160.441406 400 160.441406 C 406.3125 160.441406 411.429688 155.324219 411.429688 149.011719 "/>
<path style=" stroke:none;fill-rule:nonzero;fill:rgb(100%,0%,0%);fill-opacity:1;" d="M 525.714844 149.011719 C 525.714844 142.699219 520.597656 137.582031 514.285156 137.582031 C 507.972656 137.582031 502.855469 142.699219 502.855469 149.011719 C 502.855469 155.324219 507.972656 160.441406 514.285156 160.441406 C 520.597656 160.441406 525.714844 155.324219 525.714844 149.011719 "/>
<path style=" stroke:none;fill-rule:nonzero;fill:rgb(100%,0%,0%);fill-opacity:1;" d="M 640 149.011719 C 640 142.699219 634.882812 137.582031 628.570312 137.582031 C 622.257812 137.582031 617.144531 142.699219 617.144531 149.011719 C 617.144531 155.324219 622.257812 160.441406 628.570312 160.441406 C 634.882812 160.441406 640 155.324219 640 149.011719 "/>
<path style=" stroke:none;fill-rule:nonzero;fill:rgb(100%,0%,0%);fill-opacity:1;" d="M 125.714844 50.035156 C 125.714844 43.726562 120.597656 38.609375 114.285156 38.609375 C 107.972656 38.609375 102.855469 43.726562 102.855469 50.035156 C 102.855469 56.347656 107.972656 61.464844 114.285156 61.464844 C 120.597656 61.464844 125.714844 56.347656 125.714844 50.035156 "/>
<path style=" stroke:none;fill-rule:nonzero;fill:rgb(100%,0%,0%);fill-opacity:1;" d="M 240 50.035156 C 240 43.726562 234.882812 38.609375 228.570312 38.609375 C 222.257812 38.609375 217.144531 43.726562 217.144531 50.035156 C 217.144531 56.347656 222.257812 61.464844 228.570312 61.464844 C 234.882812 61.464844 240 56.347656 240 50.035156 "/>
<path style=" stroke:none;fill-rule:nonzero;fill:rgb(100%,0%,0%);fill-opacity:1;" d="M 354.285156 50.035156 C 354.285156 43.726562 349.167969 38.609375 342.855469 38.609375 C 336.546875 38.609375 331.429688 43.726562 331.429688 50.035156 C 331.429688 56.347656 336.546875 61.464844 342.855469 61.464844 C 349.167969 61.464844 354.285156 56.347656 354.285156 50.035156 "/>
<path style=" stroke:none;fill-rule:nonzero;fill:rgb(100%,0%,0%);fill-opacity:1;" d="M 468.570312 50.035156 C 468.570312 43.726562 463.453125 38.609375 457.144531 38.609375 C 450.832031 38.609375 445.714844 43.726562 445.714844 50.035156 C 445.714844 56.347656 450.832031 61.464844 457.144531 61.464844 C 463.453125 61.464844 468.570312 56.347656 468.570312 50.035156 "/>
<path style=" stroke:none;fill-rule:nonzero;fill:rgb(100%,0%,0%);fill-opacity:1;" d="M 582.855469 50.035156 C 582.855469 43.726562 577.742188 38.609375 571.429688 38.609375 C 565.117188 38.609375 560 43.726562 560 50.035156 C 560 56.347656 565.117188 61.464844 571.429688 61.464844 C 577.742188 61.464844 582.855469 56.347656 582.855469 50.035156 "/>
<path style=" stroke:none;fill-rule:nonzero;fill:rgb(100%,0%,0%);fill-opacity:1;" d="M 697.144531 50.035156 C 697.144531 43.726562 692.027344 38.609375 685.714844 38.609375 C 679.402344 38.609375 674.285156 43.726562 674.285156 50.035156 C 674.285156 56.347656 679.402344 61.464844 685.714844 61.464844 C 692.027344 61.464844 697.144531 56.347656 697.144531 50.035156 "/>
<path style=" stroke:none;fill-rule:nonzero;fill:rgb(0%,0%,0%);fill-opacity:1;" d="M 971.429688 346.960938 C 990.441406 356.636719 953.050781 401.199219 914.285156 445.933594 C 875.519531 490.667969 835.375 535.574219 857.144531 544.910156 C 878.910156 554.242188 962.59375 528.003906 971.429688 544.910156 C 980.261719 561.8125 914.25 621.867188 914.285156 643.882812 C 914.320312 665.898438 980.402344 649.882812 1028.570312 643.882812 C 1076.742188 637.882812 1106.996094 641.898438 1142.855469 643.882812 C 1178.71875 645.867188 1220.183594 645.816406 1257.144531 643.882812 C 1294.105469 641.949219 1326.5625 638.136719 1371.429688 643.882812 C 1416.296875 649.628906 1473.574219 664.933594 1485.714844 643.882812 C 1497.851562 622.832031 1464.851562 565.421875 1428.570312 544.910156 C 1392.292969 524.394531 1352.730469 540.773438 1314.285156 544.910156 C 1275.839844 549.046875 1238.503906 540.941406 1200 544.910156 C 1161.496094 548.875 1121.816406 564.917969 1085.714844 544.910156 C 1049.613281 524.898438 1017.085938 468.839844 1028.570312 445.933594 C 1040.058594 423.027344 1095.558594 433.273438 1142.855469 445.933594 C 1190.15625 458.597656 1229.257812 473.675781 1257.144531 445.933594 C 1285.027344 418.195312 1301.695312 347.632812 1314.285156 346.960938 C 1326.875 346.285156 1335.382812 415.5 1371.429688 445.933594 C 1407.472656 476.371094 1471.050781 468.03125 1485.714844 445.933594 C 1500.378906 423.839844 1466.125 387.984375 1428.570312 346.960938 C 1391.015625 305.933594 1350.15625 259.734375 1371.429688 247.984375 C 1392.699219 236.238281 1476.097656 258.941406 1485.714844 247.984375 C 1495.328125 237.027344 1431.160156 192.410156 1428.570312 149.011719 C 1425.984375 105.609375 1484.976562 63.425781 1485.714844 50.035156 C 1486.453125 36.648438 1428.941406 52.050781 1371.429688 50.035156 C 1313.917969 48.023438 1256.40625 28.597656 1257.144531 50.035156 C 1257.878906 71.476562 1316.867188 133.785156 1314.285156 149.011719 C 1311.703125 164.234375 1247.554688 132.375 1200 149.011719 C 1152.445312 165.648438 1121.492188 230.78125 1142.855469 247.984375 C 1164.222656 265.191406 1237.910156 234.46875 1257.144531 247.984375 C 1276.375 261.5 1241.148438 319.25 1200 346.960938 C 1158.851562 374.667969 1111.78125 372.332031 1085.714844 346.960938 C 1059.648438 321.585938 1054.582031 273.175781 1028.570312 247.984375 C 1002.5625 222.796875 955.605469 220.828125 914.285156 247.984375 C 872.964844 275.144531 837.28125 331.425781 857.144531 346.960938 C 877.003906 362.496094 952.417969 337.285156 971.429688 346.960938 "/>
<path style=" stroke:none;fill-rule:nonzero;fill:rgb(0%,0%,0%);fill-opacity:1;" d="M 1028.570312 50.035156 C 982.855469 50.035156 948.570312 30.242188 914.285156 50.035156 C 880 69.832031 845.714844 129.214844 857.144531 149.011719 C 868.570312 168.804688 925.714844 149.011719 971.429688 149.011719 C 1017.144531 149.011719 1051.429688 168.804688 1085.714844 149.011719 C 1120 129.214844 1154.285156 69.832031 1142.855469 50.035156 C 1131.429688 30.242188 1074.285156 50.035156 1028.570312 50.035156 "/>
</g>
</svg>
