<?xml version="1.0" encoding="UTF-8"?>
<svg xmlns="http://www.w3.org/2000/svg" xmlns:xlink="http://www.w3.org/1999/xlink" width="1600pt" height="800pt" viewBox="0 0 1600 800" version="1.1">
<g id="surface16">
<path style=" stroke:none;fill-rule:nonzero;fill:rgb(100%,100%,100%);fill-opacity:1;" d="M 0 800 L 1527.273438 800 L 1527.273438 0 L 0 0 Z M 0 800 "/>
<path style="fill:none;stroke-width:0.1;stroke-linecap:butt;stroke-linejoin:round;stroke:rgb(0%,0%,0%);stroke-opacity:1;stroke-miterlimit:10;" d="M 6.999976 3.000015 L 5.999985 4.000005 L 5.999985 4.999995 L 4.999995 5.999985 L 4.000005 5.999985 L 4.999995 4.999995 L 4.000005 4.000005 L 4.999995 4.000005 L 4.000005 4.999995 L 3.000015 4.000005 L 3.000015 4.999995 L 2.000024 5.999985 L 2.000024 4.999995 L 0.99998 5.999985 L -0.00000976563 5.999985 L 0.99998 4.999995 L -0.00000976563 4.000005 L -0.00000976563 4.999995 L 0.99998 4.000005 L 2.000024 4.000005 L 0.99998 3.000015 L 2.000024 2.000024 L 2.000024 3.000015 L 3.000015 2.000024 L 4.000005 3.000015 L 3.000015 3.000015 L 4.000005 2.000024 L 4.999995 2.000024 L 5.999985 0.99998 L 5.999985 -0.00000976562 L 4.000005 -0.00000976562 L 4.999995 0.99998 L 5.999985 2.000024 L 4.999995 3.000015 L 5.999985 3.000015 L 6.999976 2.000024 Z M 6.999976 3.000015 " transform="matrix(72.727273,0,0,-72.727273,72.727273,727.272727)"/>
<path style="fill:none;stroke-width:0.1;stroke-linecap:butt;stroke-linejoin:round;stroke:rgb(0%,0%,0%);stroke-opacity:1;stroke-miterlimit:10;" d="M 5.999985 9.00001 L 4.999995 9.00001 L 4.000005 8.00002 L 4.999995 6.999976 L 3.000015 6.999976 L 3.000015 5.999985 L 2.000024 6.999976 L 3.000015 8.00002 L 2.000024 9.00001 L 4.000005 9.00001 L 4.999995 8.00002 L 5.999985 6.999976 L 6.999976 8.00002 L 5.999985 8.00002 L 6.999976 9.00001 Z M 5.999985 9.00001 " transform="matrix(72.727273,0,0,-72.727273,72.727273,727.272727)"/>
<path style="fill:none;stroke-width:0.1;stroke-linecap:butt;stroke-linejoin:round;stroke:rgb(0%,0%,0%);stroke-opacity:1;stroke-miterlimit:10;" d="M -0.00000976563 6.999976 L 0.99998 6.999976 L 2.000024 8.00002 L 0.99998 9.00001 L 0.99998 8.00002 L -0.00000976563 9.00001 Z M -0.00000976563 6.999976 " transform="matrix(72.727273,0,0,-72.727273,72.727273,727.272727)"/>
<path style="fill:none;stroke-width:0.1;stroke-linecap:butt;stroke-linejoin:round;stroke:rgb(0%,0%,0%);stroke-opacity:1;stroke-miterlimit:10;" d="M 8.00002 4.999995 L 9.00001 4.999995 L 9.00001 2.000024 L 8.00002 0.99998 L 9.00001 -0.00000976562 L 9.00001 0.99998 L 8.00002 -0.00000976562 L 6.999976 -0.00000976562 L 6.999976 0.99998 L 8.00002 2.000024 L 8.00002 4.000005 L 6.999976 4.000005 L 6.999976 4.999995 L 8.00002 5.999985 L 9.00001 6.999976 L 8.00002 6.999976 L 9.00001 5.999985 Z M 8.00002 4.999995 " transform="matrix(72.727273,0,0,-72.727273,72.727273,727.272727)"/>
<path style="fill:none;stroke-width:0.1;stroke-linecap:butt;stroke-linejoin:round;stroke:rgb(0%,0%,0%);stroke-opacity:1;stroke-miterlimit:10;" d="M 6.999976 5.999985 L 5.999985 5.999985 L 6.999976 6.999976 Z M 6.999976 5.999985 " transform="matrix(72.727273,0,0,-72.727273,72.727273,727.272727)"/>
<path style="fill:none;stroke-width:0.1;stroke-linecap:butt;stroke-linejoin:round;stroke:rgb(0%,0%,0%);stroke-opacity:1;stroke-miterlimit:10;" d="M 0.99998 0.99998 L -0.00000976563 -0.00000976562 L -0.00000976563 0.99998 L 0.99998 -0.00000976562 L 2.000024 0.99998 Z M 0.99998 0.99998 " transform="matrix(72.727273,0,0,-72.727273,72.727273,727.272727)"/>
<path style="fill:none;stroke-width:0.1;stroke-linecap:butt;stroke-linejoin:round;stroke:rgb(0%,0%,0%);stroke-opacity:1;stroke-miterlimit:10;" d="M 3.000015 0.99998 L 2.000024 -0.00000976562 L 3.000015 -0.00000976562 L 4.000005 0.99998 Z M 3.000015 0.99998 " transform="matrix(72.727273,0,0,-72.727273,72.727273,727.272727)"/>
<path style="fill:none;stroke-width:0.1;stroke-linecap:butt;stroke-linejoin:round;stroke:rgb(0%,0%,0%);stroke-opacity:1;stroke-miterlimit:10;" d="M 9.00001 9.00001 L 8.00002 8.00002 L 8.00002 9.00001 L 9.00001 8.00002 Z M 9.00001 9.00001 " transform="matrix(72.727273,0,0,-72.727273,72.727273,727.272727)"/>
<path style="fill:none;stroke-width:0.1;stroke-linecap:butt;stroke-linejoin:round;stroke:rgb(0%,0%,0%);stroke-opacity:1;stroke-miterlimit:10;" d="M -0.00000976563 2.000024 L 0.99998 2.000024 L -0.00000976563 3.000015 Z M -0.00000976563 2.000024 " transform="matrix(72.727273,0,0,-72.727273,72.727273,727.272727)"/>
<path style=" stroke:none;fill-rule:nonzero;fill:rgb(0%,0%,0%);fill-opacity:1;" d="M 1309.089844 509.089844 L 1236.363281 436.363281 L 1236.363281 363.636719 L 1163.636719 290.910156 L 1090.910156 290.910156 L 1163.636719 363.636719 L 1090.910156 436.363281 L 1163.636719 436.363281 L 1090.910156 363.636719 L 1018.183594 436.363281 L 1018.183594 363.636719 L 945.453125 290.910156 L 945.453125 363.636719 L 872.726562 290.910156 L 800 290.910156 L 872.726562 363.636719 L 800 436.363281 L 800 363.636719 L 872.726562 436.363281 L 945.453125 436.363281 L 872.726562 509.089844 L 945.453125 581.816406 L 945.453125 509.089844 L 1018.183594 581.816406 L 1090.910156 509.089844 L 1018.183594 509.089844 L 1090.910156 581.816406 L 1163.636719 581.816406 L 1236.363281 654.546875 L 1236.363281 727.273438 L 1090.910156 727.273438 L 1163.636719 654.546875 L 1236.363281 581.816406 L 1163.636719 509.089844 L 1236.363281 509.089844 L 1309.089844 581.816406 Z M 1309.089844 509.089844 "/>
<path style=" stroke:none;fill-rule:nonzero;fill:rgb(0%,0%,0%);fill-opacity:1;" d="M 1236.363281 72.726562 L 1163.636719 72.726562 L 1090.910156 145.453125 L 1163.636719 218.183594 L 1018.183594 218.183594 L 1018.183594 290.910156 L 945.453125 218.183594 L 1018.183594 145.453125 L 945.453125 72.726562 L 1090.910156 72.726562 L 1163.636719 145.453125 L 1236.363281 218.183594 L 1309.089844 145.453125 L 1236.363281 145.453125 L 1309.089844 72.726562 Z M 1236.363281 72.726562 "/>
<path style=" stroke:none;fill-rule:nonzero;fill:rgb(0%,0%,0%);fill-opacity:1;" d="M 800 218.183594 L 872.726562 218.183594 L 945.453125 145.453125 L 872.726562 72.726562 L 872.726562 145.453125 L 800 72.726562 Z M 800 218.183594 "/>
<path style=" stroke:none;fill-rule:nonzero;fill:rgb(0%,0%,0%);fill-opacity:1;" d="M 1381.816406 363.636719 L 1454.546875 363.636719 L 1454.546875 581.816406 L 1381.816406 654.546875 L 1454.546875 727.273438 L 1454.546875 654.546875 L 1381.816406 727.273438 L 1309.089844 727.273438 L 1309.089844 654.546875 L 1381.816406 581.816406 L 1381.816406 436.363281 L 1309.089844 436.363281 L 1309.089844 363.636719 L 1381.816406 290.910156 L 1454.546875 218.183594 L 1381.816406 218.183594 L 1454.546875 290.910156 Z M 1381.816406 363.636719 "/>
<path style=" stroke:none;fill-rule:nonzero;fill:rgb(0%,0%,0%);fill-opacity:1;" d="M 1309.089844 290.910156 L 1236.363281 290.910156 L 1309.089844 218.183594 Z M 1309.089844 290.910156 "/>
<path style=" stroke:none;fill-rule:nonzero;fill:rgb(0%,0%,0%);fill-opacity:1;" d="M 872.726562 654.546875 L 800 727.273438 L 800 654.546875 L 872.726562 727.273438 L 945.453125 654.546875 Z M 872.726562 654.546875 "/>
<path style=" stroke:none;fill-rule:nonzero;fill:rgb(0%,0%,0%);fill-opacity:1;" d="M 1018.183594 654.546875 L 945.453125 727.273438 L 1018.183594 727.273438 L 1090.910156 654.546875 Z M 1018.183594 654.546875 "/>
<path style=" stroke:none;fill-rule:nonzero;fill:rgb(0%,0%,0%);fill-opacity:1;" d="M 1454.546875 72.726562 L 1381.816406 145.453125 L 1381.816406 72.726562 L 1454.546875 145.453125 Z M 1454.546875 72.726562 "/>
<path style=" stroke:none;fill-rule:nonzero;fill:rgb(0%,0%,0%);fill-opacity:1;" d="M 800 581.816406 L 872.726562 581.816406 L 800 509.089844 Z M 800 581.816406 "/>
</g>
</svg>
