<?xml version="1.0" encoding="UTF-8"?>
<svg xmlns="http://www.w3.org/2000/svg" xmlns:xlink="http://www.w3.org/1999/xlink" width="1600pt" height="800pt" viewBox="0 0 1600 800" version="1.1">
<g id="surface26">
<path style=" stroke:none;fill-rule:nonzero;fill:rgb(100%,100%,100%);fill-opacity:1;" d="M 0 800 L 1527.273438 800 L 1527.273438 0 L 0 0 Z M 0 800 "/>
<path style="fill:none;stroke-width:0.05;stroke-linecap:butt;stroke-linejoin:round;stroke:rgb(0%,0%,0%);stroke-opacity:1;stroke-miterlimit:10;" d="M 6.999976 3.000015 C 6.74125 3.43373 6.163643 3.701802 5.999985 4.000005 C 5.836382 4.298208 6.086782 4.626436 5.999985 4.999995 C 5.913242 5.373555 5.489355 5.792339 4.999995 5.999985 C 4.510635 6.207686 3.955854 6.204194 4.000005 5.999985 C 4.044155 5.79583 4.68729 5.390903 4.999995 4.999995 C 5.312754 4.609141 5.295083 4.232305 4.999995 4.000005 C 4.704907 3.767705 4.132349 3.679995 4.000005 4.000005 C 3.867607 4.320015 4.175425 5.04769 4.000005 4.999995 C 3.824585 4.9523 3.165981 4.129126 3.000015 4.000005 C 2.834048 3.870884 3.160718 4.435762 3.000015 4.999995 C 2.839258 5.564282 2.191128 6.127925 2.000024 5.999985 C 1.808867 5.8721 2.074683 5.052578 2.000024 4.999995 C 1.925312 4.947412 1.510073 5.66166 0.99998 5.999985 C 0.489941 6.338311 -0.115005 6.300713 -0.00000976563 5.999985 C 0.115039 5.699258 0.950029 5.135454 0.99998 4.999995 C 1.049985 4.864536 0.314951 5.157476 -0.00000976563 4.999995 C -0.314971 4.842568 -0.209858 4.234722 -0.00000976563 4.000005 C 0.209839 3.765288 0.52437 3.903647 0.99998 4.000005 C 1.475591 4.096309 2.11228 4.15061 2.000024 4.000005 C 1.887715 3.849399 1.026567 3.493887 0.99998 3.000015 C 0.973447 2.506143 1.781528 1.873911 2.000024 2.000024 C 2.218467 2.126138 1.847378 3.010596 2.000024 3.000015 C 2.152617 2.989434 2.828945 2.08376 3.000015 2.000024 C 3.17103 1.916235 2.836787 2.654277 3.000015 3.000015 C 3.163188 3.345698 3.823833 3.299023 4.000005 3.000015 C 4.176177 2.700952 3.867876 2.149556 4.000005 2.000024 C 4.132134 1.850439 4.704692 2.10272 4.999995 2.000024 C 5.295352 1.897275 5.313452 1.439604 4.999995 0.99998 C 4.686538 0.56041 4.041577 0.13894 4.000005 -0.00000976562 C 3.958433 -0.138906 4.520195 0.0047168 4.999995 -0.00000976562 C 5.479795 -0.00468262 5.877524 -0.157705 5.999985 -0.00000976562 C 6.122446 0.157686 5.969639 0.626152 5.999985 0.99998 C 6.030332 1.373862 6.243833 1.653105 5.999985 2.000024 C 5.756191 2.34689 5.055049 2.761377 4.999995 3.000015 C 4.944941 3.238652 5.535923 3.301387 5.999985 3.000015 C 6.464102 2.698589 6.801353 2.03311 6.999976 2.000024 C 7.198652 1.966938 7.258755 2.566299 6.999976 3.000015 " transform="matrix(72.727273,0,0,-72.727273,72.727273,727.272727)"/>
<path style="fill:none;stroke-width:0.05;stroke-linecap:butt;stroke-linejoin:round;stroke:rgb(0%,0%,0%);stroke-opacity:1;stroke-miterlimit:10;" d="M 5.999985 9.00001 C 5.512183 8.975625 5.170742 9.121934 4.999995 9.00001 C 4.829248 8.878032 4.829248 8.487822 4.999995 8.00002 C 5.170742 7.512217 5.512183 6.926821 5.999985 6.999976 C 6.487788 7.073184 7.121953 7.804888 6.999976 8.00002 C 6.878052 8.195098 5.999985 7.853657 5.999985 8.00002 C 5.999985 8.146328 6.878052 8.780493 6.999976 9.00001 C 7.121953 9.219526 6.487788 9.024395 5.999985 9.00001 " transform="matrix(72.727273,0,0,-72.727273,72.727273,727.272727)"/>
<path style="fill:none;stroke-width:0.05;stroke-linecap:butt;stroke-linejoin:round;stroke:rgb(0%,0%,0%);stroke-opacity:1;stroke-miterlimit:10;" d="M -0.00000976563 6.999976 C 0.121968 6.829282 0.512178 6.829282 0.99998 6.999976 C 1.487783 7.170723 2.073179 7.512217 2.000024 8.00002 C 1.926816 8.487822 1.195112 9.121934 0.99998 9.00001 C 0.804902 8.878032 1.146343 8.00002 0.99998 8.00002 C 0.853672 8.00002 0.219507 8.878032 -0.00000976563 9.00001 C -0.219526 9.121934 -0.0243945 8.487822 -0.00000976563 8.00002 C 0.024375 7.512217 -0.121934 7.170723 -0.00000976563 6.999976 " transform="matrix(72.727273,0,0,-72.727273,72.727273,727.272727)"/>
<path style="fill:none;stroke-width:0.05;stroke-linecap:butt;stroke-linejoin:round;stroke:rgb(0%,0%,0%);stroke-opacity:1;stroke-miterlimit:10;" d="M 3.000015 6.999976 C 2.937817 6.732065 3.248804 6.038281 3.000015 5.999985 C 2.751172 5.961743 1.942607 6.578936 2.000024 6.999976 C 2.057441 7.421069 2.98084 7.645957 3.000015 8.00002 C 3.019136 8.354082 2.133979 8.837319 2.000024 9.00001 C 1.866016 9.1627 2.483262 9.00479 3.000015 9.00001 C 3.516768 8.995229 3.933027 9.143525 4.000005 9.00001 C 4.066982 8.85644 3.784678 8.42106 4.000005 8.00002 C 4.215332 7.578926 4.928237 7.172227 4.999995 6.999976 C 5.071753 6.827725 4.502417 6.889976 4.000005 6.999976 C 3.497593 7.110029 3.062212 7.267939 3.000015 6.999976 " transform="matrix(72.727273,0,0,-72.727273,72.727273,727.272727)"/>
<path style="fill:none;stroke-width:0.05;stroke-linecap:butt;stroke-linejoin:round;stroke:rgb(0%,0%,0%);stroke-opacity:1;stroke-miterlimit:10;" d="M 8.00002 4.999995 C 8.01479 4.886343 8.731294 5.123154 9.00001 4.999995 C 9.268726 4.876836 9.089653 4.393652 9.00001 4.000005 C 8.910366 3.606357 8.910098 3.302246 9.00001 3.000015 C 9.089922 2.697783 9.269961 2.397432 9.00001 2.000024 C 8.730059 1.602563 8.010063 1.108101 8.00002 0.99998 C 7.989976 0.891914 8.689829 1.170137 9.00001 0.99998 C 9.310137 0.829878 9.230537 0.211343 9.00001 -0.00000976562 C 8.769482 -0.211309 8.387974 -0.0154248 8.00002 -0.00000976562 C 7.612012 0.015459 7.217505 -0.149541 6.999976 -0.00000976562 C 6.7825 0.149521 6.742109 0.613638 6.999976 0.99998 C 7.257896 1.386377 7.81418 1.695 8.00002 2.000024 C 8.185859 2.304995 8.001255 2.606367 8.00002 3.000015 C 7.99873 3.393662 8.180811 3.879585 8.00002 4.000005 C 7.819175 4.120425 7.275513 3.875288 6.999976 4.000005 C 6.724492 4.124668 6.717241 4.619185 6.999976 4.999995 C 7.282764 5.380859 7.855591 5.648018 8.00002 5.999985 C 8.144395 6.351953 7.860371 6.788677 8.00002 6.999976 C 8.139614 7.211328 8.702935 7.197256 9.00001 6.999976 C 9.297085 6.802749 9.327969 6.422261 9.00001 5.999985 C 8.672051 5.57771 7.985195 5.113647 8.00002 4.999995 " transform="matrix(72.727273,0,0,-72.727273,72.727273,727.272727)"/>
<path style="fill:none;stroke-width:0.05;stroke-linecap:butt;stroke-linejoin:round;stroke:rgb(0%,0%,0%);stroke-opacity:1;stroke-miterlimit:10;" d="M 6.999976 5.999985 C 6.666646 5.666655 5.999985 5.666655 5.999985 5.999985 C 5.999985 6.333315 6.666646 6.999976 6.999976 6.999976 C 7.333359 6.999976 7.333359 6.333315 6.999976 5.999985 " transform="matrix(72.727273,0,0,-72.727273,72.727273,727.272727)"/>
<path style="fill:none;stroke-width:0.05;stroke-linecap:butt;stroke-linejoin:round;stroke:rgb(0%,0%,0%);stroke-opacity:1;stroke-miterlimit:10;" d="M 0.99998 0.99998 C 1.454536 0.99998 2.000024 1.181792 2.000024 0.99998 C 2.000024 0.818169 1.454536 0.272734 0.99998 -0.00000976562 C 0.545479 -0.272754 0.181802 -0.272754 -0.00000976563 -0.00000976562 C -0.181821 0.272734 -0.181821 0.818169 -0.00000976563 0.99998 C 0.181802 1.181792 0.545479 0.99998 0.99998 0.99998 " transform="matrix(72.727273,0,0,-72.727273,72.727273,727.272727)"/>
<path style="fill:none;stroke-width:0.05;stroke-linecap:butt;stroke-linejoin:round;stroke:rgb(0%,0%,0%);stroke-opacity:1;stroke-miterlimit:10;" d="M 3.000015 0.99998 C 2.50002 0.75001 2.000024 0.250015 2.000024 -0.00000976562 C 2.000024 -0.24998 2.50002 -0.24998 3.000015 -0.00000976562 C 3.50001 0.250015 4.000005 0.75001 4.000005 0.99998 C 4.000005 1.250005 3.50001 1.250005 3.000015 0.99998 " transform="matrix(72.727273,0,0,-72.727273,72.727273,727.272727)"/>
<path style="fill:none;stroke-width:0.05;stroke-linecap:butt;stroke-linejoin:round;stroke:rgb(0%,0%,0%);stroke-opacity:1;stroke-miterlimit:10;" d="M 9.00001 9.00001 C 9.24998 8.749985 9.24998 8.24999 9.00001 8.00002 C 8.749985 7.749995 8.24999 7.749995 8.00002 8.00002 C 7.749995 8.24999 7.749995 8.749985 8.00002 9.00001 C 8.24999 9.24998 8.749985 9.24998 9.00001 9.00001 " transform="matrix(72.727273,0,0,-72.727273,72.727273,727.272727)"/>
<path style="fill:none;stroke-width:0.05;stroke-linecap:butt;stroke-linejoin:round;stroke:rgb(0%,0%,0%);stroke-opacity:1;stroke-miterlimit:10;" d="M -0.00000976563 2.000024 C 0.33332 1.666641 0.99998 1.666641 0.99998 2.000024 C 0.99998 2.333354 0.33332 3.000015 -0.00000976563 3.000015 C -0.33334 3.000015 -0.33334 2.333354 -0.00000976563 2.000024 " transform="matrix(72.727273,0,0,-72.727273,72.727273,727.272727)"/>
<path style=" stroke:none;fill-rule:nonzero;fill:rgb(0%,0%,0%);fill-opacity:1;" d="M 1309.089844 509.089844 C 1290.273438 477.546875 1248.261719 458.050781 1236.363281 436.363281 C 1224.464844 414.675781 1242.671875 390.804688 1236.363281 363.636719 C 1230.054688 336.46875 1199.226562 306.011719 1163.636719 290.910156 C 1128.046875 275.804688 1087.699219 276.058594 1090.910156 290.910156 C 1094.121094 305.757812 1140.890625 335.207031 1163.636719 363.636719 C 1186.378906 392.0625 1185.097656 419.46875 1163.636719 436.363281 C 1142.175781 453.257812 1100.535156 459.636719 1090.910156 436.363281 C 1081.28125 413.089844 1103.667969 360.167969 1090.910156 363.636719 C 1078.152344 367.105469 1030.253906 426.972656 1018.183594 436.363281 C 1006.113281 445.753906 1029.871094 404.671875 1018.183594 363.636719 C 1006.492188 322.597656 959.355469 281.605469 945.453125 290.910156 C 931.554688 300.210938 950.886719 359.8125 945.453125 363.636719 C 940.023438 367.460938 909.824219 315.515625 872.726562 290.910156 C 835.628906 266.304688 791.632812 269.039062 800 290.910156 C 808.367188 312.78125 869.09375 353.785156 872.726562 363.636719 C 876.363281 373.488281 822.90625 352.183594 800 363.636719 C 777.09375 375.085938 784.738281 419.292969 800 436.363281 C 815.261719 453.433594 838.136719 443.371094 872.726562 436.363281 C 907.316406 429.359375 953.617188 425.410156 945.453125 436.363281 C 937.289062 447.316406 874.660156 473.171875 872.726562 509.089844 C 870.796875 545.007812 929.566406 590.988281 945.453125 581.816406 C 961.34375 572.644531 934.355469 508.320312 945.453125 509.089844 C 956.554688 509.859375 1005.742188 575.726562 1018.183594 581.816406 C 1030.621094 587.910156 1006.3125 534.234375 1018.183594 509.089844 C 1030.050781 483.949219 1078.097656 487.34375 1090.910156 509.089844 C 1103.722656 530.839844 1081.300781 570.941406 1090.910156 581.816406 C 1100.519531 592.695312 1142.15625 574.347656 1163.636719 581.816406 C 1185.113281 589.289062 1186.433594 622.574219 1163.636719 654.546875 C 1140.839844 686.515625 1093.933594 717.167969 1090.910156 727.273438 C 1087.882812 737.375 1128.742188 726.929688 1163.636719 727.273438 C 1198.53125 727.613281 1227.457031 738.742188 1236.363281 727.273438 C 1245.269531 715.804688 1234.15625 681.734375 1236.363281 654.546875 C 1238.570312 627.355469 1254.097656 607.046875 1236.363281 581.816406 C 1218.632812 556.589844 1167.640625 526.445312 1163.636719 509.089844 C 1159.632812 491.734375 1202.609375 487.171875 1236.363281 509.089844 C 1270.117188 531.011719 1294.640625 579.410156 1309.089844 581.816406 C 1323.539062 584.222656 1327.910156 540.632812 1309.089844 509.089844 "/>
<path style=" stroke:none;fill-rule:nonzero;fill:rgb(0%,0%,0%);fill-opacity:1;" d="M 1236.363281 72.726562 C 1200.886719 74.5 1176.054688 63.859375 1163.636719 72.726562 C 1151.21875 81.597656 1151.21875 109.976562 1163.636719 145.453125 C 1176.054688 180.929688 1200.886719 223.503906 1236.363281 218.183594 C 1271.839844 212.859375 1317.960938 159.644531 1309.089844 145.453125 C 1300.222656 131.265625 1236.363281 156.097656 1236.363281 145.453125 C 1236.363281 134.8125 1300.222656 88.691406 1309.089844 72.726562 C 1317.960938 56.761719 1271.839844 70.953125 1236.363281 72.726562 "/>
<path style=" stroke:none;fill-rule:nonzero;fill:rgb(0%,0%,0%);fill-opacity:1;" d="M 800 218.183594 C 808.871094 230.597656 837.25 230.597656 872.726562 218.183594 C 908.203125 205.765625 950.777344 180.929688 945.453125 145.453125 C 940.132812 109.976562 886.917969 63.859375 872.726562 72.726562 C 858.535156 81.597656 883.371094 145.453125 872.726562 145.453125 C 862.085938 145.453125 815.964844 81.597656 800 72.726562 C 784.035156 63.859375 798.226562 109.976562 800 145.453125 C 801.773438 180.929688 791.128906 205.765625 800 218.183594 "/>
<path style=" stroke:none;fill-rule:nonzero;fill:rgb(0%,0%,0%);fill-opacity:1;" d="M 1018.183594 218.183594 C 1013.65625 237.667969 1036.277344 288.125 1018.183594 290.910156 C 1000.085938 293.691406 941.277344 248.804688 945.453125 218.183594 C 949.628906 187.558594 1016.789062 171.203125 1018.183594 145.453125 C 1019.574219 119.703125 955.199219 84.558594 945.453125 72.726562 C 935.710938 60.894531 980.601562 72.378906 1018.183594 72.726562 C 1055.761719 73.074219 1086.039062 62.289062 1090.910156 72.726562 C 1095.78125 83.167969 1075.25 114.832031 1090.910156 145.453125 C 1106.566406 176.078125 1158.417969 205.65625 1163.636719 218.183594 C 1168.855469 230.710938 1127.445312 226.183594 1090.910156 218.183594 C 1054.371094 210.179688 1022.707031 198.695312 1018.183594 218.183594 "/>
<path style=" stroke:none;fill-rule:nonzero;fill:rgb(0%,0%,0%);fill-opacity:1;" d="M 1381.816406 363.636719 C 1382.894531 371.902344 1435.003906 354.679688 1454.546875 363.636719 C 1474.089844 372.59375 1461.066406 407.734375 1454.546875 436.363281 C 1448.023438 464.992188 1448.007812 487.109375 1454.546875 509.089844 C 1461.082031 531.070312 1474.179688 552.914062 1454.546875 581.816406 C 1434.910156 610.722656 1382.546875 646.683594 1381.816406 654.546875 C 1381.085938 662.40625 1431.988281 642.171875 1454.546875 654.546875 C 1477.101562 666.917969 1471.3125 711.902344 1454.546875 727.273438 C 1437.777344 742.640625 1410.035156 728.394531 1381.816406 727.273438 C 1353.601562 726.148438 1324.90625 738.148438 1309.089844 727.273438 C 1293.273438 716.398438 1290.332031 682.644531 1309.089844 654.546875 C 1327.847656 626.445312 1368.304688 604 1381.816406 581.816406 C 1395.332031 559.636719 1381.910156 537.71875 1381.816406 509.089844 C 1381.726562 480.460938 1394.96875 445.121094 1381.816406 436.363281 C 1368.667969 427.605469 1329.125 445.433594 1309.089844 436.363281 C 1289.054688 427.296875 1288.527344 391.332031 1309.089844 363.636719 C 1329.65625 335.9375 1371.316406 316.507812 1381.816406 290.910156 C 1392.320312 265.3125 1371.664062 233.550781 1381.816406 218.183594 C 1391.972656 202.8125 1432.9375 203.835938 1454.546875 218.183594 C 1476.152344 232.527344 1478.398438 260.199219 1454.546875 290.910156 C 1430.691406 321.621094 1380.742188 355.371094 1381.816406 363.636719 "/>
<path style=" stroke:none;fill-rule:nonzero;fill:rgb(0%,0%,0%);fill-opacity:1;" d="M 1309.089844 290.910156 C 1284.847656 315.152344 1236.363281 315.152344 1236.363281 290.910156 C 1236.363281 266.667969 1284.847656 218.183594 1309.089844 218.183594 C 1333.332031 218.183594 1333.332031 266.667969 1309.089844 290.910156 "/>
<path style=" stroke:none;fill-rule:nonzero;fill:rgb(0%,0%,0%);fill-opacity:1;" d="M 872.726562 654.546875 C 905.785156 654.546875 945.453125 641.324219 945.453125 654.546875 C 945.453125 667.769531 905.785156 707.4375 872.726562 727.273438 C 839.667969 747.109375 813.222656 747.109375 800 727.273438 C 786.777344 707.4375 786.777344 667.769531 800 654.546875 C 813.222656 641.324219 839.667969 654.546875 872.726562 654.546875 "/>
<path style=" stroke:none;fill-rule:nonzero;fill:rgb(0%,0%,0%);fill-opacity:1;" d="M 1018.183594 654.546875 C 981.816406 672.726562 945.453125 709.089844 945.453125 727.273438 C 945.453125 745.453125 981.816406 745.453125 1018.183594 727.273438 C 1054.546875 709.089844 1090.910156 672.726562 1090.910156 654.546875 C 1090.910156 636.363281 1054.546875 636.363281 1018.183594 654.546875 "/>
<path style=" stroke:none;fill-rule:nonzero;fill:rgb(0%,0%,0%);fill-opacity:1;" d="M 1454.546875 72.726562 C 1472.726562 90.910156 1472.726562 127.273438 1454.546875 145.453125 C 1436.363281 163.636719 1400 163.636719 1381.816406 145.453125 C 1363.636719 127.273438 1363.636719 90.910156 1381.816406 72.726562 C 1400 54.546875 1436.363281 54.546875 1454.546875 72.726562 "/>
<path style=" stroke:none;fill-rule:nonzero;fill:rgb(0%,0%,0%);fill-opacity:1;" d="M 800 581.816406 C 824.242188 606.0625 872.726562 606.0625 872.726562 581.816406 C 872.726562 557.574219 824.242188 509.089844 800 509.089844 C 775.757812 509.089844 775.757812 557.574219 800 581.816406 "/>
</g>
</svg>
