<?xml version="1.0" encoding="UTF-8"?>
<svg xmlns="http://www.w3.org/2000/svg" xmlns:xlink="http://www.w3.org/1999/xlink" width="1200pt" height="1200pt" viewBox="0 0 1200 1200" version="1.1">
<g id="surface1">
<rect x="0" y="0" width="1200" height="1200" style="fill:rgb(100%,100%,100%);fill-opacity:1;stroke:none;"/>
<path style=" stroke:none;fill-rule:nonzero;fill:rgb(0%,0%,0%);fill-opacity:1;" d="M 457.144531 971.429688 C 446.464844 978.03125 462.285156 1022.605469 457.144531 1028.570312 C 452 1034.535156 425.890625 1001.890625 400 971.429688 C 374.109375 940.964844 348.441406 912.683594 342.855469 914.285156 C 337.273438 915.886719 351.773438 947.375 342.855469 971.429688 C 333.9375 995.484375 301.601562 1012.105469 285.714844 1028.570312 C 269.828125 1045.035156 270.390625 1061.34375 285.714844 1085.714844 C 301.035156 1110.082031 331.117188 1142.511719 342.855469 1142.855469 C 354.597656 1143.203125 348 1111.464844 342.855469 1085.714844 C 337.714844 1059.964844 334.035156 1040.203125 342.855469 1028.570312 C 351.679688 1016.941406 373.007812 1013.441406 400 1028.570312 C 426.992188 1043.703125 459.640625 1077.464844 457.144531 1085.714844 C 454.644531 1093.960938 416.996094 1076.695312 400 1085.714844 C 383.003906 1094.730469 386.664062 1130.035156 400 1142.855469 C 413.335938 1155.679688 436.351562 1146.023438 457.144531 1142.855469 C 477.933594 1139.691406 496.5 1143.015625 514.285156 1142.855469 C 532.074219 1142.695312 549.082031 1139.050781 571.429688 1142.855469 C 593.777344 1146.664062 621.460938 1157.917969 628.570312 1142.855469 C 635.679688 1127.796875 622.214844 1086.417969 628.570312 1085.714844 C 634.929688 1085.011719 661.109375 1124.988281 685.714844 1142.855469 C 710.320312 1160.726562 733.351562 1156.492188 742.855469 1142.855469 C 752.363281 1129.222656 748.34375 1106.183594 742.855469 1085.714844 C 737.371094 1065.242188 730.414062 1047.335938 742.855469 1028.570312 C 755.300781 1009.804688 787.144531 990.179688 800 971.429688 C 812.855469 952.675781 806.722656 934.800781 800 914.285156 C 793.277344 893.773438 785.957031 870.621094 800 857.144531 C 814.042969 843.664062 849.441406 839.863281 857.144531 857.144531 C 864.84375 874.425781 844.839844 912.789062 857.144531 914.285156 C 869.445312 915.78125 914.046875 880.410156 914.285156 857.144531 C 914.523438 833.875 870.398438 822.714844 857.144531 800 C 843.890625 777.285156 861.507812 743.011719 857.144531 742.855469 C 852.777344 742.703125 826.429688 776.667969 800 800 C 773.570312 823.332031 747.066406 836.035156 742.855469 857.144531 C 738.648438 878.253906 756.734375 907.769531 742.855469 914.285156 C 728.980469 920.800781 683.136719 904.3125 685.714844 914.285156 C 688.292969 924.257812 739.292969 960.695312 742.855469 971.429688 C 746.421875 982.164062 702.554688 967.195312 685.714844 971.429688 C 668.875 975.660156 679.066406 999.09375 685.714844 1028.570312 C 692.363281 1058.050781 695.46875 1093.570312 685.714844 1085.714844 C 675.960938 1077.855469 653.34375 1026.621094 628.570312 1028.570312 C 603.800781 1030.523438 576.871094 1085.660156 571.429688 1085.714844 C 565.984375 1085.769531 582.023438 1030.746094 571.429688 1028.570312 C 560.832031 1026.398438 523.601562 1077.074219 514.285156 1085.714844 C 504.972656 1094.351562 523.574219 1060.953125 514.285156 1028.570312 C 505 996.1875 467.820312 964.824219 457.144531 971.429688 "/>
<path style=" stroke:none;fill-rule:nonzero;fill:rgb(0%,0%,0%);fill-opacity:1;" d="M 971.429688 628.570312 C 959.039062 616.378906 967.242188 592.25 971.429688 571.429688 C 975.617188 550.609375 975.789062 533.097656 971.429688 514.285156 C 967.066406 495.472656 958.167969 475.363281 971.429688 457.144531 C 984.691406 438.921875 1020.109375 422.597656 1028.570312 400 C 1037.03125 377.402344 1018.53125 348.539062 1028.570312 342.855469 C 1038.609375 337.175781 1077.191406 354.679688 1085.714844 342.855469 C 1094.238281 331.03125 1072.707031 289.878906 1085.714844 285.714844 C 1098.71875 281.546875 1146.261719 314.371094 1142.855469 342.855469 C 1139.449219 371.34375 1085.097656 395.496094 1085.714844 400 C 1086.332031 404.503906 1141.921875 389.363281 1142.855469 400 C 1143.792969 410.636719 1090.070312 447.058594 1085.714844 457.144531 C 1081.355469 467.230469 1126.363281 450.980469 1142.855469 457.144531 C 1159.351562 463.304688 1147.335938 491.875 1142.855469 514.285156 C 1138.378906 536.695312 1141.441406 552.941406 1142.855469 571.429688 C 1144.273438 589.917969 1144.046875 610.644531 1142.855469 628.570312 C 1141.667969 646.496094 1139.519531 661.621094 1142.855469 685.714844 C 1146.195312 709.804688 1155.019531 742.867188 1142.855469 742.855469 C 1130.695312 742.847656 1097.550781 709.773438 1085.714844 685.714844 C 1073.878906 661.65625 1083.351562 646.621094 1085.714844 628.570312 C 1088.078125 610.523438 1083.328125 589.464844 1085.714844 571.429688 C 1088.101562 553.390625 1097.621094 538.375 1085.714844 514.285156 C 1073.808594 490.195312 1040.476562 457.035156 1028.570312 457.144531 C 1016.664062 457.25 1026.179688 490.628906 1028.570312 514.285156 C 1030.960938 537.945312 1026.226562 551.882812 1028.570312 571.429688 C 1030.917969 590.972656 1040.347656 616.125 1028.570312 628.570312 C 1016.796875 641.019531 983.816406 640.765625 971.429688 628.570312 "/>
<path style=" stroke:none;fill-rule:nonzero;fill:rgb(0%,0%,0%);fill-opacity:1;" d="M 1142.855469 914.285156 C 1130.210938 919.367188 1106.054688 967.835938 1085.714844 971.429688 C 1065.375 975.019531 1048.847656 933.734375 1028.570312 914.285156 C 1008.296875 894.835938 984.269531 897.222656 971.429688 914.285156 C 958.589844 931.351562 956.9375 963.09375 971.429688 971.429688 C 985.921875 979.761719 1016.558594 964.6875 1028.570312 971.429688 C 1040.585938 978.167969 1033.972656 1006.722656 1028.570312 1028.570312 C 1023.167969 1050.421875 1018.972656 1065.566406 1028.570312 1085.714844 C 1038.171875 1105.859375 1061.566406 1131.007812 1085.714844 1142.855469 C 1109.863281 1154.707031 1134.765625 1153.253906 1142.855469 1142.855469 C 1150.949219 1132.460938 1142.226562 1113.117188 1142.855469 1085.714844 C 1143.488281 1058.308594 1153.476562 1022.84375 1142.855469 1028.570312 C 1132.238281 1034.296875 1101.011719 1081.214844 1085.714844 1085.714844 C 1070.417969 1090.210938 1071.050781 1052.289062 1085.714844 1028.570312 C 1100.378906 1004.851562 1129.078125 995.339844 1142.855469 971.429688 C 1156.636719 947.515625 1155.503906 909.207031 1142.855469 914.285156 "/>
<path style=" stroke:none;fill-rule:nonzero;fill:rgb(0%,0%,0%);fill-opacity:1;" d="M 1085.714844 57.144531 C 1095.476562 38.675781 1130.203125 43.453125 1142.855469 57.144531 C 1155.511719 70.832031 1146.09375 93.4375 1142.855469 114.285156 C 1139.621094 135.136719 1142.570312 154.230469 1142.855469 171.429688 C 1143.144531 188.625 1140.773438 203.925781 1142.855469 228.570312 C 1144.941406 253.214844 1151.480469 287.207031 1142.855469 285.714844 C 1134.234375 284.222656 1110.453125 247.246094 1085.714844 228.570312 C 1060.972656 209.898438 1035.273438 209.527344 1028.570312 228.570312 C 1021.867188 247.617188 1034.160156 286.078125 1028.570312 285.714844 C 1022.984375 285.351562 999.519531 246.160156 971.429688 228.570312 C 943.339844 210.980469 910.625 214.992188 914.285156 228.570312 C 917.945312 242.148438 957.980469 265.292969 971.429688 285.714844 C 984.875 306.136719 971.734375 323.832031 971.429688 342.855469 C 971.125 361.882812 983.65625 382.230469 971.429688 400 C 959.203125 417.769531 922.21875 432.953125 914.285156 457.144531 C 906.351562 481.332031 927.46875 514.527344 914.285156 514.285156 C 901.101562 514.042969 853.621094 480.359375 857.144531 457.144531 C 860.664062 433.925781 915.195312 421.175781 914.285156 400 C 913.378906 378.824219 857.03125 349.230469 857.144531 342.855469 C 857.253906 336.484375 913.824219 353.335938 914.285156 342.855469 C 914.746094 332.375 859.097656 294.5625 857.144531 285.714844 C 855.1875 276.863281 906.925781 296.976562 914.285156 285.714844 C 921.644531 274.449219 884.625 231.808594 857.144531 228.570312 C 829.660156 225.335938 811.71875 261.503906 800 285.714844 C 788.28125 309.925781 782.785156 322.175781 800 342.855469 C 817.214844 363.539062 857.136719 392.65625 857.144531 400 C 857.148438 407.34375 817.242188 392.914062 800 400 C 782.757812 407.085938 788.179688 435.6875 800 457.144531 C 811.820312 478.597656 830.042969 492.90625 857.144531 514.285156 C 884.242188 535.667969 920.214844 564.121094 914.285156 571.429688 C 908.355469 578.734375 860.519531 564.894531 857.144531 571.429688 C 853.765625 577.960938 894.851562 604.871094 914.285156 628.570312 C 933.722656 652.273438 931.511719 672.769531 914.285156 685.714844 C 897.0625 698.65625 864.824219 704.046875 857.144531 685.714844 C 849.460938 667.382812 866.335938 625.328125 857.144531 628.570312 C 847.953125 631.816406 812.695312 680.359375 800 685.714844 C 787.304688 691.066406 797.171875 653.230469 800 628.570312 C 802.828125 603.914062 798.621094 592.433594 800 571.429688 C 801.378906 550.421875 808.34375 519.890625 800 514.285156 C 791.65625 508.679688 768 528.003906 742.855469 514.285156 C 717.714844 500.566406 691.082031 453.808594 685.714844 457.144531 C 680.347656 460.476562 696.242188 513.90625 685.714844 514.285156 C 675.1875 514.664062 638.238281 461.996094 628.570312 457.144531 C 618.90625 452.289062 636.527344 495.25 628.570312 514.285156 C 620.617188 533.324219 587.085938 528.4375 571.429688 514.285156 C 555.773438 500.136719 557.992188 476.722656 571.429688 457.144531 C 584.867188 437.5625 609.523438 421.816406 628.570312 400 C 647.621094 378.183594 661.0625 350.300781 685.714844 342.855469 C 710.363281 335.414062 746.21875 348.410156 742.855469 342.855469 C 739.492188 337.304688 696.910156 313.207031 685.714844 285.714844 C 674.515625 258.21875 694.707031 227.332031 685.714844 228.570312 C 676.722656 229.8125 638.546875 263.179688 628.570312 285.714844 C 618.59375 308.246094 636.816406 319.945312 628.570312 342.855469 C 620.328125 365.769531 585.621094 399.898438 571.429688 400 C 557.238281 400.101562 563.5625 366.179688 571.429688 342.855469 C 579.296875 319.535156 588.707031 306.808594 571.429688 285.714844 C 554.148438 264.617188 510.175781 235.152344 514.285156 228.570312 C 518.394531 221.992188 570.585938 238.292969 571.429688 228.570312 C 572.269531 218.847656 521.761719 183.097656 514.285156 171.429688 C 506.808594 159.757812 542.359375 172.167969 571.429688 171.429688 C 600.496094 170.6875 623.078125 156.800781 628.570312 171.429688 C 634.0625 186.054688 622.464844 229.195312 628.570312 228.570312 C 634.675781 227.945312 658.484375 183.554688 685.714844 171.429688 C 712.941406 159.304688 743.589844 179.445312 742.855469 171.429688 C 742.125 163.410156 710.007812 127.230469 685.714844 114.285156 C 661.417969 101.339844 644.941406 111.632812 628.570312 114.285156 C 612.199219 116.9375 595.933594 111.953125 571.429688 114.285156 C 546.925781 116.617188 514.183594 126.265625 514.285156 114.285156 C 514.386719 102.304688 547.332031 68.699219 571.429688 57.144531 C 595.527344 45.585938 610.777344 56.085938 628.570312 57.144531 C 646.367188 58.203125 666.707031 49.820312 685.714844 57.144531 C 704.71875 64.464844 722.390625 87.488281 742.855469 114.285156 C 763.324219 141.085938 786.589844 171.660156 800 171.429688 C 813.410156 171.195312 816.957031 140.15625 800 114.285156 C 783.042969 88.414062 745.574219 67.710938 742.855469 57.144531 C 740.140625 46.574219 772.175781 46.144531 800 57.144531 C 827.824219 68.144531 851.445312 90.574219 857.144531 114.285156 C 862.839844 137.996094 850.617188 162.988281 857.144531 171.429688 C 863.667969 179.871094 888.941406 171.761719 914.285156 171.429688 C 939.632812 171.09375 965.050781 178.535156 971.429688 171.429688 C 977.808594 164.320312 965.148438 142.664062 971.429688 114.285156 C 977.707031 85.90625 1002.929688 50.804688 1028.570312 57.144531 C 1054.214844 63.480469 1080.28125 111.253906 1085.714844 114.285156 C 1091.148438 117.316406 1075.949219 75.609375 1085.714844 57.144531 "/>
<path style=" stroke:none;fill-rule:nonzero;fill:rgb(0%,0%,0%);fill-opacity:1;" d="M 514.285156 857.144531 C 514.671875 867.914062 566.5625 851.539062 571.429688 857.144531 C 576.296875 862.746094 534.140625 890.328125 514.285156 914.285156 C 494.433594 938.242188 496.878906 958.574219 514.285156 971.429688 C 531.691406 984.28125 564.050781 989.65625 571.429688 971.429688 C 578.804688 953.199219 561.195312 911.367188 571.429688 914.285156 C 581.660156 917.207031 619.738281 964.878906 628.570312 971.429688 C 637.40625 977.980469 616.996094 943.410156 628.570312 914.285156 C 640.144531 885.160156 683.703125 861.484375 685.714844 857.144531 C 687.726562 852.800781 648.191406 867.792969 628.570312 857.144531 C 608.949219 846.492188 609.242188 810.195312 628.570312 800 C 647.902344 789.804688 686.269531 805.707031 685.714844 800 C 685.160156 794.292969 645.679688 766.972656 628.570312 742.855469 C 611.464844 718.742188 616.730469 697.828125 628.570312 685.714844 C 640.414062 673.601562 658.832031 670.285156 685.714844 685.714844 C 712.597656 701.144531 747.945312 735.316406 742.855469 742.855469 C 737.769531 750.398438 692.246094 731.308594 685.714844 742.855469 C 679.183594 754.40625 711.644531 796.59375 742.855469 800 C 774.066406 803.40625 804.027344 768.039062 800 742.855469 C 795.972656 717.675781 757.957031 702.683594 742.855469 685.714844 C 727.757812 668.742188 735.578125 649.792969 742.855469 628.570312 C 750.136719 607.347656 756.878906 583.851562 742.855469 571.429688 C 728.835938 559.003906 694.046875 557.648438 685.714844 571.429688 C 677.378906 585.207031 695.5 614.121094 685.714844 628.570312 C 675.929688 643.023438 638.242188 643.007812 628.570312 628.570312 C 618.902344 614.132812 637.253906 585.269531 628.570312 571.429688 C 619.890625 557.589844 584.175781 558.773438 571.429688 571.429688 C 558.679688 584.085938 568.894531 608.214844 571.429688 628.570312 C 573.960938 648.929688 568.8125 665.515625 571.429688 685.714844 C 574.042969 705.910156 584.417969 729.71875 571.429688 742.855469 C 558.4375 755.996094 522.082031 758.464844 514.285156 742.855469 C 506.488281 727.25 527.253906 693.570312 514.285156 685.714844 C 501.316406 677.855469 454.613281 695.820312 457.144531 685.714844 C 459.671875 675.605469 511.433594 637.429688 514.285156 628.570312 C 517.136719 619.714844 471.082031 640.179688 457.144531 628.570312 C 443.207031 616.964844 461.386719 573.28125 457.144531 571.429688 C 452.898438 569.574219 426.226562 609.546875 400 628.570312 C 373.773438 647.597656 347.992188 645.671875 342.855469 628.570312 C 337.722656 611.46875 353.238281 579.191406 342.855469 571.429688 C 332.476562 563.664062 296.199219 580.417969 285.714844 571.429688 C 275.230469 562.4375 290.539062 527.699219 285.714844 514.285156 C 280.890625 500.871094 255.933594 508.777344 228.570312 514.285156 C 201.207031 519.792969 171.4375 522.90625 171.429688 514.285156 C 171.417969 505.664062 201.167969 485.3125 228.570312 457.144531 C 255.976562 428.972656 281.035156 392.984375 285.714844 400 C 290.394531 407.015625 274.691406 457.039062 285.714844 457.144531 C 296.734375 457.246094 334.480469 407.425781 342.855469 400 C 351.234375 392.574219 330.242188 427.542969 342.855469 457.144531 C 355.472656 486.742188 401.691406 510.976562 400 514.285156 C 398.308594 517.597656 348.703125 499.988281 342.855469 514.285156 C 337.011719 528.585938 374.921875 574.789062 400 571.429688 C 425.078125 568.066406 437.320312 515.136719 457.144531 514.285156 C 476.964844 513.4375 504.363281 564.667969 514.285156 571.429688 C 524.207031 578.191406 516.65625 540.480469 514.285156 514.285156 C 511.914062 488.09375 514.726562 473.414062 514.285156 457.144531 C 513.84375 440.871094 510.148438 423.007812 514.285156 400 C 518.425781 376.992188 530.398438 348.839844 514.285156 342.855469 C 498.171875 336.875 453.96875 353.054688 457.144531 342.855469 C 460.316406 332.660156 510.871094 296.078125 514.285156 285.714844 C 517.699219 275.351562 473.972656 291.203125 457.144531 285.714844 C 440.3125 280.222656 450.378906 253.390625 457.144531 228.570312 C 463.90625 203.753906 467.363281 180.953125 457.144531 171.429688 C 446.921875 161.902344 423.019531 165.652344 400 171.429688 C 376.980469 177.207031 354.847656 185.007812 342.855469 171.429688 C 330.867188 157.847656 329.015625 122.882812 342.855469 114.285156 C 356.699219 105.6875 386.234375 123.460938 400 114.285156 C 413.765625 105.109375 411.757812 68.984375 400 57.144531 C 388.242188 45.300781 366.738281 57.738281 342.855469 57.144531 C 318.976562 56.550781 292.71875 42.925781 285.714844 57.144531 C 278.707031 71.359375 290.953125 113.421875 285.714844 114.285156 C 280.472656 115.148438 257.75 74.8125 228.570312 57.144531 C 199.394531 39.472656 163.765625 44.464844 171.429688 57.144531 C 179.089844 69.820312 230.046875 90.1875 228.570312 114.285156 C 227.097656 138.386719 173.195312 166.21875 171.429688 171.429688 C 169.660156 176.636719 220.023438 159.21875 228.570312 171.429688 C 237.121094 183.640625 203.851562 225.480469 171.429688 228.570312 C 139.003906 231.660156 107.425781 196 114.285156 171.429688 C 121.144531 146.855469 166.445312 133.371094 171.429688 114.285156 C 176.410156 95.203125 141.074219 70.519531 114.285156 57.144531 C 87.496094 43.765625 69.253906 41.691406 57.144531 57.144531 C 45.03125 72.59375 39.050781 105.566406 57.144531 114.285156 C 75.234375 123.003906 117.398438 107.46875 114.285156 114.285156 C 111.171875 121.101562 62.78125 150.265625 57.144531 171.429688 C 51.503906 192.589844 88.617188 205.75 114.285156 228.570312 C 139.957031 251.394531 154.183594 283.878906 171.429688 285.714844 C 188.671875 287.550781 208.933594 258.734375 228.570312 228.570312 C 248.210938 198.410156 267.226562 166.898438 285.714844 171.429688 C 304.199219 175.960938 322.15625 216.53125 342.855469 228.570312 C 363.558594 240.613281 387.003906 224.121094 400 228.570312 C 412.996094 233.023438 415.550781 258.421875 400 285.714844 C 384.449219 313.007812 350.800781 342.199219 342.855469 342.855469 C 334.914062 343.515625 352.671875 315.640625 342.855469 285.714844 C 333.042969 255.789062 295.648438 223.8125 285.714844 228.570312 C 275.777344 233.328125 293.300781 274.820312 285.714844 285.714844 C 278.128906 296.609375 245.433594 276.910156 228.570312 285.714844 C 211.710938 294.519531 210.683594 331.824219 228.570312 342.855469 C 246.460938 353.886719 283.261719 338.644531 285.714844 342.855469 C 288.164062 347.070312 256.265625 370.738281 228.570312 400 C 200.878906 429.261719 177.394531 464.109375 171.429688 457.144531 C 165.460938 450.175781 177.011719 401.394531 171.429688 400 C 165.847656 398.605469 143.128906 444.605469 114.285156 457.144531 C 85.441406 469.679688 50.464844 448.757812 57.144531 457.144531 C 63.820312 465.527344 112.148438 503.226562 114.285156 514.285156 C 116.425781 525.347656 72.375 509.773438 57.144531 514.285156 C 41.910156 518.800781 55.496094 543.398438 57.144531 571.429688 C 58.789062 599.457031 48.496094 630.914062 57.144531 628.570312 C 65.789062 626.230469 93.378906 590.089844 114.285156 571.429688 C 135.191406 552.769531 149.414062 551.585938 171.429688 571.429688 C 193.445312 591.269531 223.25 632.136719 228.570312 628.570312 C 233.890625 625.007812 214.722656 577.007812 228.570312 571.429688 C 242.421875 565.847656 289.285156 602.683594 285.714844 628.570312 C 282.140625 654.457031 228.128906 669.394531 228.570312 685.714844 C 229.011719 702.03125 283.910156 719.730469 285.714844 742.855469 C 287.519531 765.984375 236.230469 794.535156 228.570312 800 C 220.914062 805.464844 256.882812 787.839844 285.714844 800 C 314.542969 812.160156 336.234375 854.109375 342.855469 857.144531 C 349.480469 860.175781 341.035156 824.292969 342.855469 800 C 344.679688 775.707031 356.765625 763.007812 342.855469 742.855469 C 328.949219 722.707031 289.046875 695.113281 285.714844 685.714844 C 282.382812 676.316406 315.625 685.117188 342.855469 685.714844 C 370.089844 686.3125 391.320312 678.707031 400 685.714844 C 408.679688 692.722656 404.816406 714.347656 400 742.855469 C 395.183594 771.367188 389.410156 806.769531 400 800 C 410.589844 793.230469 437.535156 744.296875 457.144531 742.855469 C 476.75 741.417969 489.011719 787.46875 514.285156 800 C 539.558594 812.53125 577.84375 791.539062 571.429688 800 C 565.011719 808.460938 513.898438 846.375 514.285156 857.144531 "/>
<path style=" stroke:none;fill-rule:nonzero;fill:rgb(0%,0%,0%);fill-opacity:1;" d="M 857.144531 1085.714844 C 872.46875 1076.363281 874.675781 1039.332031 857.144531 1028.570312 C 839.613281 1017.808594 802.347656 1033.316406 800 1028.570312 C 797.652344 1023.828125 830.226562 998.832031 857.144531 971.429688 C 884.058594 944.023438 905.3125 914.210938 914.285156 914.285156 C 923.257812 914.359375 919.949219 944.320312 914.285156 971.429688 C 908.621094 998.539062 900.601562 1022.796875 914.285156 1028.570312 C 927.972656 1034.347656 963.367188 1021.640625 971.429688 1028.570312 C 979.492188 1035.503906 960.226562 1062.078125 971.429688 1085.714844 C 982.632812 1109.351562 1024.304688 1130.054688 1028.570312 1142.855469 C 1032.835938 1155.660156 999.695312 1160.5625 971.429688 1142.855469 C 943.164062 1125.152344 919.773438 1084.839844 914.285156 1085.714844 C 908.800781 1086.585938 921.21875 1128.644531 914.285156 1142.855469 C 907.351562 1157.070312 881.070312 1143.4375 857.144531 1142.855469 C 833.214844 1142.277344 811.644531 1154.753906 800 1142.855469 C 788.355469 1130.960938 786.632812 1094.6875 800 1085.714844 C 813.367188 1076.742188 841.816406 1095.066406 857.144531 1085.714844 "/>
<path style=" stroke:none;fill-rule:nonzero;fill:rgb(0%,0%,0%);fill-opacity:1;" d="M 228.570312 1028.570312 C 203.476562 1039.15625 192.023438 1023.023438 171.429688 1028.570312 C 150.832031 1034.117188 121.089844 1061.347656 114.285156 1085.714844 C 107.480469 1110.082031 123.609375 1131.585938 114.285156 1142.855469 C 104.960938 1154.128906 70.1875 1155.164062 57.144531 1142.855469 C 44.101562 1130.550781 52.789062 1104.894531 57.144531 1085.714844 C 61.496094 1066.53125 61.507812 1053.820312 57.144531 1028.570312 C 52.777344 1003.320312 44.03125 965.53125 57.144531 971.429688 C 70.253906 977.328125 105.226562 1026.914062 114.285156 1028.570312 C 123.34375 1030.230469 106.488281 983.960938 114.285156 971.429688 C 122.082031 958.894531 154.535156 980.101562 171.429688 971.429688 C 188.320312 962.757812 189.65625 924.207031 171.429688 914.285156 C 153.199219 904.363281 115.410156 923.066406 114.285156 914.285156 C 113.164062 905.503906 148.707031 869.234375 171.429688 857.144531 C 194.148438 845.050781 204.046875 857.136719 228.570312 857.144531 C 253.097656 857.148438 292.253906 845.070312 285.714844 857.144531 C 279.175781 869.214844 226.9375 905.441406 228.570312 914.285156 C 230.203125 923.132812 285.703125 904.597656 285.714844 914.285156 C 285.726562 923.972656 230.246094 961.878906 228.570312 971.429688 C 226.894531 980.980469 279.019531 962.175781 285.714844 971.429688 C 292.40625 980.679688 253.667969 1017.984375 228.570312 1028.570312 "/>
<path style=" stroke:none;fill-rule:nonzero;fill:rgb(0%,0%,0%);fill-opacity:1;" d="M 57.144531 342.855469 C 46.753906 353.246094 46.753906 384.414062 57.144531 400 C 67.53125 415.585938 88.3125 415.585938 114.285156 400 C 140.257812 384.414062 171.429688 353.246094 171.429688 342.855469 C 171.429688 332.46875 140.257812 342.855469 114.285156 342.855469 C 88.3125 342.855469 67.53125 332.46875 57.144531 342.855469 "/>
<path style=" stroke:none;fill-rule:nonzero;fill:rgb(0%,0%,0%);fill-opacity:1;" d="M 114.285156 285.714844 C 114.285156 304.761719 76.191406 304.761719 57.144531 285.714844 C 38.09375 266.667969 38.09375 228.570312 57.144531 228.570312 C 76.191406 228.570312 114.285156 266.667969 114.285156 285.714844 "/>
<path style=" stroke:none;fill-rule:nonzero;fill:rgb(0%,0%,0%);fill-opacity:1;" d="M 971.429688 742.855469 C 971.429688 761.90625 933.332031 800 914.285156 800 C 895.238281 800 895.238281 761.90625 914.285156 742.855469 C 933.332031 723.808594 971.429688 723.808594 971.429688 742.855469 "/>
<path style=" stroke:none;fill-rule:nonzero;fill:rgb(0%,0%,0%);fill-opacity:1;" d="M 400 342.855469 C 389.609375 342.855469 400 374.027344 400 400 C 400 425.972656 389.609375 446.753906 400 457.144531 C 410.390625 467.53125 441.558594 467.53125 457.144531 457.144531 C 472.726562 446.753906 472.726562 425.972656 457.144531 400 C 441.558594 374.027344 410.390625 342.855469 400 342.855469 "/>
<path style=" stroke:none;fill-rule:nonzero;fill:rgb(0%,0%,0%);fill-opacity:1;" d="M 1028.570312 800 C 1013.257812 805.976562 984.875 791.035156 971.429688 800 C 957.984375 808.964844 959.476562 841.828125 971.429688 857.144531 C 983.378906 872.457031 1005.789062 870.214844 1028.570312 857.144531 C 1051.355469 844.070312 1074.511719 820.167969 1085.714844 800 C 1096.917969 779.832031 1096.171875 763.398438 1085.714844 742.855469 C 1075.257812 722.316406 1055.089844 697.664062 1028.570312 685.714844 C 1002.054688 673.761719 969.1875 674.511719 971.429688 685.714844 C 973.667969 696.917969 1011.019531 718.582031 1028.570312 742.855469 C 1046.125 767.132812 1043.882812 794.023438 1028.570312 800 "/>
<path style=" stroke:none;fill-rule:nonzero;fill:rgb(0%,0%,0%);fill-opacity:1;" d="M 1085.714844 857.144531 C 1071.429688 885.714844 1071.429688 914.285156 1085.714844 914.285156 C 1100 914.285156 1128.570312 885.714844 1142.855469 857.144531 C 1157.144531 828.570312 1157.144531 800 1142.855469 800 C 1128.570312 800 1100 828.570312 1085.714844 857.144531 "/>
<path style=" stroke:none;fill-rule:nonzero;fill:rgb(0%,0%,0%);fill-opacity:1;" d="M 857.144531 57.144531 C 857.144531 71.429688 885.714844 114.285156 914.285156 114.285156 C 942.855469 114.285156 971.429688 71.429688 971.429688 57.144531 C 971.429688 42.855469 942.855469 57.144531 914.285156 57.144531 C 885.714844 57.144531 857.144531 42.855469 857.144531 57.144531 "/>
<path style=" stroke:none;fill-rule:nonzero;fill:rgb(0%,0%,0%);fill-opacity:1;" d="M 57.144531 857.144531 C 38.09375 876.191406 38.09375 914.285156 57.144531 914.285156 C 76.191406 914.285156 114.285156 876.191406 114.285156 857.144531 C 114.285156 838.09375 76.191406 838.09375 57.144531 857.144531 "/>
<path style=" stroke:none;fill-rule:nonzero;fill:rgb(0%,0%,0%);fill-opacity:1;" d="M 171.429688 742.855469 C 166.574219 761.15625 139.683594 761.15625 114.285156 742.855469 C 88.890625 724.554688 64.984375 687.957031 57.144531 685.714844 C 49.300781 683.472656 57.515625 715.59375 57.144531 742.855469 C 56.769531 770.121094 47.804688 792.53125 57.144531 800 C 66.480469 807.46875 94.117188 800 114.285156 800 C 134.453125 800 147.152344 807.46875 171.429688 800 C 195.703125 792.53125 231.558594 770.121094 228.570312 742.855469 C 225.582031 715.59375 183.753906 683.472656 171.429688 685.714844 C 159.105469 687.957031 176.285156 724.554688 171.429688 742.855469 "/>
<path style=" stroke:none;fill-rule:nonzero;fill:rgb(0%,0%,0%);fill-opacity:1;" d="M 457.144531 914.285156 C 446.753906 924.675781 415.585938 924.675781 400 914.285156 C 384.414062 903.894531 384.414062 883.117188 400 857.144531 C 415.585938 831.167969 446.753906 800 457.144531 800 C 467.53125 800 457.144531 831.167969 457.144531 857.144531 C 457.144531 883.117188 467.53125 903.894531 457.144531 914.285156 "/>
<path style=" stroke:none;fill-rule:nonzero;fill:rgb(0%,0%,0%);fill-opacity:1;" d="M 1028.570312 171.429688 C 1047.617188 190.476562 1085.714844 190.476562 1085.714844 171.429688 C 1085.714844 152.382812 1047.617188 114.285156 1028.570312 114.285156 C 1009.523438 114.285156 1009.523438 152.382812 1028.570312 171.429688 "/>
<path style=" stroke:none;fill-rule:nonzero;fill:rgb(0%,0%,0%);fill-opacity:1;" d="M 228.570312 1085.714844 C 254.546875 1101.296875 285.714844 1132.46875 285.714844 1142.855469 C 285.714844 1153.246094 254.546875 1142.855469 228.570312 1142.855469 C 202.597656 1142.855469 181.816406 1153.246094 171.429688 1142.855469 C 161.039062 1132.46875 161.039062 1101.296875 171.429688 1085.714844 C 181.816406 1070.128906 202.597656 1070.128906 228.570312 1085.714844 "/>
<path style=" stroke:none;fill-rule:nonzero;fill:rgb(0%,0%,0%);fill-opacity:1;" d="M 742.855469 400 C 723.808594 380.953125 685.714844 380.953125 685.714844 400 C 685.714844 419.046875 723.808594 457.144531 742.855469 457.144531 C 761.90625 457.144531 761.90625 419.046875 742.855469 400 "/>
<path style=" stroke:none;fill-rule:nonzero;fill:rgb(0%,0%,0%);fill-opacity:1;" d="M 800 228.570312 C 800 247.617188 761.90625 285.714844 742.855469 285.714844 C 723.808594 285.714844 723.808594 247.617188 742.855469 228.570312 C 761.90625 209.523438 800 209.523438 800 228.570312 "/>
<path style=" stroke:none;fill-rule:nonzero;fill:rgb(0%,0%,0%);fill-opacity:1;" d="M 457.144531 114.285156 C 438.09375 114.285156 438.09375 76.191406 457.144531 57.144531 C 476.191406 38.09375 514.285156 38.09375 514.285156 57.144531 C 514.285156 76.191406 476.191406 114.285156 457.144531 114.285156 "/>
<path style=" stroke:none;fill-rule:nonzero;fill:rgb(0%,0%,0%);fill-opacity:1;" d="M 114.285156 685.714844 C 95.238281 685.714844 95.238281 647.617188 114.285156 628.570312 C 133.332031 609.523438 171.429688 609.523438 171.429688 628.570312 C 171.429688 647.617188 133.332031 685.714844 114.285156 685.714844 "/>
</g>
</svg>
